<ttFont>
    <TTGlyph name=".notdef" xMin="53" yMin="0" xMax="405" yMax="677">
      <contour>
        <pt x="53" y="677" on="1"/>
        <pt x="405" y="677" on="1"/>
        <pt x="405" y="0" on="1"/>
        <pt x="53" y="0" on="1"/>
      </contour>
      <contour>
        <pt x="70" y="640" on="1"/>
        <pt x="178" y="640" on="1"/>
        <pt x="178" y="655" on="1"/>
        <pt x="70" y="655" on="1"/>
      </contour>
      <contour>
        <pt x="91" y="653" on="1"/>
        <pt x="92" y="653" on="1"/>
        <pt x="95" y="653" on="0"/>
        <pt x="95" y="647" on="1"/>
        <pt x="95" y="642" on="0"/>
        <pt x="92" y="642" on="1"/>
        <pt x="91" y="642" on="1"/>
      </contour>
      <contour>
        <pt x="165" y="653" on="1"/>
        <pt x="166" y="653" on="1"/>
        <pt x="169" y="653" on="0"/>
        <pt x="169" y="647" on="1"/>
        <pt x="169" y="642" on="0"/>
        <pt x="166" y="642" on="1"/>
        <pt x="165" y="642" on="1"/>
      </contour>
      <contour>
        <pt x="79" y="653" on="1"/>
        <pt x="80" y="653" on="1"/>
        <pt x="83" y="653" on="0"/>
        <pt x="83" y="649" on="1"/>
        <pt x="83" y="646" on="0"/>
        <pt x="81" y="645" on="1"/>
        <pt x="83" y="642" on="1"/>
        <pt x="82" y="642" on="1"/>
        <pt x="80" y="645" on="1"/>
        <pt x="80" y="642" on="1"/>
        <pt x="79" y="642" on="1"/>
      </contour>
      <contour>
        <pt x="96" y="653" on="1"/>
        <pt x="97" y="653" on="1"/>
        <pt x="100" y="653" on="0"/>
        <pt x="100" y="649" on="1"/>
        <pt x="100" y="646" on="0"/>
        <pt x="98" y="645" on="1"/>
        <pt x="100" y="642" on="1"/>
        <pt x="99" y="642" on="1"/>
        <pt x="97" y="645" on="1"/>
        <pt x="97" y="642" on="1"/>
        <pt x="96" y="642" on="1"/>
      </contour>
      <contour>
        <pt x="156" y="653" on="1"/>
        <pt x="157" y="653" on="1"/>
        <pt x="159" y="645" on="1"/>
        <pt x="159" y="653" on="1"/>
        <pt x="160" y="653" on="1"/>
        <pt x="160" y="642" on="1"/>
        <pt x="159" y="642" on="1"/>
        <pt x="157" y="649" on="1"/>
        <pt x="157" y="642" on="1"/>
        <pt x="156" y="642" on="1"/>
      </contour>
      <contour>
        <pt x="118" y="645" on="1"/>
        <pt x="116" y="645" on="1"/>
        <pt x="116" y="642" on="1"/>
        <pt x="115" y="642" on="1"/>
        <pt x="117" y="653" on="1"/>
        <pt x="118" y="653" on="1"/>
        <pt x="120" y="642" on="1"/>
        <pt x="119" y="642" on="1"/>
      </contour>
      <contour>
        <pt x="138" y="645" on="1"/>
        <pt x="136" y="645" on="1"/>
        <pt x="136" y="642" on="1"/>
        <pt x="135" y="642" on="1"/>
        <pt x="137" y="653" on="1"/>
        <pt x="138" y="653" on="1"/>
        <pt x="140" y="642" on="1"/>
        <pt x="139" y="642" on="1"/>
      </contour>
      <contour>
        <pt x="133" y="646" on="1"/>
        <pt x="131" y="646" on="1"/>
        <pt x="131" y="642" on="1"/>
        <pt x="130" y="642" on="1"/>
        <pt x="130" y="653" on="1"/>
        <pt x="131" y="653" on="1"/>
        <pt x="131" y="647" on="1"/>
        <pt x="133" y="647" on="1"/>
        <pt x="133" y="653" on="1"/>
        <pt x="134" y="653" on="1"/>
        <pt x="134" y="642" on="1"/>
        <pt x="133" y="642" on="1"/>
      </contour>
      <contour>
        <pt x="111" y="653" on="1"/>
        <pt x="112" y="653" on="1"/>
        <pt x="112" y="642" on="1"/>
        <pt x="111" y="642" on="1"/>
        <pt x="111" y="646" on="1"/>
        <pt x="109" y="646" on="1"/>
        <pt x="109" y="642" on="1"/>
        <pt x="108" y="642" on="1"/>
        <pt x="108" y="653" on="1"/>
        <pt x="109" y="653" on="1"/>
        <pt x="109" y="647" on="1"/>
        <pt x="111" y="647" on="1"/>
      </contour>
      <contour>
        <pt x="144" y="653" on="1"/>
        <pt x="145" y="653" on="1"/>
        <pt x="145" y="647" on="1"/>
        <pt x="145" y="642" on="0"/>
        <pt x="143" y="642" on="1"/>
        <pt x="141" y="642" on="0"/>
        <pt x="141" y="646" on="1"/>
        <pt x="141" y="653" on="1"/>
        <pt x="142" y="653" on="1"/>
        <pt x="142" y="647" on="1"/>
        <pt x="142" y="643" on="0"/>
        <pt x="143" y="643" on="1"/>
        <pt x="144" y="643" on="0"/>
        <pt x="144" y="646" on="1"/>
      </contour>
      <contour>
        <pt x="86" y="653" on="1"/>
        <pt x="90" y="653" on="1"/>
        <pt x="90" y="652" on="1"/>
        <pt x="87" y="652" on="1"/>
        <pt x="87" y="647" on="1"/>
        <pt x="90" y="647" on="1"/>
        <pt x="90" y="646" on="1"/>
        <pt x="87" y="646" on="1"/>
        <pt x="87" y="643" on="1"/>
        <pt x="90" y="643" on="1"/>
        <pt x="90" y="642" on="1"/>
        <pt x="86" y="642" on="1"/>
      </contour>
      <contour>
        <pt x="170" y="653" on="1"/>
        <pt x="174" y="653" on="1"/>
        <pt x="174" y="652" on="1"/>
        <pt x="171" y="652" on="1"/>
        <pt x="171" y="647" on="1"/>
        <pt x="174" y="647" on="1"/>
        <pt x="174" y="646" on="1"/>
        <pt x="171" y="646" on="1"/>
        <pt x="171" y="643" on="1"/>
        <pt x="174" y="643" on="1"/>
        <pt x="174" y="642" on="1"/>
        <pt x="170" y="642" on="1"/>
      </contour>
      <contour>
        <pt x="151" y="653" on="1"/>
        <pt x="155" y="653" on="1"/>
        <pt x="155" y="652" on="1"/>
        <pt x="152" y="652" on="1"/>
        <pt x="152" y="647" on="1"/>
        <pt x="155" y="647" on="1"/>
        <pt x="155" y="646" on="1"/>
        <pt x="152" y="646" on="1"/>
        <pt x="152" y="643" on="1"/>
        <pt x="155" y="643" on="1"/>
        <pt x="155" y="642" on="1"/>
        <pt x="151" y="642" on="1"/>
      </contour>
      <contour>
        <pt x="74" y="653" on="1"/>
        <pt x="78" y="653" on="1"/>
        <pt x="78" y="652" on="1"/>
        <pt x="75" y="652" on="1"/>
        <pt x="75" y="646" on="1"/>
        <pt x="78" y="646" on="1"/>
        <pt x="78" y="645" on="1"/>
        <pt x="75" y="645" on="1"/>
        <pt x="75" y="642" on="1"/>
        <pt x="74" y="642" on="1"/>
      </contour>
      <contour>
        <pt x="146" y="651" on="1"/>
        <pt x="146" y="654" on="0"/>
        <pt x="150" y="653" on="1"/>
        <pt x="150" y="652" on="1"/>
        <pt x="147" y="653" on="0"/>
        <pt x="147" y="651" on="1"/>
        <pt x="147" y="648" on="0"/>
        <pt x="150" y="647" on="0"/>
        <pt x="150" y="644" on="1"/>
        <pt x="150" y="641" on="0"/>
        <pt x="146" y="642" on="1"/>
        <pt x="146" y="643" on="1"/>
        <pt x="149" y="641" on="0"/>
        <pt x="149" y="644" on="1"/>
        <pt x="149" y="646" on="0"/>
        <pt x="146" y="648" on="0"/>
      </contour>
      <contour>
        <pt x="107" y="642" on="1"/>
        <pt x="103" y="641" on="0"/>
        <pt x="103" y="648" on="1"/>
        <pt x="103" y="654" on="0"/>
        <pt x="107" y="653" on="1"/>
        <pt x="107" y="652" on="1"/>
        <pt x="104" y="653" on="0"/>
        <pt x="104" y="648" on="1"/>
        <pt x="104" y="641" on="0"/>
        <pt x="107" y="643" on="1"/>
      </contour>
      <contour>
        <pt x="124" y="653" on="1"/>
        <pt x="129" y="653" on="1"/>
        <pt x="129" y="652" on="1"/>
        <pt x="127" y="652" on="1"/>
        <pt x="127" y="642" on="1"/>
        <pt x="126" y="642" on="1"/>
        <pt x="126" y="652" on="1"/>
        <pt x="124" y="652" on="1"/>
      </contour>
      <contour>
        <pt x="92" y="643" on="1"/>
        <pt x="94" y="643" on="0"/>
        <pt x="94" y="647" on="1"/>
        <pt x="94" y="652" on="0"/>
        <pt x="92" y="652" on="1"/>
      </contour>
      <contour>
        <pt x="166" y="643" on="1"/>
        <pt x="168" y="643" on="0"/>
        <pt x="168" y="647" on="1"/>
        <pt x="168" y="652" on="0"/>
        <pt x="166" y="652" on="1"/>
      </contour>
      <contour>
        <pt x="125" y="643" on="1"/>
        <pt x="125" y="642" on="1"/>
        <pt x="121" y="642" on="1"/>
        <pt x="121" y="653" on="1"/>
        <pt x="122" y="653" on="1"/>
        <pt x="122" y="643" on="1"/>
      </contour>
      <contour>
        <pt x="84" y="653" on="1"/>
        <pt x="85" y="653" on="1"/>
        <pt x="85" y="642" on="1"/>
        <pt x="84" y="642" on="1"/>
      </contour>
      <contour>
        <pt x="101" y="653" on="1"/>
        <pt x="102" y="653" on="1"/>
        <pt x="102" y="642" on="1"/>
        <pt x="101" y="642" on="1"/>
      </contour>
      <contour>
        <pt x="80" y="646" on="1"/>
        <pt x="82" y="646" on="0"/>
        <pt x="82" y="649" on="1"/>
        <pt x="82" y="652" on="0"/>
        <pt x="80" y="652" on="1"/>
      </contour>
      <contour>
        <pt x="97" y="646" on="1"/>
        <pt x="99" y="646" on="0"/>
        <pt x="99" y="649" on="1"/>
        <pt x="99" y="652" on="0"/>
        <pt x="97" y="652" on="1"/>
      </contour>
      <contour>
        <pt x="136" y="646" on="1"/>
        <pt x="138" y="646" on="1"/>
        <pt x="137" y="650" on="1"/>
      </contour>
      <contour>
        <pt x="116" y="646" on="1"/>
        <pt x="118" y="646" on="1"/>
        <pt x="117" y="650" on="1"/>
      </contour>
      <contour>
        <pt x="162" y="643" on="1"/>
        <pt x="163" y="643" on="1"/>
        <pt x="163" y="642" on="1"/>
        <pt x="162" y="642" on="1"/>
      </contour>
    </TTGlyph>
    <TTGlyph name="A" xMin="25" yMin="-3" xMax="679" yMax="682">
      <contour>
        <pt x="319" y="678" on="1"/>
        <pt x="336" y="682" on="0"/>
        <pt x="358" y="682" on="1"/>
        <pt x="596" y="136" on="1"/>
        <pt x="608" y="108" on="0"/>
        <pt x="627" y="72" on="0"/>
        <pt x="644" y="51" on="0"/>
        <pt x="661" y="42" on="0"/>
        <pt x="673" y="40" on="1"/>
        <pt x="677" y="27" on="0"/>
        <pt x="679" y="9" on="0"/>
        <pt x="679" y="-3" on="1"/>
        <pt x="671" y="-3" on="0"/>
        <pt x="643" y="-2" on="0"/>
        <pt x="626" y="-1" on="1"/>
        <pt x="593" y="0" on="1"/>
        <pt x="565" y="0" on="1"/>
        <pt x="553" y="0" on="0"/>
        <pt x="520" y="-1" on="0"/>
        <pt x="488" y="-2" on="0"/>
        <pt x="459" y="-3" on="0"/>
        <pt x="452" y="-3" on="1"/>
        <pt x="452" y="9" on="0"/>
        <pt x="454" y="31" on="0"/>
        <pt x="459" y="40" on="1"/>
        <pt x="480" y="42" on="0"/>
        <pt x="503" y="50" on="0"/>
        <pt x="511" y="67" on="0"/>
        <pt x="505" y="95" on="0"/>
        <pt x="495" y="118" on="1"/>
        <pt x="451" y="220" on="1"/>
        <pt x="386" y="220" on="0"/>
        <pt x="314" y="219" on="1"/>
        <pt x="245" y="218" on="0"/>
        <pt x="186" y="216" on="1"/>
        <pt x="160" y="147" on="1"/>
        <pt x="137" y="88" on="0"/>
        <pt x="155" y="43" on="0"/>
        <pt x="196" y="40" on="1"/>
        <pt x="203" y="23" on="0"/>
        <pt x="203" y="-3" on="1"/>
        <pt x="186" y="-1" on="0"/>
        <pt x="133" y="0" on="0"/>
        <pt x="108" y="0" on="1"/>
        <pt x="83" y="0" on="0"/>
        <pt x="39" y="-2" on="0"/>
        <pt x="25" y="-3" on="1"/>
        <pt x="25" y="7" on="0"/>
        <pt x="28" y="30" on="0"/>
        <pt x="32" y="39" on="1"/>
        <pt x="45" y="42" on="0"/>
        <pt x="65" y="54" on="0"/>
        <pt x="83" y="78" on="0"/>
        <pt x="100" y="117" on="0"/>
        <pt x="112" y="147" on="1"/>
      </contour>
      <contour>
        <pt x="205" y="265" on="1"/>
        <pt x="432" y="265" on="1"/>
        <pt x="356" y="443" on="1"/>
        <pt x="349" y="458" on="0"/>
        <pt x="338" y="484" on="0"/>
        <pt x="327" y="511" on="0"/>
        <pt x="321" y="525" on="1"/>
        <pt x="317" y="537" on="0"/>
        <pt x="311" y="551" on="1"/>
        <pt x="301" y="518" on="0"/>
        <pt x="292" y="494" on="1"/>
        <pt x="283" y="468" on="0"/>
        <pt x="274" y="444" on="1"/>
      </contour>
    </TTGlyph>
    <TTGlyph name="AE" xMin="62" yMin="-3" xMax="907" yMax="678">
      <contour>
        <pt x="733" y="0" on="1"/>
        <pt x="533" y="0" on="1"/>
        <pt x="476" y="-1" on="0"/>
        <pt x="427" y="-2" on="1"/>
        <pt x="427" y="9" on="0"/>
        <pt x="429" y="32" on="0"/>
        <pt x="434" y="40" on="1"/>
        <pt x="453" y="43" on="0"/>
        <pt x="478" y="52" on="0"/>
        <pt x="492" y="73" on="0"/>
        <pt x="498" y="109" on="0"/>
        <pt x="498" y="138" on="1"/>
        <pt x="498" y="298" on="1"/>
        <pt x="457" y="298" on="0"/>
        <pt x="425" y="297" on="1"/>
        <pt x="385" y="296" on="0"/>
        <pt x="355" y="295" on="1"/>
        <pt x="333" y="294" on="0"/>
        <pt x="313" y="293" on="1"/>
        <pt x="294" y="259" on="0"/>
        <pt x="277" y="228" on="1"/>
        <pt x="251" y="182" on="0"/>
        <pt x="236" y="155" on="1"/>
        <pt x="218" y="122" on="0"/>
        <pt x="206" y="79" on="0"/>
        <pt x="212" y="54" on="0"/>
        <pt x="235" y="41" on="0"/>
        <pt x="253" y="38" on="1"/>
        <pt x="260" y="21" on="0"/>
        <pt x="260" y="-3" on="1"/>
        <pt x="237" y="-1" on="0"/>
        <pt x="180" y="0" on="0"/>
        <pt x="155" y="0" on="1"/>
        <pt x="130" y="0" on="0"/>
        <pt x="77" y="-1" on="0"/>
        <pt x="62" y="-3" on="1"/>
        <pt x="62" y="7" on="0"/>
        <pt x="65" y="30" on="0"/>
        <pt x="69" y="39" on="1"/>
        <pt x="81" y="40" on="0"/>
        <pt x="103" y="50" on="0"/>
        <pt x="127" y="74" on="0"/>
        <pt x="157" y="117" on="0"/>
        <pt x="177" y="152" on="1"/>
        <pt x="411" y="556" on="1"/>
        <pt x="434" y="595" on="0"/>
        <pt x="415" y="630" on="0"/>
        <pt x="367" y="635" on="1"/>
        <pt x="363" y="644" on="0"/>
        <pt x="361" y="667" on="0"/>
        <pt x="361" y="678" on="1"/>
        <pt x="380" y="678" on="0"/>
        <pt x="425" y="677" on="0"/>
        <pt x="469" y="676" on="0"/>
        <pt x="488" y="676" on="1"/>
        <pt x="728" y="676" on="1"/>
        <pt x="806" y="677" on="0"/>
        <pt x="852" y="678" on="1"/>
        <pt x="853" y="661" on="0"/>
        <pt x="858" y="620" on="0"/>
        <pt x="863" y="578" on="0"/>
        <pt x="869" y="537" on="0"/>
        <pt x="873" y="521" on="1"/>
        <pt x="865" y="514" on="0"/>
        <pt x="842" y="509" on="0"/>
        <pt x="828" y="509" on="1"/>
        <pt x="826" y="532" on="0"/>
        <pt x="811" y="578" on="0"/>
        <pt x="774" y="614" on="0"/>
        <pt x="712" y="636" on="0"/>
        <pt x="664" y="636" on="1"/>
        <pt x="592" y="636" on="1"/>
        <pt x="592" y="341" on="1"/>
        <pt x="643" y="341" on="1"/>
        <pt x="703" y="341" on="0"/>
        <pt x="744" y="383" on="0"/>
        <pt x="744" y="421" on="1"/>
        <pt x="759" y="425" on="0"/>
        <pt x="779" y="428" on="0"/>
        <pt x="793" y="428" on="1"/>
        <pt x="793" y="420" on="0"/>
        <pt x="792" y="394" on="0"/>
        <pt x="791" y="363" on="0"/>
        <pt x="791" y="346" on="1"/>
        <pt x="791" y="287" on="1"/>
        <pt x="791" y="271" on="0"/>
        <pt x="792" y="239" on="0"/>
        <pt x="793" y="211" on="0"/>
        <pt x="793" y="203" on="1"/>
        <pt x="779" y="203" on="0"/>
        <pt x="758" y="204" on="0"/>
        <pt x="747" y="208" on="1"/>
        <pt x="745" y="227" on="0"/>
        <pt x="736" y="260" on="0"/>
        <pt x="713" y="284" on="0"/>
        <pt x="671" y="298" on="0"/>
        <pt x="635" y="298" on="1"/>
        <pt x="592" y="298" on="1"/>
        <pt x="592" y="138" on="1"/>
        <pt x="592" y="106" on="0"/>
        <pt x="602" y="69" on="0"/>
        <pt x="620" y="50" on="0"/>
        <pt x="633" y="47" on="1"/>
        <pt x="641" y="46" on="0"/>
        <pt x="650" y="45" on="1"/>
        <pt x="688" y="45" on="1"/>
        <pt x="735" y="45" on="0"/>
        <pt x="793" y="61" on="0"/>
        <pt x="830" y="93" on="0"/>
        <pt x="852" y="140" on="0"/>
        <pt x="863" y="171" on="1"/>
        <pt x="878" y="166" on="0"/>
        <pt x="898" y="156" on="0"/>
        <pt x="907" y="147" on="1"/>
        <pt x="896" y="112" on="0"/>
        <pt x="881" y="33" on="0"/>
        <pt x="876" y="-2" on="1"/>
        <pt x="845" y="-2" on="0"/>
        <pt x="771" y="-1" on="0"/>
      </contour>
      <contour>
        <pt x="498" y="571" on="1"/>
        <pt x="498" y="585" on="0"/>
        <pt x="499" y="600" on="1"/>
        <pt x="500" y="613" on="0"/>
        <pt x="501" y="628" on="1"/>
        <pt x="493" y="610" on="1"/>
        <pt x="487" y="597" on="0"/>
        <pt x="471" y="568" on="0"/>
        <pt x="459" y="546" on="1"/>
        <pt x="431" y="498" on="0"/>
        <pt x="398" y="441" on="1"/>
        <pt x="369" y="390" on="0"/>
        <pt x="341" y="341" on="1"/>
        <pt x="498" y="341" on="1"/>
      </contour>
    </TTGlyph>
    <TTGlyph name="Aacute" xMin="25" yMin="-3" xMax="679" yMax="937">
      <component glyphName="A" x="0" y="0" flags="0x204"/>
      <component glyphName="acute" x="74" y="215" flags="0x4"/>
    </TTGlyph>
    <TTGlyph name="Acircumflex" xMin="25" yMin="-3" xMax="679" yMax="924">
      <component glyphName="A" x="0" y="0" flags="0x204"/>
      <component glyphName="circumflex" x="95" y="215" flags="0x4"/>
    </TTGlyph>
    <TTGlyph name="Adieresis" xMin="25" yMin="-3" xMax="679" yMax="855">
      <component glyphName="A" x="0" y="0" flags="0x204"/>
      <component glyphName="dieresis" x="44" y="215" flags="0x4"/>
    </TTGlyph>
    <TTGlyph name="Agrave" xMin="25" yMin="-3" xMax="679" yMax="931">
      <component glyphName="A" x="0" y="0" flags="0x204"/>
      <component glyphName="grave" x="214" y="215" flags="0x4"/>
    </TTGlyph>
    <TTGlyph name="Aring" xMin="25" yMin="-3" xMax="679" yMax="923">
      <component glyphName="A" x="0" y="0" flags="0x204"/>
      <component glyphName="ring" x="29" y="215" flags="0x4"/>
    </TTGlyph>
    <TTGlyph name="Atilde" xMin="25" yMin="-3" xMax="679" yMax="842">
      <component glyphName="A" x="0" y="0" flags="0x204"/>
      <component glyphName="tilde" x="87" y="215" flags="0x4"/>
    </TTGlyph>
    <TTGlyph name="B" xMin="57" yMin="-3" xMax="569" yMax="679">
      <contour>
        <pt x="162" y="676" on="1"/>
        <pt x="198" y="676" on="0"/>
        <pt x="270" y="678" on="0"/>
        <pt x="305" y="678" on="1"/>
        <pt x="348" y="678" on="0"/>
        <pt x="425" y="665" on="0"/>
        <pt x="484" y="632" on="0"/>
        <pt x="518" y="576" on="0"/>
        <pt x="518" y="532" on="1"/>
        <pt x="518" y="467" on="0"/>
        <pt x="440" y="377" on="0"/>
        <pt x="373" y="367" on="1"/>
        <pt x="412" y="365" on="0"/>
        <pt x="483" y="346" on="0"/>
        <pt x="537" y="307" on="0"/>
        <pt x="569" y="243" on="0"/>
        <pt x="569" y="197" on="1"/>
        <pt x="569" y="156" on="0"/>
        <pt x="542" y="84" on="0"/>
        <pt x="484" y="31" on="0"/>
        <pt x="393" y="0" on="0"/>
        <pt x="329" y="0" on="1"/>
        <pt x="262" y="0" on="1"/>
        <pt x="223" y="0" on="0"/>
        <pt x="145" y="-1" on="0"/>
        <pt x="76" y="-2" on="0"/>
        <pt x="57" y="-3" on="1"/>
        <pt x="57" y="26" on="0"/>
        <pt x="62" y="40" on="1"/>
        <pt x="82" y="41" on="0"/>
        <pt x="109" y="50" on="0"/>
        <pt x="125" y="72" on="0"/>
        <pt x="132" y="109" on="0"/>
        <pt x="132" y="138" on="1"/>
        <pt x="132" y="549" on="1"/>
        <pt x="132" y="599" on="0"/>
        <pt x="103" y="634" on="0"/>
        <pt x="63" y="636" on="1"/>
        <pt x="60" y="644" on="0"/>
        <pt x="58" y="667" on="0"/>
        <pt x="58" y="679" on="1"/>
        <pt x="78" y="677" on="0"/>
        <pt x="135" y="676" on="0"/>
      </contour>
      <contour>
        <pt x="226" y="331" on="1"/>
        <pt x="226" y="138" on="1"/>
        <pt x="226" y="107" on="0"/>
        <pt x="234" y="70" on="0"/>
        <pt x="255" y="50" on="0"/>
        <pt x="291" y="43" on="0"/>
        <pt x="319" y="43" on="1"/>
        <pt x="393" y="43" on="0"/>
        <pt x="462" y="117" on="0"/>
        <pt x="462" y="183" on="1"/>
        <pt x="462" y="229" on="0"/>
        <pt x="423" y="287" on="0"/>
        <pt x="361" y="320" on="0"/>
        <pt x="286" y="331" on="0"/>
        <pt x="249" y="331" on="1"/>
      </contour>
      <contour>
        <pt x="241" y="634" on="1"/>
        <pt x="234" y="633" on="0"/>
        <pt x="226" y="631" on="1"/>
        <pt x="226" y="376" on="1"/>
        <pt x="257" y="376" on="1"/>
        <pt x="305" y="376" on="0"/>
        <pt x="367" y="397" on="0"/>
        <pt x="403" y="433" on="0"/>
        <pt x="416" y="478" on="0"/>
        <pt x="416" y="502" on="1"/>
        <pt x="416" y="541" on="0"/>
        <pt x="388" y="593" on="0"/>
        <pt x="344" y="624" on="0"/>
        <pt x="292" y="636" on="0"/>
        <pt x="267" y="636" on="1"/>
        <pt x="253" y="636" on="0"/>
      </contour>
    </TTGlyph>
    <TTGlyph name="C" xMin="35" yMin="-9" xMax="603" yMax="685">
      <contour>
        <pt x="369" y="685" on="1"/>
        <pt x="432" y="685" on="0"/>
        <pt x="535" y="659" on="0"/>
        <pt x="591" y="633" on="1"/>
        <pt x="583" y="598" on="0"/>
        <pt x="580" y="520" on="0"/>
        <pt x="580" y="478" on="1"/>
        <pt x="567" y="473" on="0"/>
        <pt x="543" y="469" on="0"/>
        <pt x="527" y="469" on="1"/>
        <pt x="525" y="522" on="0"/>
        <pt x="503" y="590" on="0"/>
        <pt x="464" y="629" on="0"/>
        <pt x="410" y="644" on="0"/>
        <pt x="377" y="644" on="1"/>
        <pt x="314" y="644" on="0"/>
        <pt x="224" y="598" on="0"/>
        <pt x="167" y="521" on="0"/>
        <pt x="140" y="422" on="0"/>
        <pt x="140" y="370" on="1"/>
        <pt x="140" y="303" on="0"/>
        <pt x="175" y="187" on="0"/>
        <pt x="240" y="101" on="0"/>
        <pt x="335" y="52" on="0"/>
        <pt x="395" y="52" on="1"/>
        <pt x="443" y="52" on="0"/>
        <pt x="543" y="84" on="0"/>
        <pt x="585" y="111" on="1"/>
        <pt x="591" y="106" on="0"/>
        <pt x="602" y="87" on="0"/>
        <pt x="603" y="80" on="1"/>
        <pt x="573" y="57" on="0"/>
        <pt x="516" y="24" on="0"/>
        <pt x="456" y="2" on="0"/>
        <pt x="391" y="-9" on="0"/>
        <pt x="353" y="-9" on="1"/>
        <pt x="283" y="-9" on="0"/>
        <pt x="166" y="42" on="0"/>
        <pt x="82" y="135" on="0"/>
        <pt x="35" y="265" on="0"/>
        <pt x="35" y="343" on="1"/>
        <pt x="35" y="429" on="0"/>
        <pt x="92" y="557" on="0"/>
        <pt x="185" y="643" on="0"/>
        <pt x="305" y="685" on="0"/>
      </contour>
    </TTGlyph>
    <TTGlyph name="Ccedilla" xMin="35" yMin="-242" xMax="603" yMax="685">
      <contour>
        <pt x="369" y="685" on="1"/>
        <pt x="432" y="685" on="0"/>
        <pt x="535" y="659" on="0"/>
        <pt x="591" y="633" on="1"/>
        <pt x="583" y="598" on="0"/>
        <pt x="580" y="520" on="0"/>
        <pt x="580" y="478" on="1"/>
        <pt x="567" y="473" on="0"/>
        <pt x="543" y="469" on="0"/>
        <pt x="527" y="469" on="1"/>
        <pt x="525" y="522" on="0"/>
        <pt x="503" y="590" on="0"/>
        <pt x="464" y="629" on="0"/>
        <pt x="410" y="644" on="0"/>
        <pt x="377" y="644" on="1"/>
        <pt x="314" y="644" on="0"/>
        <pt x="224" y="598" on="0"/>
        <pt x="167" y="521" on="0"/>
        <pt x="140" y="422" on="0"/>
        <pt x="140" y="370" on="1"/>
        <pt x="140" y="303" on="0"/>
        <pt x="175" y="187" on="0"/>
        <pt x="240" y="101" on="0"/>
        <pt x="335" y="52" on="0"/>
        <pt x="395" y="52" on="1"/>
        <pt x="443" y="52" on="0"/>
        <pt x="543" y="84" on="0"/>
        <pt x="585" y="111" on="1"/>
        <pt x="591" y="106" on="0"/>
        <pt x="602" y="87" on="0"/>
        <pt x="603" y="80" on="1"/>
        <pt x="573" y="57" on="0"/>
        <pt x="516" y="24" on="0"/>
        <pt x="456" y="2" on="0"/>
        <pt x="423" y="-3" on="1"/>
        <pt x="395" y="-8" on="0"/>
        <pt x="362" y="-9" on="1"/>
        <pt x="332" y="-50" on="1"/>
        <pt x="372" y="-57" on="0"/>
        <pt x="419" y="-105" on="0"/>
        <pt x="419" y="-141" on="1"/>
        <pt x="419" y="-166" on="0"/>
        <pt x="394" y="-204" on="0"/>
        <pt x="355" y="-229" on="0"/>
        <pt x="310" y="-242" on="0"/>
        <pt x="291" y="-242" on="1"/>
        <pt x="287" y="-235" on="0"/>
        <pt x="284" y="-218" on="0"/>
        <pt x="284" y="-210" on="1"/>
        <pt x="314" y="-210" on="0"/>
        <pt x="363" y="-181" on="0"/>
        <pt x="363" y="-155" on="1"/>
        <pt x="363" y="-130" on="0"/>
        <pt x="326" y="-101" on="0"/>
        <pt x="298" y="-101" on="1"/>
        <pt x="290" y="-95" on="0"/>
        <pt x="280" y="-76" on="0"/>
        <pt x="280" y="-63" on="1"/>
        <pt x="315" y="-7" on="1"/>
        <pt x="267" y="-2" on="0"/>
        <pt x="224" y="16" on="1"/>
        <pt x="166" y="42" on="0"/>
        <pt x="82" y="135" on="0"/>
        <pt x="35" y="265" on="0"/>
        <pt x="35" y="343" on="1"/>
        <pt x="35" y="429" on="0"/>
        <pt x="92" y="557" on="0"/>
        <pt x="185" y="643" on="0"/>
        <pt x="305" y="685" on="0"/>
      </contour>
    </TTGlyph>
    <TTGlyph name="D" xMin="57" yMin="-3" xMax="696" yMax="679">
      <contour>
        <pt x="58" y="679" on="1"/>
        <pt x="68" y="678" on="0"/>
        <pt x="99" y="677" on="0"/>
        <pt x="133" y="676" on="0"/>
        <pt x="151" y="676" on="1"/>
        <pt x="185" y="676" on="1"/>
        <pt x="218" y="676" on="0"/>
        <pt x="284" y="678" on="0"/>
        <pt x="316" y="678" on="1"/>
        <pt x="382" y="678" on="0"/>
        <pt x="518" y="654" on="0"/>
        <pt x="627" y="585" on="0"/>
        <pt x="696" y="458" on="0"/>
        <pt x="696" y="355" on="1"/>
        <pt x="696" y="274" on="0"/>
        <pt x="655" y="158" on="0"/>
        <pt x="590" y="80" on="0"/>
        <pt x="507" y="32" on="0"/>
        <pt x="423" y="8" on="0"/>
        <pt x="344" y="0" on="0"/>
        <pt x="316" y="0" on="1"/>
        <pt x="251" y="0" on="1"/>
        <pt x="214" y="0" on="0"/>
        <pt x="141" y="-1" on="0"/>
        <pt x="76" y="-2" on="0"/>
        <pt x="57" y="-3" on="1"/>
        <pt x="57" y="26" on="0"/>
        <pt x="62" y="40" on="1"/>
        <pt x="82" y="41" on="0"/>
        <pt x="109" y="50" on="0"/>
        <pt x="125" y="72" on="0"/>
        <pt x="132" y="109" on="0"/>
        <pt x="132" y="138" on="1"/>
        <pt x="132" y="549" on="1"/>
        <pt x="132" y="599" on="0"/>
        <pt x="103" y="634" on="0"/>
        <pt x="63" y="636" on="1"/>
        <pt x="60" y="644" on="0"/>
        <pt x="58" y="667" on="0"/>
      </contour>
      <contour>
        <pt x="226" y="138" on="1"/>
        <pt x="226" y="110" on="0"/>
        <pt x="233" y="74" on="0"/>
        <pt x="253" y="53" on="0"/>
        <pt x="288" y="45" on="0"/>
        <pt x="316" y="45" on="1"/>
        <pt x="376" y="45" on="0"/>
        <pt x="477" y="74" on="0"/>
        <pt x="551" y="142" on="0"/>
        <pt x="593" y="255" on="0"/>
        <pt x="593" y="340" on="1"/>
        <pt x="593" y="421" on="0"/>
        <pt x="544" y="535" on="0"/>
        <pt x="462" y="607" on="0"/>
        <pt x="356" y="640" on="0"/>
        <pt x="300" y="640" on="1"/>
        <pt x="282" y="640" on="0"/>
        <pt x="239" y="635" on="0"/>
        <pt x="226" y="631" on="1"/>
      </contour>
    </TTGlyph>
    <TTGlyph name="E" xMin="57" yMin="-3" xMax="541" yMax="679">
      <contour>
        <pt x="486" y="679" on="1"/>
        <pt x="487" y="662" on="0"/>
        <pt x="492" y="621" on="0"/>
        <pt x="497" y="578" on="0"/>
        <pt x="503" y="537" on="0"/>
        <pt x="507" y="521" on="1"/>
        <pt x="499" y="514" on="0"/>
        <pt x="476" y="509" on="0"/>
        <pt x="462" y="509" on="1"/>
        <pt x="460" y="532" on="0"/>
        <pt x="445" y="578" on="0"/>
        <pt x="408" y="614" on="0"/>
        <pt x="346" y="636" on="0"/>
        <pt x="298" y="636" on="1"/>
        <pt x="226" y="636" on="1"/>
        <pt x="226" y="362" on="1"/>
        <pt x="268" y="362" on="1"/>
        <pt x="299" y="362" on="0"/>
        <pt x="341" y="369" on="0"/>
        <pt x="367" y="387" on="0"/>
        <pt x="379" y="419" on="0"/>
        <pt x="379" y="443" on="1"/>
        <pt x="392" y="447" on="0"/>
        <pt x="413" y="450" on="0"/>
        <pt x="427" y="450" on="1"/>
        <pt x="425" y="424" on="0"/>
        <pt x="425" y="395" on="1"/>
        <pt x="425" y="283" on="1"/>
        <pt x="425" y="251" on="0"/>
        <pt x="427" y="225" on="1"/>
        <pt x="413" y="225" on="0"/>
        <pt x="392" y="227" on="0"/>
        <pt x="381" y="230" on="1"/>
        <pt x="379" y="256" on="0"/>
        <pt x="366" y="290" on="0"/>
        <pt x="340" y="311" on="0"/>
        <pt x="299" y="319" on="0"/>
        <pt x="268" y="319" on="1"/>
        <pt x="226" y="319" on="1"/>
        <pt x="226" y="138" on="1"/>
        <pt x="226" y="110" on="0"/>
        <pt x="233" y="74" on="0"/>
        <pt x="253" y="53" on="0"/>
        <pt x="288" y="45" on="0"/>
        <pt x="316" y="45" on="1"/>
        <pt x="322" y="45" on="1"/>
        <pt x="368" y="45" on="0"/>
        <pt x="426" y="61" on="0"/>
        <pt x="463" y="93" on="0"/>
        <pt x="486" y="140" on="0"/>
        <pt x="497" y="171" on="1"/>
        <pt x="512" y="166" on="0"/>
        <pt x="532" y="156" on="0"/>
        <pt x="541" y="147" on="1"/>
        <pt x="530" y="112" on="0"/>
        <pt x="515" y="33" on="0"/>
        <pt x="510" y="-2" on="1"/>
        <pt x="495" y="-2" on="0"/>
        <pt x="452" y="-1" on="0"/>
        <pt x="400" y="0" on="0"/>
        <pt x="372" y="0" on="1"/>
        <pt x="251" y="0" on="1"/>
        <pt x="214" y="0" on="0"/>
        <pt x="141" y="-1" on="0"/>
        <pt x="76" y="-2" on="0"/>
        <pt x="57" y="-3" on="1"/>
        <pt x="57" y="26" on="0"/>
        <pt x="62" y="40" on="1"/>
        <pt x="82" y="41" on="0"/>
        <pt x="109" y="50" on="0"/>
        <pt x="125" y="72" on="0"/>
        <pt x="132" y="109" on="0"/>
        <pt x="132" y="138" on="1"/>
        <pt x="132" y="549" on="1"/>
        <pt x="132" y="599" on="0"/>
        <pt x="103" y="634" on="0"/>
        <pt x="63" y="636" on="1"/>
        <pt x="60" y="644" on="0"/>
        <pt x="58" y="667" on="0"/>
        <pt x="58" y="679" on="1"/>
        <pt x="73" y="678" on="0"/>
        <pt x="119" y="677" on="0"/>
        <pt x="168" y="676" on="0"/>
        <pt x="190" y="676" on="1"/>
        <pt x="226" y="676" on="1"/>
        <pt x="329" y="676" on="0"/>
        <pt x="461" y="678" on="0"/>
      </contour>
    </TTGlyph>
    <TTGlyph name="Eacute" xMin="57" yMin="-3" xMax="541" yMax="937">
      <component glyphName="acute" x="51" y="215" flags="0x4"/>
      <component glyphName="E" x="0" y="0" flags="0x4"/>
    </TTGlyph>
    <TTGlyph name="Ecircumflex" xMin="57" yMin="-3" xMax="541" yMax="924">
      <component glyphName="circumflex" x="49" y="215" flags="0x4"/>
      <component glyphName="E" x="0" y="0" flags="0x4"/>
    </TTGlyph>
    <TTGlyph name="Edieresis" xMin="57" yMin="-3" xMax="541" yMax="855">
      <component glyphName="dieresis" x="-18" y="215" flags="0x4"/>
      <component glyphName="E" x="0" y="0" flags="0x4"/>
    </TTGlyph>
    <TTGlyph name="Egrave" xMin="57" yMin="-3" xMax="541" yMax="931">
      <component glyphName="grave" x="151" y="215" flags="0x4"/>
      <component glyphName="E" x="0" y="0" flags="0x4"/>
    </TTGlyph>
    <TTGlyph name="Eszett" xMin="56" yMin="-9" xMax="683" yMax="679">
      <contour>
        <pt x="224" y="-1" on="1"/>
        <pt x="210" y="0" on="0"/>
        <pt x="195" y="0" on="1"/>
        <pt x="135" y="0" on="1"/>
        <pt x="122" y="0" on="0"/>
        <pt x="93" y="-1" on="0"/>
        <pt x="66" y="-2" on="0"/>
        <pt x="56" y="-3" on="1"/>
        <pt x="56" y="9" on="0"/>
        <pt x="58" y="31" on="0"/>
        <pt x="61" y="40" on="1"/>
        <pt x="81" y="42" on="0"/>
        <pt x="107" y="52" on="0"/>
        <pt x="123" y="77" on="0"/>
        <pt x="130" y="123" on="0"/>
        <pt x="130" y="161" on="1"/>
        <pt x="130" y="420" on="1"/>
        <pt x="130" y="495" on="0"/>
        <pt x="169" y="594" on="0"/>
        <pt x="240" y="654" on="0"/>
        <pt x="336" y="678" on="0"/>
        <pt x="393" y="678" on="1"/>
        <pt x="408" y="678" on="0"/>
        <pt x="432" y="677" on="0"/>
        <pt x="454" y="677" on="0"/>
        <pt x="480" y="676" on="0"/>
        <pt x="497" y="676" on="1"/>
        <pt x="526" y="676" on="0"/>
        <pt x="582" y="677" on="0"/>
        <pt x="616" y="679" on="1"/>
        <pt x="621" y="669" on="0"/>
        <pt x="629" y="646" on="0"/>
        <pt x="629" y="632" on="1"/>
        <pt x="602" y="582" on="0"/>
        <pt x="561" y="515" on="1"/>
        <pt x="523" y="451" on="0"/>
        <pt x="479" y="389" on="1"/>
        <pt x="522" y="383" on="0"/>
        <pt x="558" y="368" on="1"/>
        <pt x="597" y="351" on="0"/>
        <pt x="653" y="299" on="0"/>
        <pt x="683" y="229" on="0"/>
        <pt x="683" y="188" on="1"/>
        <pt x="683" y="147" on="0"/>
        <pt x="655" y="75" on="0"/>
        <pt x="601" y="22" on="0"/>
        <pt x="523" y="-9" on="0"/>
        <pt x="474" y="-9" on="1"/>
        <pt x="417" y="-9" on="0"/>
        <pt x="338" y="20" on="0"/>
        <pt x="300" y="45" on="1"/>
        <pt x="307" y="80" on="0"/>
        <pt x="311" y="153" on="0"/>
        <pt x="311" y="179" on="1"/>
        <pt x="323" y="182" on="0"/>
        <pt x="357" y="185" on="0"/>
        <pt x="369" y="185" on="1"/>
        <pt x="372" y="150" on="0"/>
        <pt x="381" y="95" on="0"/>
        <pt x="404" y="58" on="0"/>
        <pt x="442" y="39" on="0"/>
        <pt x="474" y="39" on="1"/>
        <pt x="499" y="39" on="0"/>
        <pt x="537" y="61" on="0"/>
        <pt x="563" y="98" on="0"/>
        <pt x="575" y="148" on="0"/>
        <pt x="575" y="176" on="1"/>
        <pt x="575" y="209" on="0"/>
        <pt x="552" y="268" on="0"/>
        <pt x="503" y="314" on="0"/>
        <pt x="427" y="346" on="0"/>
        <pt x="375" y="352" on="1"/>
        <pt x="370" y="360" on="0"/>
        <pt x="364" y="381" on="0"/>
        <pt x="364" y="392" on="1"/>
        <pt x="408" y="452" on="0"/>
        <pt x="452" y="525" on="1"/>
        <pt x="486" y="581" on="0"/>
        <pt x="513" y="633" on="1"/>
        <pt x="498" y="634" on="0"/>
        <pt x="485" y="634" on="1"/>
        <pt x="456" y="636" on="0"/>
        <pt x="403" y="638" on="0"/>
        <pt x="372" y="638" on="1"/>
        <pt x="338" y="638" on="0"/>
        <pt x="283" y="620" on="0"/>
        <pt x="245" y="571" on="0"/>
        <pt x="224" y="486" on="0"/>
        <pt x="224" y="420" on="1"/>
      </contour>
    </TTGlyph>
    <TTGlyph name="Eth" xMin="35" yMin="-3" xMax="692" yMax="679">
      <contour>
        <pt x="54" y="679" on="1"/>
        <pt x="64" y="678" on="0"/>
        <pt x="95" y="677" on="0"/>
        <pt x="129" y="676" on="0"/>
        <pt x="147" y="676" on="1"/>
        <pt x="181" y="676" on="1"/>
        <pt x="214" y="676" on="0"/>
        <pt x="280" y="678" on="0"/>
        <pt x="312" y="678" on="1"/>
        <pt x="378" y="678" on="0"/>
        <pt x="514" y="654" on="0"/>
        <pt x="623" y="585" on="0"/>
        <pt x="692" y="458" on="0"/>
        <pt x="692" y="355" on="1"/>
        <pt x="692" y="274" on="0"/>
        <pt x="651" y="158" on="0"/>
        <pt x="586" y="80" on="0"/>
        <pt x="503" y="32" on="0"/>
        <pt x="419" y="8" on="0"/>
        <pt x="340" y="0" on="0"/>
        <pt x="312" y="0" on="1"/>
        <pt x="247" y="0" on="1"/>
        <pt x="210" y="0" on="0"/>
        <pt x="137" y="-1" on="0"/>
        <pt x="72" y="-2" on="0"/>
        <pt x="53" y="-3" on="1"/>
        <pt x="53" y="26" on="0"/>
        <pt x="58" y="40" on="1"/>
        <pt x="78" y="41" on="0"/>
        <pt x="105" y="50" on="0"/>
        <pt x="121" y="72" on="0"/>
        <pt x="128" y="109" on="0"/>
        <pt x="128" y="138" on="1"/>
        <pt x="128" y="248" on="1"/>
        <pt x="92" y="248" on="1"/>
        <pt x="70" y="248" on="0"/>
        <pt x="35" y="246" on="1"/>
        <pt x="35" y="257" on="0"/>
        <pt x="41" y="290" on="0"/>
        <pt x="46" y="297" on="1"/>
        <pt x="128" y="297" on="1"/>
        <pt x="128" y="549" on="1"/>
        <pt x="128" y="599" on="0"/>
        <pt x="99" y="634" on="0"/>
        <pt x="59" y="636" on="1"/>
        <pt x="56" y="644" on="0"/>
        <pt x="54" y="667" on="0"/>
      </contour>
      <contour>
        <pt x="222" y="138" on="1"/>
        <pt x="222" y="110" on="0"/>
        <pt x="229" y="74" on="0"/>
        <pt x="249" y="53" on="0"/>
        <pt x="284" y="45" on="0"/>
        <pt x="312" y="45" on="1"/>
        <pt x="372" y="45" on="0"/>
        <pt x="473" y="74" on="0"/>
        <pt x="547" y="142" on="0"/>
        <pt x="589" y="255" on="0"/>
        <pt x="589" y="340" on="1"/>
        <pt x="589" y="421" on="0"/>
        <pt x="540" y="535" on="0"/>
        <pt x="458" y="607" on="0"/>
        <pt x="352" y="640" on="0"/>
        <pt x="296" y="640" on="1"/>
        <pt x="278" y="640" on="0"/>
        <pt x="235" y="635" on="0"/>
        <pt x="222" y="631" on="1"/>
        <pt x="222" y="297" on="1"/>
        <pt x="401" y="297" on="1"/>
        <pt x="401" y="282" on="0"/>
        <pt x="397" y="258" on="0"/>
        <pt x="390" y="247" on="1"/>
        <pt x="364" y="247" on="0"/>
        <pt x="321" y="248" on="0"/>
        <pt x="300" y="248" on="1"/>
        <pt x="222" y="248" on="1"/>
      </contour>
    </TTGlyph>
    <TTGlyph name="Euro" xMin="45" yMin="-9" xMax="674" yMax="685">
      <contour>
        <pt x="491" y="407" on="1"/>
        <pt x="491" y="392" on="0"/>
        <pt x="487" y="365" on="0"/>
        <pt x="480" y="354" on="1"/>
        <pt x="380" y="354" on="1"/>
        <pt x="334" y="354" on="0"/>
        <pt x="285" y="353" on="1"/>
        <pt x="250" y="353" on="0"/>
        <pt x="211" y="352" on="1"/>
        <pt x="212" y="317" on="0"/>
        <pt x="218" y="285" on="1"/>
        <pt x="491" y="285" on="1"/>
        <pt x="491" y="270" on="0"/>
        <pt x="487" y="243" on="0"/>
        <pt x="480" y="232" on="1"/>
        <pt x="380" y="232" on="1"/>
        <pt x="334" y="232" on="0"/>
        <pt x="285" y="231" on="1"/>
        <pt x="260" y="231" on="0"/>
        <pt x="233" y="230" on="1"/>
        <pt x="250" y="181" on="0"/>
        <pt x="278" y="144" on="1"/>
        <pt x="311" y="101" on="0"/>
        <pt x="406" y="52" on="0"/>
        <pt x="466" y="52" on="1"/>
        <pt x="514" y="52" on="0"/>
        <pt x="614" y="84" on="0"/>
        <pt x="656" y="111" on="1"/>
        <pt x="662" y="106" on="0"/>
        <pt x="673" y="87" on="0"/>
        <pt x="674" y="80" on="1"/>
        <pt x="644" y="57" on="0"/>
        <pt x="587" y="24" on="0"/>
        <pt x="527" y="2" on="0"/>
        <pt x="462" y="-9" on="0"/>
        <pt x="424" y="-9" on="1"/>
        <pt x="354" y="-9" on="0"/>
        <pt x="237" y="42" on="0"/>
        <pt x="153" y="135" on="0"/>
        <pt x="129" y="200" on="1"/>
        <pt x="124" y="214" on="0"/>
        <pt x="120" y="229" on="1"/>
        <pt x="45" y="229" on="1"/>
        <pt x="45" y="243" on="0"/>
        <pt x="51" y="275" on="0"/>
        <pt x="56" y="285" on="1"/>
        <pt x="109" y="285" on="1"/>
        <pt x="106" y="313" on="0"/>
        <pt x="106" y="343" on="1"/>
        <pt x="106" y="351" on="1"/>
        <pt x="45" y="351" on="1"/>
        <pt x="45" y="365" on="0"/>
        <pt x="51" y="397" on="0"/>
        <pt x="56" y="407" on="1"/>
        <pt x="110" y="407" on="1"/>
        <pt x="117" y="454" on="0"/>
        <pt x="134" y="493" on="1"/>
        <pt x="163" y="557" on="0"/>
        <pt x="256" y="643" on="0"/>
        <pt x="376" y="685" on="0"/>
        <pt x="440" y="685" on="1"/>
        <pt x="503" y="685" on="0"/>
        <pt x="606" y="659" on="0"/>
        <pt x="662" y="633" on="1"/>
        <pt x="654" y="598" on="0"/>
        <pt x="651" y="520" on="0"/>
        <pt x="651" y="478" on="1"/>
        <pt x="638" y="473" on="0"/>
        <pt x="614" y="469" on="0"/>
        <pt x="598" y="469" on="1"/>
        <pt x="596" y="522" on="0"/>
        <pt x="574" y="590" on="0"/>
        <pt x="535" y="629" on="0"/>
        <pt x="481" y="644" on="0"/>
        <pt x="448" y="644" on="1"/>
        <pt x="385" y="644" on="0"/>
        <pt x="295" y="598" on="0"/>
        <pt x="238" y="521" on="0"/>
        <pt x="224" y="471" on="1"/>
        <pt x="216" y="440" on="0"/>
        <pt x="212" y="407" on="1"/>
      </contour>
    </TTGlyph>
    <TTGlyph name="F" xMin="57" yMin="-3" xMax="503" yMax="679">
      <contour>
        <pt x="482" y="679" on="1"/>
        <pt x="483" y="662" on="0"/>
        <pt x="488" y="621" on="0"/>
        <pt x="493" y="578" on="0"/>
        <pt x="499" y="537" on="0"/>
        <pt x="503" y="521" on="1"/>
        <pt x="495" y="514" on="0"/>
        <pt x="472" y="509" on="0"/>
        <pt x="458" y="509" on="1"/>
        <pt x="456" y="532" on="0"/>
        <pt x="441" y="578" on="0"/>
        <pt x="404" y="614" on="0"/>
        <pt x="342" y="636" on="0"/>
        <pt x="294" y="636" on="1"/>
        <pt x="225" y="636" on="1"/>
        <pt x="225" y="342" on="1"/>
        <pt x="274" y="342" on="1"/>
        <pt x="305" y="342" on="0"/>
        <pt x="347" y="349" on="0"/>
        <pt x="373" y="367" on="0"/>
        <pt x="385" y="399" on="0"/>
        <pt x="385" y="423" on="1"/>
        <pt x="398" y="427" on="0"/>
        <pt x="419" y="430" on="0"/>
        <pt x="433" y="430" on="1"/>
        <pt x="431" y="404" on="0"/>
        <pt x="431" y="375" on="1"/>
        <pt x="431" y="263" on="1"/>
        <pt x="431" y="231" on="0"/>
        <pt x="433" y="205" on="1"/>
        <pt x="419" y="205" on="0"/>
        <pt x="398" y="207" on="0"/>
        <pt x="387" y="210" on="1"/>
        <pt x="385" y="236" on="0"/>
        <pt x="372" y="270" on="0"/>
        <pt x="346" y="291" on="0"/>
        <pt x="305" y="299" on="0"/>
        <pt x="274" y="299" on="1"/>
        <pt x="225" y="299" on="1"/>
        <pt x="225" y="147" on="1"/>
        <pt x="225" y="114" on="0"/>
        <pt x="235" y="74" on="0"/>
        <pt x="257" y="50" on="0"/>
        <pt x="290" y="41" on="0"/>
        <pt x="314" y="40" on="1"/>
        <pt x="319" y="26" on="0"/>
        <pt x="319" y="-3" on="1"/>
        <pt x="296" y="-1" on="0"/>
        <pt x="228" y="0" on="0"/>
        <pt x="193" y="0" on="1"/>
        <pt x="155" y="0" on="1"/>
        <pt x="136" y="0" on="0"/>
        <pt x="98" y="-1" on="0"/>
        <pt x="67" y="-2" on="0"/>
        <pt x="57" y="-3" on="1"/>
        <pt x="57" y="26" on="0"/>
        <pt x="62" y="40" on="1"/>
        <pt x="102" y="42" on="0"/>
        <pt x="131" y="77" on="0"/>
        <pt x="131" y="127" on="1"/>
        <pt x="131" y="549" on="1"/>
        <pt x="131" y="599" on="0"/>
        <pt x="102" y="634" on="0"/>
        <pt x="62" y="636" on="1"/>
        <pt x="57" y="650" on="0"/>
        <pt x="57" y="679" on="1"/>
        <pt x="73" y="678" on="0"/>
        <pt x="117" y="677" on="0"/>
        <pt x="162" y="676" on="0"/>
        <pt x="184" y="676" on="1"/>
        <pt x="225" y="676" on="1"/>
        <pt x="327" y="676" on="0"/>
        <pt x="457" y="678" on="0"/>
      </contour>
    </TTGlyph>
    <TTGlyph name="G" xMin="35" yMin="-9" xMax="666" yMax="685">
      <contour>
        <pt x="519" y="181" on="1"/>
        <pt x="519" y="215" on="0"/>
        <pt x="513" y="254" on="0"/>
        <pt x="495" y="274" on="0"/>
        <pt x="461" y="280" on="0"/>
        <pt x="433" y="281" on="1"/>
        <pt x="430" y="289" on="0"/>
        <pt x="427" y="315" on="0"/>
        <pt x="427" y="327" on="1"/>
        <pt x="446" y="325" on="0"/>
        <pt x="518" y="324" on="0"/>
        <pt x="549" y="324" on="1"/>
        <pt x="580" y="324" on="0"/>
        <pt x="650" y="325" on="0"/>
        <pt x="666" y="326" on="1"/>
        <pt x="666" y="317" on="0"/>
        <pt x="664" y="291" on="0"/>
        <pt x="660" y="281" on="1"/>
        <pt x="645" y="280" on="0"/>
        <pt x="627" y="274" on="0"/>
        <pt x="616" y="254" on="0"/>
        <pt x="613" y="215" on="0"/>
        <pt x="613" y="181" on="1"/>
        <pt x="613" y="136" on="1"/>
        <pt x="613" y="115" on="0"/>
        <pt x="618" y="81" on="0"/>
        <pt x="626" y="66" on="1"/>
        <pt x="583" y="34" on="0"/>
        <pt x="449" y="-9" on="0"/>
        <pt x="364" y="-9" on="1"/>
        <pt x="290" y="-9" on="0"/>
        <pt x="169" y="42" on="0"/>
        <pt x="82" y="135" on="0"/>
        <pt x="35" y="266" on="0"/>
        <pt x="35" y="347" on="1"/>
        <pt x="35" y="431" on="0"/>
        <pt x="94" y="558" on="0"/>
        <pt x="192" y="642" on="0"/>
        <pt x="316" y="685" on="0"/>
        <pt x="382" y="685" on="1"/>
        <pt x="454" y="685" on="0"/>
        <pt x="577" y="659" on="0"/>
        <pt x="622" y="638" on="1"/>
        <pt x="615" y="603" on="0"/>
        <pt x="611" y="528" on="0"/>
        <pt x="611" y="483" on="1"/>
        <pt x="587" y="474" on="0"/>
        <pt x="558" y="474" on="1"/>
        <pt x="556" y="526" on="0"/>
        <pt x="529" y="593" on="0"/>
        <pt x="484" y="630" on="0"/>
        <pt x="424" y="644" on="0"/>
        <pt x="390" y="644" on="1"/>
        <pt x="326" y="644" on="0"/>
        <pt x="232" y="598" on="0"/>
        <pt x="171" y="522" on="0"/>
        <pt x="141" y="423" on="0"/>
        <pt x="141" y="369" on="1"/>
        <pt x="141" y="301" on="0"/>
        <pt x="171" y="181" on="0"/>
        <pt x="232" y="92" on="0"/>
        <pt x="323" y="40" on="0"/>
        <pt x="384" y="40" on="1"/>
        <pt x="414" y="40" on="0"/>
        <pt x="461" y="46" on="0"/>
        <pt x="485" y="56" on="1"/>
        <pt x="502" y="63" on="0"/>
        <pt x="519" y="93" on="0"/>
        <pt x="519" y="131" on="1"/>
      </contour>
    </TTGlyph>
    <TTGlyph name="H" xMin="57" yMin="-3" xMax="698" yMax="679">
      <contour>
        <pt x="530" y="325" on="1"/>
        <pt x="471" y="325" on="1"/>
        <pt x="426" y="325" on="0"/>
        <pt x="331" y="324" on="0"/>
        <pt x="286" y="322" on="1"/>
        <pt x="251" y="321" on="0"/>
        <pt x="225" y="319" on="1"/>
        <pt x="225" y="127" on="1"/>
        <pt x="225" y="77" on="0"/>
        <pt x="254" y="42" on="0"/>
        <pt x="294" y="40" on="1"/>
        <pt x="299" y="26" on="0"/>
        <pt x="299" y="-3" on="1"/>
        <pt x="239" y="0" on="0"/>
        <pt x="178" y="0" on="1"/>
        <pt x="149" y="0" on="0"/>
        <pt x="83" y="-1" on="0"/>
        <pt x="57" y="-3" on="1"/>
        <pt x="57" y="26" on="0"/>
        <pt x="62" y="40" on="1"/>
        <pt x="102" y="42" on="0"/>
        <pt x="131" y="77" on="0"/>
        <pt x="131" y="127" on="1"/>
        <pt x="131" y="549" on="1"/>
        <pt x="131" y="599" on="0"/>
        <pt x="102" y="634" on="0"/>
        <pt x="62" y="636" on="1"/>
        <pt x="57" y="650" on="0"/>
        <pt x="57" y="679" on="1"/>
        <pt x="112" y="676" on="0"/>
        <pt x="178" y="676" on="1"/>
        <pt x="210" y="676" on="0"/>
        <pt x="269" y="677" on="0"/>
        <pt x="299" y="679" on="1"/>
        <pt x="299" y="650" on="0"/>
        <pt x="294" y="636" on="1"/>
        <pt x="254" y="634" on="0"/>
        <pt x="225" y="599" on="0"/>
        <pt x="225" y="549" on="1"/>
        <pt x="225" y="368" on="1"/>
        <pt x="530" y="368" on="1"/>
        <pt x="530" y="549" on="1"/>
        <pt x="530" y="599" on="0"/>
        <pt x="501" y="634" on="0"/>
        <pt x="461" y="636" on="1"/>
        <pt x="456" y="650" on="0"/>
        <pt x="456" y="679" on="1"/>
        <pt x="511" y="676" on="0"/>
        <pt x="577" y="676" on="1"/>
        <pt x="609" y="676" on="0"/>
        <pt x="668" y="677" on="0"/>
        <pt x="698" y="679" on="1"/>
        <pt x="698" y="650" on="0"/>
        <pt x="693" y="636" on="1"/>
        <pt x="653" y="634" on="0"/>
        <pt x="624" y="599" on="0"/>
        <pt x="624" y="549" on="1"/>
        <pt x="624" y="127" on="1"/>
        <pt x="624" y="77" on="0"/>
        <pt x="653" y="42" on="0"/>
        <pt x="693" y="40" on="1"/>
        <pt x="698" y="26" on="0"/>
        <pt x="698" y="-3" on="1"/>
        <pt x="638" y="0" on="0"/>
        <pt x="577" y="0" on="1"/>
        <pt x="548" y="0" on="0"/>
        <pt x="482" y="-1" on="0"/>
        <pt x="456" y="-3" on="1"/>
        <pt x="456" y="26" on="0"/>
        <pt x="461" y="40" on="1"/>
        <pt x="501" y="42" on="0"/>
        <pt x="530" y="77" on="0"/>
        <pt x="530" y="127" on="1"/>
      </contour>
    </TTGlyph>
    <TTGlyph name="I" xMin="57" yMin="-3" xMax="299" yMax="679">
      <contour>
        <pt x="131" y="549" on="1"/>
        <pt x="131" y="599" on="0"/>
        <pt x="102" y="634" on="0"/>
        <pt x="62" y="636" on="1"/>
        <pt x="57" y="650" on="0"/>
        <pt x="57" y="679" on="1"/>
        <pt x="112" y="676" on="0"/>
        <pt x="178" y="676" on="1"/>
        <pt x="210" y="676" on="0"/>
        <pt x="269" y="677" on="0"/>
        <pt x="299" y="679" on="1"/>
        <pt x="299" y="650" on="0"/>
        <pt x="294" y="636" on="1"/>
        <pt x="254" y="634" on="0"/>
        <pt x="225" y="599" on="0"/>
        <pt x="225" y="549" on="1"/>
        <pt x="225" y="127" on="1"/>
        <pt x="225" y="77" on="0"/>
        <pt x="254" y="42" on="0"/>
        <pt x="294" y="40" on="1"/>
        <pt x="299" y="26" on="0"/>
        <pt x="299" y="-3" on="1"/>
        <pt x="239" y="0" on="0"/>
        <pt x="178" y="0" on="1"/>
        <pt x="149" y="0" on="0"/>
        <pt x="83" y="-1" on="0"/>
        <pt x="57" y="-3" on="1"/>
        <pt x="57" y="26" on="0"/>
        <pt x="62" y="40" on="1"/>
        <pt x="102" y="42" on="0"/>
        <pt x="131" y="77" on="0"/>
        <pt x="131" y="127" on="1"/>
      </contour>
    </TTGlyph>
    <TTGlyph name="Iacute" xMin="57" yMin="-3" xMax="325" yMax="937">
      <component glyphName="I" x="0" y="0" flags="0x4"/>
      <component glyphName="acute" x="-67" y="215" flags="0x4"/>
    </TTGlyph>
    <TTGlyph name="Icircumflex" xMin="53" yMin="-3" xMax="388" yMax="924">
      <component glyphName="I" x="37" y="0" flags="0x4"/>
      <component glyphName="circumflex" x="-22" y="215" flags="0x4"/>
    </TTGlyph>
    <TTGlyph name="Idieresis" xMin="58" yMin="-3" xMax="365" yMax="855">
      <component glyphName="I" x="35" y="0" flags="0x4"/>
      <component glyphName="dieresis" x="-87" y="215" flags="0x4"/>
    </TTGlyph>
    <TTGlyph name="Igrave" xMin="57" yMin="-3" xMax="320" yMax="931">
      <component glyphName="I" x="21" y="0" flags="0x4"/>
      <component glyphName="grave" x="68" y="215" flags="0x4"/>
    </TTGlyph>
    <TTGlyph name="J" xMin="18" yMin="-249" xMax="303" yMax="679">
      <contour>
        <pt x="229" y="125" on="1"/>
        <pt x="229" y="55" on="0"/>
        <pt x="216" y="-53" on="0"/>
        <pt x="176" y="-141" on="0"/>
        <pt x="99" y="-214" on="0"/>
        <pt x="35" y="-249" on="1"/>
        <pt x="21" y="-241" on="0"/>
        <pt x="18" y="-223" on="1"/>
        <pt x="46" y="-199" on="0"/>
        <pt x="90" y="-149" on="0"/>
        <pt x="120" y="-88" on="0"/>
        <pt x="135" y="-14" on="0"/>
        <pt x="135" y="34" on="1"/>
        <pt x="135" y="549" on="1"/>
        <pt x="135" y="599" on="0"/>
        <pt x="106" y="634" on="0"/>
        <pt x="66" y="636" on="1"/>
        <pt x="61" y="650" on="0"/>
        <pt x="61" y="679" on="1"/>
        <pt x="83" y="677" on="0"/>
        <pt x="149" y="676" on="0"/>
        <pt x="182" y="676" on="1"/>
        <pt x="215" y="676" on="0"/>
        <pt x="285" y="677" on="0"/>
        <pt x="303" y="679" on="1"/>
        <pt x="303" y="650" on="0"/>
        <pt x="298" y="636" on="1"/>
        <pt x="260" y="634" on="0"/>
        <pt x="229" y="599" on="0"/>
        <pt x="229" y="549" on="1"/>
      </contour>
    </TTGlyph>
    <TTGlyph name="K" xMin="57" yMin="-6" xMax="656" yMax="679">
      <contour>
        <pt x="131" y="549" on="1"/>
        <pt x="131" y="599" on="0"/>
        <pt x="102" y="634" on="0"/>
        <pt x="62" y="636" on="1"/>
        <pt x="57" y="650" on="0"/>
        <pt x="57" y="679" on="1"/>
        <pt x="112" y="676" on="0"/>
        <pt x="178" y="676" on="1"/>
        <pt x="210" y="676" on="0"/>
        <pt x="269" y="677" on="0"/>
        <pt x="299" y="679" on="1"/>
        <pt x="299" y="650" on="0"/>
        <pt x="294" y="636" on="1"/>
        <pt x="254" y="634" on="0"/>
        <pt x="225" y="599" on="0"/>
        <pt x="225" y="549" on="1"/>
        <pt x="225" y="355" on="1"/>
        <pt x="404" y="543" on="1"/>
        <pt x="430" y="570" on="0"/>
        <pt x="453" y="605" on="0"/>
        <pt x="452" y="626" on="0"/>
        <pt x="433" y="635" on="0"/>
        <pt x="417" y="636" on="1"/>
        <pt x="414" y="646" on="0"/>
        <pt x="412" y="668" on="0"/>
        <pt x="412" y="679" on="1"/>
        <pt x="429" y="677" on="0"/>
        <pt x="485" y="676" on="0"/>
        <pt x="515" y="676" on="1"/>
        <pt x="577" y="676" on="0"/>
        <pt x="618" y="679" on="1"/>
        <pt x="618" y="669" on="0"/>
        <pt x="616" y="645" on="0"/>
        <pt x="612" y="636" on="1"/>
        <pt x="595" y="635" on="0"/>
        <pt x="564" y="627" on="0"/>
        <pt x="531" y="608" on="0"/>
        <pt x="493" y="575" on="0"/>
        <pt x="469" y="550" on="1"/>
        <pt x="307" y="376" on="1"/>
        <pt x="341" y="347" on="0"/>
        <pt x="372" y="305" on="1"/>
        <pt x="410" y="256" on="0"/>
        <pt x="450" y="204" on="1"/>
        <pt x="474" y="172" on="0"/>
        <pt x="526" y="113" on="0"/>
        <pt x="578" y="68" on="0"/>
        <pt x="630" y="41" on="0"/>
        <pt x="656" y="40" on="1"/>
        <pt x="656" y="32" on="0"/>
        <pt x="654" y="10" on="0"/>
        <pt x="651" y="0" on="1"/>
        <pt x="613" y="0" on="0"/>
        <pt x="529" y="-2" on="0"/>
        <pt x="492" y="-6" on="1"/>
        <pt x="474" y="23" on="0"/>
        <pt x="409" y="115" on="0"/>
        <pt x="330" y="215" on="0"/>
        <pt x="287" y="261" on="1"/>
        <pt x="254" y="298" on="0"/>
        <pt x="225" y="325" on="1"/>
        <pt x="225" y="127" on="1"/>
        <pt x="225" y="77" on="0"/>
        <pt x="254" y="42" on="0"/>
        <pt x="294" y="40" on="1"/>
        <pt x="299" y="26" on="0"/>
        <pt x="299" y="-3" on="1"/>
        <pt x="239" y="0" on="0"/>
        <pt x="178" y="0" on="1"/>
        <pt x="149" y="0" on="0"/>
        <pt x="83" y="-1" on="0"/>
        <pt x="57" y="-3" on="1"/>
        <pt x="57" y="26" on="0"/>
        <pt x="62" y="40" on="1"/>
        <pt x="102" y="42" on="0"/>
        <pt x="131" y="77" on="0"/>
        <pt x="131" y="127" on="1"/>
      </contour>
    </TTGlyph>
    <TTGlyph name="L" xMin="57" yMin="-3" xMax="541" yMax="679">
      <contour>
        <pt x="322" y="45" on="1"/>
        <pt x="364" y="45" on="0"/>
        <pt x="419" y="58" on="0"/>
        <pt x="458" y="88" on="0"/>
        <pt x="485" y="136" on="0"/>
        <pt x="497" y="171" on="1"/>
        <pt x="512" y="166" on="0"/>
        <pt x="532" y="156" on="0"/>
        <pt x="541" y="147" on="1"/>
        <pt x="530" y="112" on="0"/>
        <pt x="515" y="33" on="0"/>
        <pt x="510" y="-2" on="1"/>
        <pt x="495" y="-2" on="0"/>
        <pt x="452" y="-1" on="0"/>
        <pt x="400" y="0" on="0"/>
        <pt x="372" y="0" on="1"/>
        <pt x="251" y="0" on="1"/>
        <pt x="214" y="0" on="0"/>
        <pt x="141" y="-1" on="0"/>
        <pt x="76" y="-2" on="0"/>
        <pt x="57" y="-3" on="1"/>
        <pt x="57" y="26" on="0"/>
        <pt x="62" y="40" on="1"/>
        <pt x="82" y="41" on="0"/>
        <pt x="109" y="50" on="0"/>
        <pt x="125" y="72" on="0"/>
        <pt x="132" y="109" on="0"/>
        <pt x="132" y="138" on="1"/>
        <pt x="132" y="549" on="1"/>
        <pt x="132" y="599" on="0"/>
        <pt x="103" y="634" on="0"/>
        <pt x="63" y="636" on="1"/>
        <pt x="60" y="644" on="0"/>
        <pt x="58" y="667" on="0"/>
        <pt x="58" y="679" on="1"/>
        <pt x="73" y="678" on="0"/>
        <pt x="89" y="677" on="1"/>
        <pt x="122" y="676" on="1"/>
        <pt x="179" y="676" on="1"/>
        <pt x="211" y="676" on="0"/>
        <pt x="270" y="677" on="0"/>
        <pt x="300" y="679" on="1"/>
        <pt x="300" y="650" on="0"/>
        <pt x="295" y="636" on="1"/>
        <pt x="275" y="635" on="0"/>
        <pt x="249" y="626" on="0"/>
        <pt x="233" y="606" on="0"/>
        <pt x="226" y="572" on="0"/>
        <pt x="226" y="546" on="1"/>
        <pt x="226" y="138" on="1"/>
        <pt x="226" y="110" on="0"/>
        <pt x="233" y="74" on="0"/>
        <pt x="253" y="53" on="0"/>
        <pt x="288" y="45" on="0"/>
        <pt x="316" y="45" on="1"/>
      </contour>
    </TTGlyph>
    <TTGlyph name="M" xMin="40" yMin="-9" xMax="901" yMax="679">
      <contour>
        <pt x="162" y="676" on="1"/>
        <pt x="199" y="676" on="0"/>
        <pt x="238" y="679" on="1"/>
        <pt x="488" y="126" on="1"/>
        <pt x="706" y="679" on="1"/>
        <pt x="723" y="677" on="0"/>
        <pt x="764" y="676" on="0"/>
        <pt x="784" y="676" on="1"/>
        <pt x="804" y="676" on="0"/>
        <pt x="840" y="677" on="0"/>
        <pt x="860" y="679" on="1"/>
        <pt x="860" y="668" on="0"/>
        <pt x="858" y="647" on="0"/>
        <pt x="855" y="636" on="1"/>
        <pt x="837" y="636" on="0"/>
        <pt x="809" y="627" on="0"/>
        <pt x="791" y="604" on="0"/>
        <pt x="784" y="565" on="0"/>
        <pt x="787" y="535" on="1"/>
        <pt x="823" y="168" on="1"/>
        <pt x="827" y="131" on="0"/>
        <pt x="837" y="83" on="0"/>
        <pt x="854" y="55" on="0"/>
        <pt x="878" y="42" on="0"/>
        <pt x="896" y="41" on="1"/>
        <pt x="899" y="30" on="0"/>
        <pt x="901" y="7" on="0"/>
        <pt x="901" y="-3" on="1"/>
        <pt x="889" y="-2" on="0"/>
        <pt x="859" y="-1" on="0"/>
        <pt x="827" y="0" on="0"/>
        <pt x="810" y="0" on="1"/>
        <pt x="781" y="0" on="1"/>
        <pt x="754" y="0" on="0"/>
        <pt x="685" y="-1" on="0"/>
        <pt x="659" y="-3" on="1"/>
        <pt x="659" y="6" on="0"/>
        <pt x="662" y="30" on="0"/>
        <pt x="665" y="40" on="1"/>
        <pt x="689" y="42" on="0"/>
        <pt x="717" y="54" on="0"/>
        <pt x="729" y="79" on="0"/>
        <pt x="729" y="122" on="0"/>
        <pt x="726" y="155" on="1"/>
        <pt x="690" y="498" on="1"/>
        <pt x="483" y="-2" on="1"/>
        <pt x="466" y="-9" on="0"/>
        <pt x="442" y="-9" on="1"/>
        <pt x="209" y="497" on="1"/>
        <pt x="177" y="176" on="1"/>
        <pt x="173" y="136" on="0"/>
        <pt x="176" y="85" on="0"/>
        <pt x="191" y="55" on="0"/>
        <pt x="220" y="42" on="0"/>
        <pt x="242" y="40" on="1"/>
        <pt x="245" y="29" on="0"/>
        <pt x="247" y="4" on="0"/>
        <pt x="247" y="-3" on="1"/>
        <pt x="223" y="-1" on="0"/>
        <pt x="162" y="0" on="0"/>
        <pt x="140" y="0" on="1"/>
        <pt x="118" y="0" on="0"/>
        <pt x="60" y="-1" on="0"/>
        <pt x="40" y="-3" on="1"/>
        <pt x="40" y="4" on="0"/>
        <pt x="42" y="29" on="0"/>
        <pt x="45" y="40" on="1"/>
        <pt x="65" y="42" on="0"/>
        <pt x="92" y="54" on="0"/>
        <pt x="110" y="84" on="0"/>
        <pt x="122" y="140" on="0"/>
        <pt x="126" y="185" on="1"/>
        <pt x="158" y="541" on="1"/>
        <pt x="163" y="595" on="0"/>
        <pt x="133" y="636" on="0"/>
        <pt x="91" y="636" on="1"/>
        <pt x="88" y="646" on="0"/>
        <pt x="86" y="670" on="0"/>
        <pt x="86" y="679" on="1"/>
        <pt x="101" y="677" on="0"/>
        <pt x="143" y="676" on="0"/>
      </contour>
    </TTGlyph>
    <TTGlyph name="N" xMin="57" yMin="-9" xMax="702" yMax="679">
      <contour>
        <pt x="513" y="679" on="1"/>
        <pt x="535" y="677" on="0"/>
        <pt x="586" y="676" on="0"/>
        <pt x="607" y="676" on="1"/>
        <pt x="628" y="676" on="0"/>
        <pt x="682" y="677" on="0"/>
        <pt x="702" y="679" on="1"/>
        <pt x="702" y="669" on="0"/>
        <pt x="700" y="647" on="0"/>
        <pt x="697" y="636" on="1"/>
        <pt x="680" y="636" on="0"/>
        <pt x="658" y="622" on="0"/>
        <pt x="644" y="589" on="0"/>
        <pt x="638" y="535" on="0"/>
        <pt x="638" y="494" on="1"/>
        <pt x="638" y="-4" on="1"/>
        <pt x="630" y="-7" on="0"/>
        <pt x="608" y="-9" on="0"/>
        <pt x="597" y="-9" on="1"/>
        <pt x="182" y="533" on="1"/>
        <pt x="182" y="187" on="1"/>
        <pt x="182" y="145" on="0"/>
        <pt x="188" y="88" on="0"/>
        <pt x="204" y="54" on="0"/>
        <pt x="231" y="40" on="0"/>
        <pt x="251" y="40" on="1"/>
        <pt x="254" y="31" on="0"/>
        <pt x="256" y="11" on="0"/>
        <pt x="256" y="-3" on="1"/>
        <pt x="233" y="-1" on="0"/>
        <pt x="179" y="0" on="0"/>
        <pt x="157" y="0" on="1"/>
        <pt x="135" y="0" on="0"/>
        <pt x="76" y="-1" on="0"/>
        <pt x="57" y="-3" on="1"/>
        <pt x="57" y="10" on="0"/>
        <pt x="59" y="31" on="0"/>
        <pt x="62" y="40" on="1"/>
        <pt x="82" y="40" on="0"/>
        <pt x="109" y="54" on="0"/>
        <pt x="125" y="88" on="0"/>
        <pt x="131" y="145" on="0"/>
        <pt x="131" y="187" on="1"/>
        <pt x="131" y="600" on="1"/>
        <pt x="127" y="605" on="1"/>
        <pt x="113" y="623" on="0"/>
        <pt x="87" y="634" on="0"/>
        <pt x="62" y="636" on="1"/>
        <pt x="59" y="647" on="0"/>
        <pt x="57" y="671" on="0"/>
        <pt x="57" y="679" on="1"/>
        <pt x="72" y="677" on="0"/>
        <pt x="112" y="676" on="0"/>
        <pt x="131" y="676" on="1"/>
        <pt x="171" y="676" on="0"/>
        <pt x="198" y="679" on="1"/>
        <pt x="587" y="163" on="1"/>
        <pt x="587" y="494" on="1"/>
        <pt x="587" y="535" on="0"/>
        <pt x="581" y="589" on="0"/>
        <pt x="565" y="622" on="0"/>
        <pt x="538" y="636" on="0"/>
        <pt x="518" y="636" on="1"/>
        <pt x="515" y="653" on="0"/>
        <pt x="513" y="670" on="0"/>
      </contour>
    </TTGlyph>
    <TTGlyph name="Ntilde" xMin="57" yMin="-9" xMax="702" yMax="842">
      <component glyphName="N" x="0" y="0" flags="0x204"/>
      <component glyphName="tilde" x="122" y="215" flags="0x4"/>
    </TTGlyph>
    <TTGlyph name="O" xMin="35" yMin="-9" xMax="696" yMax="685">
      <contour>
        <pt x="35" y="340" on="1"/>
        <pt x="35" y="416" on="0"/>
        <pt x="86" y="543" on="0"/>
        <pt x="175" y="635" on="0"/>
        <pt x="296" y="685" on="0"/>
        <pt x="365" y="685" on="1"/>
        <pt x="437" y="685" on="0"/>
        <pt x="558" y="635" on="0"/>
        <pt x="646" y="544" on="0"/>
        <pt x="696" y="417" on="0"/>
        <pt x="696" y="340" on="1"/>
        <pt x="696" y="266" on="0"/>
        <pt x="647" y="139" on="0"/>
        <pt x="559" y="45" on="0"/>
        <pt x="438" y="-9" on="0"/>
        <pt x="365" y="-9" on="1"/>
        <pt x="291" y="-9" on="0"/>
        <pt x="169" y="44" on="0"/>
        <pt x="82" y="138" on="0"/>
        <pt x="35" y="265" on="0"/>
      </contour>
      <contour>
        <pt x="138" y="367" on="1"/>
        <pt x="138" y="304" on="0"/>
        <pt x="170" y="186" on="0"/>
        <pt x="233" y="95" on="0"/>
        <pt x="325" y="40" on="0"/>
        <pt x="385" y="40" on="1"/>
        <pt x="434" y="40" on="0"/>
        <pt x="511" y="83" on="0"/>
        <pt x="565" y="157" on="0"/>
        <pt x="593" y="257" on="0"/>
        <pt x="593" y="314" on="1"/>
        <pt x="593" y="381" on="0"/>
        <pt x="555" y="499" on="0"/>
        <pt x="489" y="587" on="0"/>
        <pt x="398" y="637" on="0"/>
        <pt x="344" y="637" on="1"/>
        <pt x="300" y="637" on="0"/>
        <pt x="224" y="598" on="0"/>
        <pt x="169" y="527" on="0"/>
        <pt x="138" y="428" on="0"/>
      </contour>
    </TTGlyph>
    <TTGlyph name="Oacute" xMin="35" yMin="-9" xMax="696" yMax="937">
      <component glyphName="O" x="0" y="0" flags="0x204"/>
      <component glyphName="acute" x="116" y="215" flags="0x4"/>
    </TTGlyph>
    <TTGlyph name="Ocircumflex" xMin="35" yMin="-9" xMax="696" yMax="924">
      <component glyphName="O" x="0" y="0" flags="0x204"/>
      <component glyphName="circumflex" x="125" y="215" flags="0x4"/>
    </TTGlyph>
    <TTGlyph name="Odieresis" xMin="35" yMin="-9" xMax="696" yMax="855">
      <component glyphName="O" x="0" y="0" flags="0x204"/>
      <component glyphName="dieresis" x="67" y="215" flags="0x4"/>
    </TTGlyph>
    <TTGlyph name="Ograve" xMin="35" yMin="-9" xMax="696" yMax="931">
      <component glyphName="O" x="0" y="0" flags="0x204"/>
      <component glyphName="grave" x="237" y="215" flags="0x4"/>
    </TTGlyph>
    <TTGlyph name="Oslash" xMin="35" yMin="-29" xMax="696" yMax="701">
      <contour>
        <pt x="35" y="340" on="1"/>
        <pt x="35" y="416" on="0"/>
        <pt x="86" y="543" on="0"/>
        <pt x="175" y="635" on="0"/>
        <pt x="296" y="685" on="0"/>
        <pt x="365" y="685" on="1"/>
        <pt x="437" y="685" on="0"/>
        <pt x="497" y="660" on="1"/>
        <pt x="527" y="648" on="0"/>
        <pt x="552" y="631" on="1"/>
        <pt x="604" y="701" on="1"/>
        <pt x="619" y="701" on="0"/>
        <pt x="645" y="695" on="0"/>
        <pt x="655" y="685" on="1"/>
        <pt x="591" y="600" on="1"/>
        <pt x="602" y="589" on="1"/>
        <pt x="646" y="544" on="0"/>
        <pt x="696" y="417" on="0"/>
        <pt x="696" y="340" on="1"/>
        <pt x="696" y="266" on="0"/>
        <pt x="647" y="139" on="0"/>
        <pt x="559" y="45" on="0"/>
        <pt x="438" y="-9" on="0"/>
        <pt x="365" y="-9" on="1"/>
        <pt x="291" y="-9" on="0"/>
        <pt x="230" y="17" on="1"/>
        <pt x="194" y="33" on="0"/>
        <pt x="164" y="55" on="1"/>
        <pt x="98" y="-29" on="1"/>
        <pt x="84" y="-29" on="0"/>
        <pt x="59" y="-16" on="0"/>
        <pt x="54" y="-7" on="1"/>
        <pt x="129" y="87" on="1"/>
        <pt x="125" y="91" on="1"/>
        <pt x="82" y="138" on="0"/>
        <pt x="35" y="265" on="0"/>
      </contour>
      <contour>
        <pt x="279" y="67" on="1"/>
        <pt x="325" y="40" on="0"/>
        <pt x="385" y="40" on="1"/>
        <pt x="434" y="40" on="0"/>
        <pt x="511" y="83" on="0"/>
        <pt x="565" y="157" on="0"/>
        <pt x="593" y="257" on="0"/>
        <pt x="593" y="314" on="1"/>
        <pt x="593" y="381" on="0"/>
        <pt x="574" y="440" on="1"/>
        <pt x="558" y="490" on="0"/>
        <pt x="532" y="529" on="1"/>
        <pt x="218" y="119" on="1"/>
        <pt x="244" y="88" on="0"/>
      </contour>
      <contour>
        <pt x="138" y="367" on="1"/>
        <pt x="138" y="304" on="0"/>
        <pt x="154" y="245" on="1"/>
        <pt x="167" y="198" on="0"/>
        <pt x="189" y="159" on="1"/>
        <pt x="501" y="567" on="1"/>
        <pt x="475" y="594" on="0"/>
        <pt x="443" y="612" on="1"/>
        <pt x="398" y="637" on="0"/>
        <pt x="344" y="637" on="1"/>
        <pt x="300" y="637" on="0"/>
        <pt x="224" y="598" on="0"/>
        <pt x="169" y="527" on="0"/>
        <pt x="138" y="428" on="0"/>
      </contour>
    </TTGlyph>
    <TTGlyph name="Otilde" xMin="35" yMin="-9" xMax="696" yMax="842">
      <component glyphName="O" x="0" y="0" flags="0x204"/>
      <component glyphName="tilde" x="107" y="215" flags="0x4"/>
    </TTGlyph>
    <TTGlyph name="P" xMin="57" yMin="-3" xMax="547" yMax="679">
      <contour>
        <pt x="250" y="638" on="1"/>
        <pt x="240" y="637" on="0"/>
        <pt x="225" y="634" on="1"/>
        <pt x="225" y="147" on="1"/>
        <pt x="225" y="114" on="0"/>
        <pt x="235" y="74" on="0"/>
        <pt x="257" y="50" on="0"/>
        <pt x="290" y="41" on="0"/>
        <pt x="314" y="40" on="1"/>
        <pt x="319" y="26" on="0"/>
        <pt x="319" y="-3" on="1"/>
        <pt x="296" y="-1" on="0"/>
        <pt x="228" y="0" on="0"/>
        <pt x="193" y="0" on="1"/>
        <pt x="155" y="0" on="1"/>
        <pt x="136" y="0" on="0"/>
        <pt x="98" y="-1" on="0"/>
        <pt x="67" y="-2" on="0"/>
        <pt x="57" y="-3" on="1"/>
        <pt x="57" y="26" on="0"/>
        <pt x="62" y="40" on="1"/>
        <pt x="102" y="42" on="0"/>
        <pt x="131" y="77" on="0"/>
        <pt x="131" y="127" on="1"/>
        <pt x="131" y="549" on="1"/>
        <pt x="131" y="599" on="0"/>
        <pt x="102" y="634" on="0"/>
        <pt x="62" y="636" on="1"/>
        <pt x="57" y="650" on="0"/>
        <pt x="57" y="679" on="1"/>
        <pt x="96" y="677" on="0"/>
        <pt x="169" y="676" on="0"/>
        <pt x="193" y="676" on="1"/>
        <pt x="219" y="676" on="0"/>
        <pt x="292" y="678" on="0"/>
        <pt x="335" y="678" on="1"/>
        <pt x="390" y="678" on="0"/>
        <pt x="470" y="646" on="0"/>
        <pt x="522" y="591" on="0"/>
        <pt x="547" y="517" on="0"/>
        <pt x="547" y="475" on="1"/>
        <pt x="547" y="437" on="0"/>
        <pt x="519" y="358" on="0"/>
        <pt x="462" y="294" on="0"/>
        <pt x="377" y="253" on="0"/>
        <pt x="320" y="253" on="1"/>
        <pt x="299" y="253" on="0"/>
        <pt x="264" y="259" on="0"/>
        <pt x="250" y="264" on="1"/>
        <pt x="248" y="272" on="0"/>
        <pt x="249" y="290" on="0"/>
        <pt x="251" y="297" on="1"/>
        <pt x="276" y="291" on="0"/>
        <pt x="306" y="291" on="1"/>
        <pt x="334" y="291" on="0"/>
        <pt x="386" y="305" on="0"/>
        <pt x="427" y="341" on="0"/>
        <pt x="452" y="403" on="0"/>
        <pt x="452" y="451" on="1"/>
        <pt x="452" y="493" on="0"/>
        <pt x="432" y="562" on="0"/>
        <pt x="390" y="612" on="0"/>
        <pt x="326" y="640" on="0"/>
        <pt x="281" y="640" on="1"/>
        <pt x="264" y="640" on="0"/>
      </contour>
    </TTGlyph>
    <TTGlyph name="Q" xMin="35" yMin="-184" xMax="766" yMax="685">
      <contour>
        <pt x="35" y="340" on="1"/>
        <pt x="35" y="416" on="0"/>
        <pt x="86" y="543" on="0"/>
        <pt x="175" y="635" on="0"/>
        <pt x="296" y="685" on="0"/>
        <pt x="365" y="685" on="1"/>
        <pt x="437" y="685" on="0"/>
        <pt x="558" y="635" on="0"/>
        <pt x="646" y="544" on="0"/>
        <pt x="696" y="417" on="0"/>
        <pt x="696" y="340" on="1"/>
        <pt x="696" y="266" on="0"/>
        <pt x="647" y="139" on="0"/>
        <pt x="559" y="45" on="0"/>
        <pt x="498" y="18" on="1"/>
        <pt x="491" y="14" on="0"/>
        <pt x="483" y="11" on="1"/>
        <pt x="517" y="1" on="0"/>
        <pt x="543" y="-14" on="1"/>
        <pt x="579" y="-35" on="0"/>
        <pt x="643" y="-76" on="0"/>
        <pt x="715" y="-103" on="0"/>
        <pt x="766" y="-98" on="1"/>
        <pt x="766" y="-107" on="0"/>
        <pt x="763" y="-128" on="0"/>
        <pt x="760" y="-138" on="1"/>
        <pt x="731" y="-147" on="0"/>
        <pt x="674" y="-167" on="0"/>
        <pt x="636" y="-184" on="1"/>
        <pt x="603" y="-176" on="0"/>
        <pt x="559" y="-146" on="0"/>
        <pt x="524" y="-109" on="0"/>
        <pt x="492" y="-71" on="0"/>
        <pt x="454" y="-37" on="0"/>
        <pt x="402" y="-13" on="0"/>
        <pt x="367" y="-9" on="1"/>
        <pt x="365" y="-9" on="1"/>
        <pt x="291" y="-9" on="0"/>
        <pt x="169" y="44" on="0"/>
        <pt x="82" y="138" on="0"/>
        <pt x="35" y="265" on="0"/>
      </contour>
      <contour>
        <pt x="138" y="367" on="1"/>
        <pt x="138" y="304" on="0"/>
        <pt x="170" y="186" on="0"/>
        <pt x="233" y="95" on="0"/>
        <pt x="325" y="40" on="0"/>
        <pt x="385" y="40" on="1"/>
        <pt x="434" y="40" on="0"/>
        <pt x="511" y="83" on="0"/>
        <pt x="565" y="157" on="0"/>
        <pt x="593" y="257" on="0"/>
        <pt x="593" y="314" on="1"/>
        <pt x="593" y="381" on="0"/>
        <pt x="555" y="499" on="0"/>
        <pt x="489" y="587" on="0"/>
        <pt x="398" y="637" on="0"/>
        <pt x="344" y="637" on="1"/>
        <pt x="300" y="637" on="0"/>
        <pt x="224" y="598" on="0"/>
        <pt x="169" y="527" on="0"/>
        <pt x="138" y="428" on="0"/>
      </contour>
    </TTGlyph>
    <TTGlyph name="R" xMin="57" yMin="-9" xMax="659" yMax="678">
      <contour>
        <pt x="177" y="676" on="1"/>
        <pt x="219" y="676" on="0"/>
        <pt x="302" y="678" on="0"/>
        <pt x="344" y="678" on="1"/>
        <pt x="401" y="678" on="0"/>
        <pt x="483" y="652" on="0"/>
        <pt x="536" y="607" on="0"/>
        <pt x="562" y="546" on="0"/>
        <pt x="562" y="510" on="1"/>
        <pt x="562" y="440" on="0"/>
        <pt x="514" y="392" on="1"/>
        <pt x="470" y="348" on="0"/>
        <pt x="395" y="328" on="1"/>
        <pt x="408" y="316" on="0"/>
        <pt x="419" y="304" on="1"/>
        <pt x="433" y="289" on="0"/>
        <pt x="459" y="252" on="0"/>
        <pt x="487" y="204" on="0"/>
        <pt x="506" y="169" on="1"/>
        <pt x="541" y="106" on="0"/>
        <pt x="609" y="42" on="0"/>
        <pt x="659" y="40" on="1"/>
        <pt x="659" y="28" on="0"/>
        <pt x="658" y="8" on="0"/>
        <pt x="655" y="-3" on="1"/>
        <pt x="617" y="-3" on="0"/>
        <pt x="535" y="-5" on="0"/>
        <pt x="498" y="-9" on="1"/>
        <pt x="482" y="16" on="0"/>
        <pt x="436" y="98" on="0"/>
        <pt x="412" y="146" on="1"/>
        <pt x="389" y="192" on="0"/>
        <pt x="356" y="236" on="1"/>
        <pt x="330" y="272" on="0"/>
        <pt x="298" y="305" on="1"/>
        <pt x="257" y="303" on="0"/>
        <pt x="225" y="305" on="1"/>
        <pt x="225" y="127" on="1"/>
        <pt x="225" y="77" on="0"/>
        <pt x="253" y="42" on="0"/>
        <pt x="291" y="40" on="1"/>
        <pt x="294" y="31" on="0"/>
        <pt x="296" y="8" on="0"/>
        <pt x="296" y="-3" on="1"/>
        <pt x="264" y="-1" on="0"/>
        <pt x="196" y="0" on="0"/>
        <pt x="177" y="0" on="1"/>
        <pt x="148" y="0" on="1"/>
        <pt x="132" y="0" on="0"/>
        <pt x="99" y="-1" on="0"/>
        <pt x="68" y="-2" on="0"/>
        <pt x="57" y="-3" on="1"/>
        <pt x="57" y="8" on="0"/>
        <pt x="59" y="30" on="0"/>
        <pt x="62" y="40" on="1"/>
        <pt x="102" y="42" on="0"/>
        <pt x="131" y="77" on="0"/>
        <pt x="131" y="127" on="1"/>
        <pt x="131" y="549" on="1"/>
        <pt x="131" y="599" on="0"/>
        <pt x="102" y="636" on="0"/>
        <pt x="62" y="636" on="1"/>
        <pt x="59" y="646" on="0"/>
        <pt x="57" y="666" on="0"/>
        <pt x="57" y="678" on="1"/>
        <pt x="72" y="677" on="0"/>
        <pt x="142" y="676" on="0"/>
      </contour>
      <contour>
        <pt x="258" y="640" on="1"/>
        <pt x="242" y="638" on="0"/>
        <pt x="225" y="634" on="1"/>
        <pt x="225" y="354" on="1"/>
        <pt x="235" y="352" on="0"/>
        <pt x="244" y="352" on="1"/>
        <pt x="256" y="351" on="0"/>
        <pt x="269" y="351" on="1"/>
        <pt x="310" y="351" on="0"/>
        <pt x="381" y="368" on="0"/>
        <pt x="434" y="405" on="0"/>
        <pt x="464" y="461" on="0"/>
        <pt x="464" y="500" on="1"/>
        <pt x="464" y="563" on="0"/>
        <pt x="389" y="642" on="0"/>
        <pt x="299" y="642" on="1"/>
        <pt x="276" y="642" on="0"/>
      </contour>
    </TTGlyph>
    <TTGlyph name="S" xMin="68" yMin="-9" xMax="477" yMax="685">
      <contour>
        <pt x="264" y="685" on="1"/>
        <pt x="320" y="685" on="0"/>
        <pt x="400" y="658" on="0"/>
        <pt x="421" y="641" on="1"/>
        <pt x="421" y="612" on="0"/>
        <pt x="423" y="536" on="0"/>
        <pt x="427" y="509" on="1"/>
        <pt x="416" y="504" on="0"/>
        <pt x="385" y="500" on="0"/>
        <pt x="371" y="500" on="1"/>
        <pt x="363" y="543" on="0"/>
        <pt x="343" y="598" on="0"/>
        <pt x="316" y="629" on="0"/>
        <pt x="283" y="641" on="0"/>
        <pt x="264" y="641" on="1"/>
        <pt x="219" y="641" on="0"/>
        <pt x="167" y="589" on="0"/>
        <pt x="167" y="541" on="1"/>
        <pt x="167" y="497" on="0"/>
        <pt x="213" y="441" on="0"/>
        <pt x="282" y="397" on="0"/>
        <pt x="362" y="358" on="0"/>
        <pt x="431" y="307" on="0"/>
        <pt x="477" y="235" on="0"/>
        <pt x="477" y="180" on="1"/>
        <pt x="477" y="142" on="0"/>
        <pt x="446" y="73" on="0"/>
        <pt x="392" y="21" on="0"/>
        <pt x="318" y="-9" on="0"/>
        <pt x="274" y="-9" on="1"/>
        <pt x="239" y="-9" on="0"/>
        <pt x="186" y="-2" on="0"/>
        <pt x="141" y="13" on="0"/>
        <pt x="96" y="37" on="0"/>
        <pt x="68" y="55" on="1"/>
        <pt x="74" y="93" on="0"/>
        <pt x="77" y="169" on="0"/>
        <pt x="77" y="197" on="1"/>
        <pt x="88" y="200" on="0"/>
        <pt x="118" y="203" on="0"/>
        <pt x="131" y="203" on="1"/>
        <pt x="133" y="165" on="0"/>
        <pt x="149" y="105" on="0"/>
        <pt x="182" y="62" on="0"/>
        <pt x="237" y="39" on="0"/>
        <pt x="279" y="39" on="1"/>
        <pt x="307" y="39" on="0"/>
        <pt x="349" y="56" on="0"/>
        <pt x="377" y="84" on="0"/>
        <pt x="392" y="121" on="0"/>
        <pt x="392" y="142" on="1"/>
        <pt x="392" y="187" on="0"/>
        <pt x="346" y="243" on="0"/>
        <pt x="277" y="284" on="0"/>
        <pt x="196" y="321" on="0"/>
        <pt x="127" y="372" on="0"/>
        <pt x="81" y="448" on="0"/>
        <pt x="81" y="509" on="1"/>
        <pt x="81" y="548" on="0"/>
        <pt x="108" y="613" on="0"/>
        <pt x="156" y="660" on="0"/>
        <pt x="223" y="685" on="0"/>
      </contour>
    </TTGlyph>
    <TTGlyph name="T" xMin="25" yMin="-3" xMax="559" yMax="679">
      <contour>
        <pt x="249" y="637" on="1"/>
        <pt x="198" y="637" on="1"/>
        <pt x="159" y="637" on="0"/>
        <pt x="114" y="619" on="0"/>
        <pt x="88" y="587" on="0"/>
        <pt x="76" y="545" on="0"/>
        <pt x="71" y="520" on="1"/>
        <pt x="60" y="520" on="0"/>
        <pt x="34" y="524" on="0"/>
        <pt x="25" y="529" on="1"/>
        <pt x="33" y="564" on="0"/>
        <pt x="41" y="644" on="0"/>
        <pt x="41" y="679" on="1"/>
        <pt x="83" y="677" on="0"/>
        <pt x="220" y="676" on="0"/>
        <pt x="296" y="676" on="1"/>
        <pt x="371" y="676" on="1"/>
        <pt x="408" y="676" on="0"/>
        <pt x="475" y="677" on="0"/>
        <pt x="532" y="678" on="0"/>
        <pt x="553" y="679" on="1"/>
        <pt x="553" y="611" on="0"/>
        <pt x="559" y="529" on="1"/>
        <pt x="548" y="524" on="0"/>
        <pt x="523" y="520" on="0"/>
        <pt x="511" y="520" on="1"/>
        <pt x="509" y="574" on="0"/>
        <pt x="454" y="637" on="0"/>
        <pt x="391" y="637" on="1"/>
        <pt x="343" y="637" on="1"/>
        <pt x="343" y="127" on="1"/>
        <pt x="343" y="102" on="0"/>
        <pt x="349" y="69" on="0"/>
        <pt x="366" y="50" on="0"/>
        <pt x="397" y="41" on="0"/>
        <pt x="421" y="40" on="1"/>
        <pt x="426" y="26" on="0"/>
        <pt x="426" y="-3" on="1"/>
        <pt x="394" y="-1" on="0"/>
        <pt x="327" y="0" on="0"/>
        <pt x="295" y="0" on="1"/>
        <pt x="263" y="0" on="0"/>
        <pt x="192" y="-1" on="0"/>
        <pt x="164" y="-3" on="1"/>
        <pt x="164" y="26" on="0"/>
        <pt x="169" y="40" on="1"/>
        <pt x="193" y="41" on="0"/>
        <pt x="224" y="50" on="0"/>
        <pt x="242" y="69" on="0"/>
        <pt x="249" y="102" on="0"/>
        <pt x="249" y="127" on="1"/>
      </contour>
    </TTGlyph>
    <TTGlyph name="Thorn" xMin="56" yMin="-3" xMax="551" yMax="679">
      <contour>
        <pt x="130" y="549" on="1"/>
        <pt x="130" y="599" on="0"/>
        <pt x="101" y="634" on="0"/>
        <pt x="61" y="636" on="1"/>
        <pt x="56" y="650" on="0"/>
        <pt x="56" y="679" on="1"/>
        <pt x="111" y="676" on="0"/>
        <pt x="177" y="676" on="1"/>
        <pt x="209" y="676" on="0"/>
        <pt x="268" y="677" on="0"/>
        <pt x="298" y="679" on="1"/>
        <pt x="298" y="650" on="0"/>
        <pt x="293" y="636" on="1"/>
        <pt x="253" y="634" on="0"/>
        <pt x="224" y="599" on="0"/>
        <pt x="224" y="549" on="1"/>
        <pt x="224" y="538" on="1"/>
        <pt x="235" y="539" on="0"/>
        <pt x="247" y="539" on="1"/>
        <pt x="270" y="539" on="0"/>
        <pt x="318" y="540" on="0"/>
        <pt x="339" y="540" on="1"/>
        <pt x="394" y="540" on="0"/>
        <pt x="474" y="511" on="0"/>
        <pt x="526" y="460" on="0"/>
        <pt x="551" y="392" on="0"/>
        <pt x="551" y="354" on="1"/>
        <pt x="551" y="318" on="0"/>
        <pt x="523" y="246" on="0"/>
        <pt x="466" y="188" on="0"/>
        <pt x="381" y="151" on="0"/>
        <pt x="324" y="151" on="1"/>
        <pt x="303" y="151" on="0"/>
        <pt x="268" y="156" on="0"/>
        <pt x="254" y="161" on="1"/>
        <pt x="252" y="169" on="0"/>
        <pt x="253" y="187" on="0"/>
        <pt x="255" y="194" on="1"/>
        <pt x="268" y="191" on="0"/>
        <pt x="294" y="189" on="0"/>
        <pt x="310" y="189" on="1"/>
        <pt x="338" y="189" on="0"/>
        <pt x="390" y="201" on="0"/>
        <pt x="431" y="234" on="0"/>
        <pt x="456" y="289" on="0"/>
        <pt x="456" y="333" on="1"/>
        <pt x="456" y="370" on="0"/>
        <pt x="436" y="432" on="0"/>
        <pt x="394" y="477" on="0"/>
        <pt x="330" y="502" on="0"/>
        <pt x="285" y="502" on="1"/>
        <pt x="268" y="502" on="0"/>
        <pt x="254" y="500" on="1"/>
        <pt x="243" y="499" on="0"/>
        <pt x="224" y="495" on="1"/>
        <pt x="224" y="127" on="1"/>
        <pt x="224" y="77" on="0"/>
        <pt x="253" y="42" on="0"/>
        <pt x="293" y="40" on="1"/>
        <pt x="298" y="26" on="0"/>
        <pt x="298" y="-3" on="1"/>
        <pt x="238" y="0" on="0"/>
        <pt x="177" y="0" on="1"/>
        <pt x="148" y="0" on="0"/>
        <pt x="82" y="-1" on="0"/>
        <pt x="56" y="-3" on="1"/>
        <pt x="56" y="26" on="0"/>
        <pt x="61" y="40" on="1"/>
        <pt x="101" y="42" on="0"/>
        <pt x="130" y="77" on="0"/>
        <pt x="130" y="127" on="1"/>
      </contour>
    </TTGlyph>
    <TTGlyph name="U" xMin="57" yMin="-9" xMax="649" yMax="679">
      <contour>
        <pt x="585" y="269" on="1"/>
        <pt x="585" y="226" on="0"/>
        <pt x="580" y="159" on="0"/>
        <pt x="567" y="106" on="0"/>
        <pt x="545" y="65" on="0"/>
        <pt x="528" y="48" on="1"/>
        <pt x="499" y="19" on="0"/>
        <pt x="417" y="-9" on="0"/>
        <pt x="366" y="-9" on="1"/>
        <pt x="296" y="-9" on="0"/>
        <pt x="202" y="22" on="0"/>
        <pt x="145" y="83" on="0"/>
        <pt x="121" y="173" on="0"/>
        <pt x="121" y="231" on="1"/>
        <pt x="121" y="549" on="1"/>
        <pt x="121" y="576" on="0"/>
        <pt x="116" y="608" on="0"/>
        <pt x="103" y="626" on="0"/>
        <pt x="80" y="634" on="0"/>
        <pt x="62" y="636" on="1"/>
        <pt x="59" y="647" on="0"/>
        <pt x="57" y="669" on="0"/>
        <pt x="57" y="679" on="1"/>
        <pt x="77" y="677" on="0"/>
        <pt x="142" y="676" on="0"/>
        <pt x="173" y="676" on="1"/>
        <pt x="204" y="676" on="0"/>
        <pt x="266" y="677" on="0"/>
        <pt x="289" y="679" on="1"/>
        <pt x="289" y="669" on="0"/>
        <pt x="287" y="647" on="0"/>
        <pt x="284" y="636" on="1"/>
        <pt x="262" y="634" on="0"/>
        <pt x="235" y="627" on="0"/>
        <pt x="220" y="609" on="0"/>
        <pt x="215" y="576" on="0"/>
        <pt x="215" y="549" on="1"/>
        <pt x="215" y="245" on="1"/>
        <pt x="215" y="203" on="0"/>
        <pt x="231" y="129" on="0"/>
        <pt x="270" y="75" on="0"/>
        <pt x="335" y="44" on="0"/>
        <pt x="385" y="44" on="1"/>
        <pt x="410" y="44" on="0"/>
        <pt x="470" y="61" on="0"/>
        <pt x="491" y="82" on="1"/>
        <pt x="503" y="94" on="0"/>
        <pt x="519" y="122" on="0"/>
        <pt x="529" y="164" on="0"/>
        <pt x="534" y="221" on="0"/>
        <pt x="534" y="261" on="1"/>
        <pt x="534" y="509" on="1"/>
        <pt x="534" y="545" on="0"/>
        <pt x="529" y="592" on="0"/>
        <pt x="514" y="621" on="0"/>
        <pt x="487" y="634" on="0"/>
        <pt x="465" y="636" on="1"/>
        <pt x="462" y="651" on="0"/>
        <pt x="460" y="668" on="0"/>
        <pt x="460" y="679" on="1"/>
        <pt x="477" y="677" on="0"/>
        <pt x="531" y="676" on="0"/>
        <pt x="554" y="676" on="1"/>
        <pt x="577" y="676" on="0"/>
        <pt x="629" y="677" on="0"/>
        <pt x="649" y="679" on="1"/>
        <pt x="649" y="672" on="0"/>
        <pt x="647" y="653" on="0"/>
        <pt x="644" y="636" on="1"/>
        <pt x="627" y="634" on="0"/>
        <pt x="604" y="621" on="0"/>
        <pt x="590" y="593" on="0"/>
        <pt x="585" y="545" on="0"/>
        <pt x="585" y="509" on="1"/>
      </contour>
    </TTGlyph>
    <TTGlyph name="Uacute" xMin="57" yMin="-9" xMax="649" yMax="937">
      <component glyphName="U" x="0" y="0" flags="0x204"/>
      <component glyphName="acute" x="144" y="215" flags="0x4"/>
    </TTGlyph>
    <TTGlyph name="Ucircumflex" xMin="57" yMin="-9" xMax="649" yMax="924">
      <component glyphName="U" x="0" y="0" flags="0x204"/>
      <component glyphName="circumflex" x="132" y="215" flags="0x4"/>
    </TTGlyph>
    <TTGlyph name="Udieresis" xMin="57" yMin="-9" xMax="649" yMax="855">
      <component glyphName="U" x="0" y="0" flags="0x204"/>
      <component glyphName="dieresis" x="80" y="215" flags="0x4"/>
    </TTGlyph>
    <TTGlyph name="Ugrave" xMin="57" yMin="-9" xMax="649" yMax="931">
      <component glyphName="U" x="0" y="0" flags="0x204"/>
      <component glyphName="grave" x="239" y="215" flags="0x4"/>
    </TTGlyph>
    <TTGlyph name="V" xMin="25" yMin="-6" xMax="661" yMax="679">
      <contour>
        <pt x="225" y="527" on="1"/>
        <pt x="268" y="429" on="0"/>
        <pt x="309" y="330" on="1"/>
        <pt x="347" y="239" on="0"/>
        <pt x="386" y="141" on="1"/>
        <pt x="421" y="230" on="0"/>
        <pt x="453" y="316" on="1"/>
        <pt x="489" y="412" on="0"/>
        <pt x="523" y="514" on="1"/>
        <pt x="542" y="569" on="0"/>
        <pt x="526" y="631" on="0"/>
        <pt x="479" y="636" on="1"/>
        <pt x="476" y="647" on="0"/>
        <pt x="474" y="671" on="0"/>
        <pt x="474" y="679" on="1"/>
        <pt x="496" y="677" on="0"/>
        <pt x="536" y="676" on="0"/>
        <pt x="559" y="676" on="1"/>
        <pt x="582" y="676" on="0"/>
        <pt x="639" y="677" on="0"/>
        <pt x="661" y="679" on="1"/>
        <pt x="661" y="668" on="0"/>
        <pt x="659" y="647" on="0"/>
        <pt x="656" y="636" on="1"/>
        <pt x="625" y="628" on="0"/>
        <pt x="590" y="568" on="0"/>
        <pt x="572" y="518" on="1"/>
        <pt x="525" y="388" on="0"/>
        <pt x="430" y="129" on="0"/>
        <pt x="379" y="-2" on="1"/>
        <pt x="362" y="-6" on="0"/>
        <pt x="340" y="-6" on="1"/>
        <pt x="311" y="67" on="0"/>
        <pt x="252" y="211" on="0"/>
        <pt x="195" y="346" on="0"/>
        <pt x="142" y="469" on="0"/>
        <pt x="118" y="521" on="1"/>
        <pt x="101" y="558" on="0"/>
        <pt x="80" y="602" on="0"/>
        <pt x="62" y="626" on="0"/>
        <pt x="44" y="634" on="0"/>
        <pt x="30" y="636" on="1"/>
        <pt x="27" y="648" on="0"/>
        <pt x="25" y="671" on="0"/>
        <pt x="25" y="679" on="1"/>
        <pt x="45" y="677" on="0"/>
        <pt x="114" y="676" on="0"/>
        <pt x="146" y="676" on="1"/>
        <pt x="210" y="676" on="0"/>
        <pt x="267" y="679" on="1"/>
        <pt x="267" y="659" on="0"/>
        <pt x="262" y="636" on="1"/>
        <pt x="238" y="634" on="0"/>
        <pt x="209" y="625" on="0"/>
        <pt x="200" y="602" on="0"/>
        <pt x="210" y="561" on="0"/>
      </contour>
    </TTGlyph>
    <TTGlyph name="W" xMin="25" yMin="-9" xMax="978" yMax="684">
      <contour>
        <pt x="25" y="679" on="1"/>
        <pt x="49" y="677" on="0"/>
        <pt x="115" y="676" on="0"/>
        <pt x="138" y="676" on="1"/>
        <pt x="165" y="676" on="1"/>
        <pt x="180" y="676" on="0"/>
        <pt x="213" y="677" on="0"/>
        <pt x="245" y="678" on="0"/>
        <pt x="259" y="679" on="1"/>
        <pt x="259" y="671" on="0"/>
        <pt x="257" y="648" on="0"/>
        <pt x="254" y="636" on="1"/>
        <pt x="228" y="634" on="0"/>
        <pt x="198" y="627" on="0"/>
        <pt x="187" y="606" on="0"/>
        <pt x="195" y="566" on="0"/>
        <pt x="207" y="533" on="1"/>
        <pt x="223" y="487" on="0"/>
        <pt x="259" y="383" on="0"/>
        <pt x="295" y="276" on="0"/>
        <pt x="312" y="223" on="1"/>
        <pt x="322" y="191" on="0"/>
        <pt x="332" y="161" on="1"/>
        <pt x="503" y="679" on="1"/>
        <pt x="511" y="682" on="0"/>
        <pt x="531" y="684" on="0"/>
        <pt x="547" y="684" on="1"/>
        <pt x="572" y="619" on="0"/>
        <pt x="627" y="478" on="0"/>
        <pt x="681" y="334" on="0"/>
        <pt x="707" y="263" on="1"/>
        <pt x="726" y="211" on="0"/>
        <pt x="744" y="162" on="1"/>
        <pt x="841" y="494" on="1"/>
        <pt x="852" y="532" on="0"/>
        <pt x="858" y="583" on="0"/>
        <pt x="847" y="616" on="0"/>
        <pt x="817" y="633" on="0"/>
        <pt x="793" y="636" on="1"/>
        <pt x="789" y="646" on="0"/>
        <pt x="786" y="671" on="0"/>
        <pt x="786" y="679" on="1"/>
        <pt x="828" y="676" on="0"/>
        <pt x="883" y="676" on="1"/>
        <pt x="906" y="676" on="0"/>
        <pt x="958" y="677" on="0"/>
        <pt x="978" y="679" on="1"/>
        <pt x="978" y="669" on="0"/>
        <pt x="975" y="647" on="0"/>
        <pt x="971" y="636" on="1"/>
        <pt x="958" y="633" on="0"/>
        <pt x="938" y="618" on="0"/>
        <pt x="919" y="586" on="0"/>
        <pt x="899" y="533" on="0"/>
        <pt x="887" y="491" on="1"/>
        <pt x="741" y="-3" on="1"/>
        <pt x="724" y="-9" on="0"/>
        <pt x="701" y="-9" on="1"/>
        <pt x="678" y="55" on="0"/>
        <pt x="626" y="193" on="0"/>
        <pt x="573" y="333" on="0"/>
        <pt x="546" y="402" on="1"/>
        <pt x="522" y="462" on="0"/>
        <pt x="500" y="519" on="1"/>
        <pt x="330" y="-3" on="1"/>
        <pt x="322" y="-6" on="0"/>
        <pt x="298" y="-9" on="0"/>
        <pt x="287" y="-9" on="1"/>
        <pt x="244" y="125" on="0"/>
        <pt x="155" y="389" on="0"/>
        <pt x="109" y="521" on="1"/>
        <pt x="95" y="561" on="0"/>
        <pt x="77" y="606" on="0"/>
        <pt x="61" y="628" on="0"/>
        <pt x="43" y="634" on="0"/>
        <pt x="30" y="636" on="1"/>
        <pt x="27" y="646" on="0"/>
        <pt x="25" y="668" on="0"/>
      </contour>
    </TTGlyph>
    <TTGlyph name="X" xMin="28" yMin="-3" xMax="615" yMax="679">
      <contour>
        <pt x="267" y="529" on="1"/>
        <pt x="309" y="465" on="0"/>
        <pt x="348" y="403" on="1"/>
        <pt x="422" y="518" on="1"/>
        <pt x="442" y="550" on="0"/>
        <pt x="460" y="593" on="0"/>
        <pt x="455" y="620" on="0"/>
        <pt x="430" y="633" on="0"/>
        <pt x="407" y="636" on="1"/>
        <pt x="404" y="647" on="0"/>
        <pt x="402" y="671" on="0"/>
        <pt x="402" y="679" on="1"/>
        <pt x="427" y="677" on="0"/>
        <pt x="481" y="676" on="0"/>
        <pt x="504" y="676" on="1"/>
        <pt x="527" y="676" on="0"/>
        <pt x="584" y="677" on="0"/>
        <pt x="603" y="679" on="1"/>
        <pt x="603" y="669" on="0"/>
        <pt x="602" y="647" on="0"/>
        <pt x="599" y="636" on="1"/>
        <pt x="587" y="633" on="0"/>
        <pt x="565" y="622" on="0"/>
        <pt x="539" y="597" on="0"/>
        <pt x="506" y="555" on="0"/>
        <pt x="484" y="521" on="1"/>
        <pt x="377" y="358" on="1"/>
        <pt x="381" y="350" on="0"/>
        <pt x="386" y="343" on="1"/>
        <pt x="444" y="251" on="0"/>
        <pt x="500" y="157" on="1"/>
        <pt x="521" y="122" on="0"/>
        <pt x="551" y="78" on="0"/>
        <pt x="576" y="53" on="0"/>
        <pt x="597" y="42" on="0"/>
        <pt x="609" y="40" on="1"/>
        <pt x="615" y="22" on="0"/>
        <pt x="615" y="-3" on="1"/>
        <pt x="593" y="-1" on="0"/>
        <pt x="524" y="0" on="0"/>
        <pt x="493" y="0" on="1"/>
        <pt x="462" y="0" on="0"/>
        <pt x="395" y="-1" on="0"/>
        <pt x="372" y="-2" on="1"/>
        <pt x="372" y="7" on="0"/>
        <pt x="374" y="29" on="0"/>
        <pt x="376" y="40" on="1"/>
        <pt x="395" y="42" on="0"/>
        <pt x="419" y="51" on="0"/>
        <pt x="425" y="73" on="0"/>
        <pt x="411" y="112" on="0"/>
        <pt x="392" y="144" on="1"/>
        <pt x="350" y="214" on="0"/>
        <pt x="307" y="284" on="1"/>
        <pt x="220" y="155" on="1"/>
        <pt x="182" y="99" on="0"/>
        <pt x="187" y="49" on="0"/>
        <pt x="237" y="40" on="1"/>
        <pt x="240" y="29" on="0"/>
        <pt x="242" y="7" on="0"/>
        <pt x="242" y="-3" on="1"/>
        <pt x="216" y="-1" on="0"/>
        <pt x="160" y="0" on="0"/>
        <pt x="132" y="0" on="1"/>
        <pt x="104" y="0" on="0"/>
        <pt x="48" y="-1" on="0"/>
        <pt x="28" y="-3" on="1"/>
        <pt x="28" y="5" on="0"/>
        <pt x="30" y="31" on="0"/>
        <pt x="34" y="42" on="1"/>
        <pt x="58" y="48" on="0"/>
        <pt x="116" y="93" on="0"/>
        <pt x="153" y="144" on="1"/>
        <pt x="281" y="327" on="1"/>
        <pt x="279" y="330" on="1"/>
        <pt x="221" y="422" on="0"/>
        <pt x="159" y="516" on="1"/>
        <pt x="132" y="556" on="0"/>
        <pt x="101" y="602" on="0"/>
        <pt x="79" y="625" on="0"/>
        <pt x="62" y="633" on="0"/>
        <pt x="50" y="635" on="1"/>
        <pt x="46" y="647" on="0"/>
        <pt x="44" y="668" on="0"/>
        <pt x="44" y="679" on="1"/>
        <pt x="70" y="677" on="0"/>
        <pt x="137" y="676" on="0"/>
        <pt x="166" y="676" on="1"/>
        <pt x="194" y="676" on="0"/>
        <pt x="264" y="677" on="0"/>
        <pt x="287" y="678" on="1"/>
        <pt x="287" y="669" on="0"/>
        <pt x="285" y="647" on="0"/>
        <pt x="283" y="636" on="1"/>
        <pt x="262" y="632" on="0"/>
        <pt x="238" y="619" on="0"/>
        <pt x="233" y="595" on="0"/>
        <pt x="249" y="557" on="0"/>
      </contour>
    </TTGlyph>
    <TTGlyph name="Y" xMin="25" yMin="-3" xMax="605" yMax="678">
      <contour>
        <pt x="366" y="295" on="1"/>
        <pt x="366" y="163" on="1"/>
        <pt x="366" y="123" on="0"/>
        <pt x="371" y="77" on="0"/>
        <pt x="387" y="53" on="0"/>
        <pt x="417" y="43" on="0"/>
        <pt x="443" y="40" on="1"/>
        <pt x="449" y="22" on="0"/>
        <pt x="449" y="-3" on="1"/>
        <pt x="383" y="-1" on="1"/>
        <pt x="350" y="0" on="0"/>
        <pt x="322" y="0" on="1"/>
        <pt x="286" y="0" on="1"/>
        <pt x="267" y="0" on="0"/>
        <pt x="229" y="-1" on="0"/>
        <pt x="196" y="-2" on="0"/>
        <pt x="186" y="-2" on="1"/>
        <pt x="186" y="9" on="0"/>
        <pt x="189" y="31" on="0"/>
        <pt x="192" y="40" on="1"/>
        <pt x="219" y="42" on="0"/>
        <pt x="250" y="51" on="0"/>
        <pt x="267" y="73" on="0"/>
        <pt x="272" y="115" on="0"/>
        <pt x="272" y="150" on="1"/>
        <pt x="272" y="294" on="1"/>
        <pt x="105" y="578" on="1"/>
        <pt x="95" y="594" on="0"/>
        <pt x="80" y="616" on="0"/>
        <pt x="64" y="630" on="0"/>
        <pt x="45" y="636" on="0"/>
        <pt x="31" y="637" on="1"/>
        <pt x="27" y="648" on="0"/>
        <pt x="25" y="667" on="0"/>
        <pt x="25" y="678" on="1"/>
        <pt x="46" y="677" on="0"/>
        <pt x="100" y="676" on="0"/>
        <pt x="129" y="676" on="1"/>
        <pt x="198" y="676" on="1"/>
        <pt x="217" y="676" on="0"/>
        <pt x="251" y="677" on="0"/>
        <pt x="263" y="678" on="1"/>
        <pt x="263" y="667" on="0"/>
        <pt x="261" y="650" on="0"/>
        <pt x="258" y="639" on="1"/>
        <pt x="219" y="635" on="0"/>
        <pt x="208" y="603" on="0"/>
        <pt x="231" y="564" on="1"/>
        <pt x="261" y="512" on="0"/>
        <pt x="295" y="451" on="1"/>
        <pt x="324" y="399" on="0"/>
        <pt x="349" y="349" on="1"/>
        <pt x="373" y="396" on="0"/>
        <pt x="399" y="443" on="1"/>
        <pt x="429" y="499" on="0"/>
        <pt x="455" y="544" on="1"/>
        <pt x="483" y="593" on="0"/>
        <pt x="468" y="631" on="0"/>
        <pt x="428" y="637" on="1"/>
        <pt x="425" y="648" on="0"/>
        <pt x="421" y="667" on="0"/>
        <pt x="421" y="678" on="1"/>
        <pt x="439" y="676" on="0"/>
        <pt x="467" y="676" on="1"/>
        <pt x="519" y="676" on="1"/>
        <pt x="542" y="676" on="0"/>
        <pt x="588" y="677" on="0"/>
        <pt x="605" y="678" on="1"/>
        <pt x="605" y="658" on="0"/>
        <pt x="601" y="639" on="1"/>
        <pt x="587" y="635" on="0"/>
        <pt x="565" y="622" on="0"/>
        <pt x="541" y="598" on="0"/>
        <pt x="515" y="560" on="0"/>
        <pt x="499" y="531" on="1"/>
      </contour>
    </TTGlyph>
    <TTGlyph name="Yacute" xMin="25" yMin="-3" xMax="605" yMax="937">
      <component glyphName="Y" x="0" y="0" flags="0x204"/>
      <component glyphName="acute" x="95" y="215" flags="0x4"/>
    </TTGlyph>
    <TTGlyph name="Z" xMin="58" yMin="-3" xMax="568" yMax="678">
      <contour>
        <pt x="102" y="678" on="1"/>
        <pt x="117" y="678" on="0"/>
        <pt x="179" y="677" on="0"/>
        <pt x="250" y="676" on="0"/>
        <pt x="285" y="676" on="1"/>
        <pt x="440" y="676" on="1"/>
        <pt x="484" y="676" on="0"/>
        <pt x="538" y="678" on="1"/>
        <pt x="543" y="673" on="0"/>
        <pt x="549" y="655" on="0"/>
        <pt x="549" y="645" on="1"/>
        <pt x="456" y="482" on="0"/>
        <pt x="363" y="329" on="1"/>
        <pt x="276" y="184" on="0"/>
        <pt x="185" y="42" on="1"/>
        <pt x="339" y="42" on="1"/>
        <pt x="385" y="42" on="0"/>
        <pt x="446" y="51" on="0"/>
        <pt x="485" y="78" on="0"/>
        <pt x="508" y="128" on="0"/>
        <pt x="516" y="169" on="1"/>
        <pt x="549" y="166" on="0"/>
        <pt x="568" y="152" on="1"/>
        <pt x="560" y="119" on="0"/>
        <pt x="551" y="37" on="0"/>
        <pt x="550" y="-3" on="1"/>
        <pt x="513" y="-2" on="0"/>
        <pt x="448" y="-1" on="0"/>
        <pt x="386" y="0" on="0"/>
        <pt x="354" y="0" on="1"/>
        <pt x="221" y="0" on="1"/>
        <pt x="188" y="0" on="0"/>
        <pt x="129" y="-1" on="0"/>
        <pt x="81" y="-2" on="0"/>
        <pt x="66" y="-3" on="1"/>
        <pt x="62" y="5" on="0"/>
        <pt x="58" y="19" on="0"/>
        <pt x="58" y="29" on="1"/>
        <pt x="154" y="184" on="0"/>
        <pt x="247" y="336" on="1"/>
        <pt x="337" y="484" on="0"/>
        <pt x="425" y="636" on="1"/>
        <pt x="283" y="636" on="1"/>
        <pt x="250" y="636" on="0"/>
        <pt x="203" y="627" on="0"/>
        <pt x="170" y="599" on="0"/>
        <pt x="148" y="549" on="0"/>
        <pt x="140" y="508" on="1"/>
        <pt x="127" y="508" on="0"/>
        <pt x="93" y="512" on="0"/>
        <pt x="83" y="518" on="1"/>
        <pt x="92" y="550" on="0"/>
        <pt x="102" y="637" on="0"/>
      </contour>
    </TTGlyph>
    <TTGlyph name="a" xMin="50" yMin="-9" xMax="453" yMax="467">
      <contour>
        <pt x="306" y="227" on="1"/>
        <pt x="280" y="224" on="0"/>
        <pt x="224" y="213" on="0"/>
        <pt x="178" y="191" on="0"/>
        <pt x="147" y="152" on="0"/>
        <pt x="147" y="119" on="1"/>
        <pt x="147" y="82" on="0"/>
        <pt x="183" y="48" on="0"/>
        <pt x="206" y="48" on="1"/>
        <pt x="222" y="48" on="0"/>
        <pt x="257" y="64" on="0"/>
        <pt x="287" y="98" on="0"/>
        <pt x="306" y="151" on="0"/>
        <pt x="306" y="189" on="1"/>
      </contour>
      <contour>
        <pt x="396" y="149" on="1"/>
        <pt x="396" y="101" on="0"/>
        <pt x="417" y="69" on="0"/>
        <pt x="453" y="69" on="1"/>
        <pt x="453" y="58" on="0"/>
        <pt x="450" y="31" on="0"/>
        <pt x="446" y="22" on="1"/>
        <pt x="420" y="18" on="0"/>
        <pt x="361" y="1" on="0"/>
        <pt x="340" y="-9" on="1"/>
        <pt x="330" y="-5" on="0"/>
        <pt x="315" y="17" on="0"/>
        <pt x="315" y="40" on="1"/>
        <pt x="315" y="55" on="0"/>
        <pt x="317" y="75" on="0"/>
        <pt x="317" y="82" on="1"/>
        <pt x="313" y="69" on="0"/>
        <pt x="298" y="43" on="0"/>
        <pt x="280" y="27" on="1"/>
        <pt x="263" y="12" on="0"/>
        <pt x="214" y="-7" on="0"/>
        <pt x="180" y="-7" on="1"/>
        <pt x="115" y="-7" on="0"/>
        <pt x="50" y="49" on="0"/>
        <pt x="50" y="99" on="1"/>
        <pt x="50" y="148" on="0"/>
        <pt x="107" y="209" on="0"/>
        <pt x="188" y="246" on="0"/>
        <pt x="275" y="263" on="0"/>
        <pt x="306" y="268" on="1"/>
        <pt x="306" y="299" on="0"/>
        <pt x="304" y="339" on="0"/>
        <pt x="300" y="366" on="0"/>
        <pt x="291" y="384" on="0"/>
        <pt x="285" y="392" on="1"/>
        <pt x="261" y="422" on="0"/>
        <pt x="221" y="422" on="1"/>
        <pt x="198" y="422" on="0"/>
        <pt x="166" y="398" on="0"/>
        <pt x="145" y="363" on="0"/>
        <pt x="136" y="323" on="0"/>
        <pt x="135" y="306" on="1"/>
        <pt x="124" y="306" on="0"/>
        <pt x="91" y="309" on="0"/>
        <pt x="83" y="313" on="1"/>
        <pt x="85" y="338" on="0"/>
        <pt x="83" y="399" on="0"/>
        <pt x="78" y="422" on="1"/>
        <pt x="118" y="442" on="0"/>
        <pt x="206" y="467" on="0"/>
        <pt x="253" y="467" on="1"/>
        <pt x="287" y="467" on="0"/>
        <pt x="335" y="446" on="0"/>
        <pt x="354" y="428" on="1"/>
        <pt x="367" y="415" on="0"/>
        <pt x="383" y="385" on="0"/>
        <pt x="392" y="344" on="0"/>
        <pt x="396" y="292" on="0"/>
        <pt x="396" y="256" on="1"/>
      </contour>
    </TTGlyph>
    <TTGlyph name="aacute" xMin="50" yMin="-9" xMax="453" yMax="722">
      <component glyphName="a" x="0" y="0" flags="0x204"/>
      <component glyphName="acute" x="-13" y="0" flags="0x4"/>
    </TTGlyph>
    <TTGlyph name="acircumflex" xMin="50" yMin="-9" xMax="453" yMax="709">
      <component glyphName="a" x="0" y="0" flags="0x204"/>
      <component glyphName="circumflex" x="-14" y="0" flags="0x4"/>
    </TTGlyph>
    <TTGlyph name="acute" xMin="224" yMin="530" xMax="392" yMax="722">
      <contour>
        <pt x="224" y="537" on="1"/>
        <pt x="248" y="587" on="0"/>
        <pt x="279" y="671" on="0"/>
        <pt x="289" y="709" on="1"/>
        <pt x="311" y="717" on="0"/>
        <pt x="348" y="722" on="0"/>
        <pt x="363" y="721" on="1"/>
        <pt x="372" y="720" on="0"/>
        <pt x="387" y="716" on="0"/>
        <pt x="392" y="714" on="1"/>
        <pt x="359" y="676" on="0"/>
        <pt x="289" y="577" on="0"/>
        <pt x="260" y="531" on="1"/>
        <pt x="251" y="530" on="0"/>
        <pt x="232" y="533" on="0"/>
      </contour>
    </TTGlyph>
    <TTGlyph name="adieresis" xMin="50" yMin="-9" xMax="453" yMax="640">
      <component glyphName="a" x="0" y="0" flags="0x204"/>
      <component glyphName="dieresis" x="-52" y="0" flags="0x4"/>
    </TTGlyph>
    <TTGlyph name="ae" xMin="38" yMin="-6" xMax="649" yMax="467">
      <contour>
        <pt x="492" y="240" on="1"/>
        <pt x="435" y="237" on="0"/>
        <pt x="382" y="232" on="1"/>
        <pt x="382" y="230" on="1"/>
        <pt x="382" y="200" on="0"/>
        <pt x="394" y="135" on="0"/>
        <pt x="423" y="82" on="0"/>
        <pt x="468" y="47" on="0"/>
        <pt x="501" y="47" on="1"/>
        <pt x="550" y="47" on="0"/>
        <pt x="607" y="85" on="0"/>
        <pt x="624" y="108" on="1"/>
        <pt x="631" y="103" on="0"/>
        <pt x="647" y="86" on="0"/>
        <pt x="649" y="78" on="1"/>
        <pt x="616" y="33" on="0"/>
        <pt x="531" y="-6" on="0"/>
        <pt x="479" y="-6" on="1"/>
        <pt x="429" y="-6" on="0"/>
        <pt x="358" y="36" on="0"/>
        <pt x="334" y="69" on="1"/>
        <pt x="323" y="85" on="0"/>
        <pt x="314" y="102" on="1"/>
        <pt x="313" y="97" on="0"/>
        <pt x="311" y="92" on="1"/>
        <pt x="303" y="67" on="0"/>
        <pt x="293" y="53" on="1"/>
        <pt x="254" y="-6" on="0"/>
        <pt x="171" y="-6" on="1"/>
        <pt x="105" y="-6" on="0"/>
        <pt x="38" y="47" on="0"/>
        <pt x="38" y="97" on="1"/>
        <pt x="38" y="146" on="0"/>
        <pt x="90" y="209" on="0"/>
        <pt x="168" y="246" on="0"/>
        <pt x="213" y="255" on="1"/>
        <pt x="254" y="263" on="0"/>
        <pt x="289" y="268" on="1"/>
        <pt x="289" y="321" on="1"/>
        <pt x="289" y="372" on="0"/>
        <pt x="238" y="422" on="0"/>
        <pt x="205" y="422" on="1"/>
        <pt x="181" y="422" on="0"/>
        <pt x="151" y="400" on="0"/>
        <pt x="131" y="367" on="0"/>
        <pt x="122" y="325" on="0"/>
        <pt x="119" y="306" on="1"/>
        <pt x="108" y="306" on="0"/>
        <pt x="74" y="309" on="0"/>
        <pt x="67" y="313" on="1"/>
        <pt x="69" y="338" on="0"/>
        <pt x="67" y="399" on="0"/>
        <pt x="62" y="422" on="1"/>
        <pt x="104" y="442" on="0"/>
        <pt x="186" y="467" on="0"/>
        <pt x="237" y="467" on="1"/>
        <pt x="277" y="467" on="0"/>
        <pt x="308" y="448" on="1"/>
        <pt x="332" y="433" on="0"/>
        <pt x="350" y="404" on="1"/>
        <pt x="374" y="435" on="0"/>
        <pt x="404" y="449" on="1"/>
        <pt x="444" y="467" on="0"/>
        <pt x="485" y="467" on="1"/>
        <pt x="524" y="467" on="0"/>
        <pt x="583" y="433" on="0"/>
        <pt x="624" y="380" on="0"/>
        <pt x="645" y="315" on="0"/>
        <pt x="647" y="283" on="1"/>
        <pt x="645" y="273" on="0"/>
        <pt x="638" y="253" on="0"/>
        <pt x="631" y="245" on="1"/>
        <pt x="558" y="243" on="0"/>
      </contour>
      <contour>
        <pt x="263" y="87" on="1"/>
        <pt x="289" y="127" on="0"/>
        <pt x="289" y="218" on="1"/>
        <pt x="289" y="223" on="1"/>
        <pt x="213" y="215" on="0"/>
        <pt x="173" y="194" on="1"/>
        <pt x="131" y="171" on="0"/>
        <pt x="131" y="116" on="1"/>
        <pt x="131" y="95" on="0"/>
        <pt x="144" y="69" on="0"/>
        <pt x="163" y="53" on="0"/>
        <pt x="186" y="47" on="0"/>
        <pt x="197" y="47" on="1"/>
        <pt x="237" y="47" on="0"/>
      </contour>
      <contour>
        <pt x="382" y="277" on="1"/>
        <pt x="417" y="281" on="0"/>
        <pt x="454" y="283" on="1"/>
        <pt x="498" y="286" on="0"/>
        <pt x="550" y="288" on="1"/>
        <pt x="550" y="309" on="0"/>
        <pt x="541" y="356" on="0"/>
        <pt x="520" y="396" on="0"/>
        <pt x="486" y="422" on="0"/>
        <pt x="460" y="422" on="1"/>
        <pt x="420" y="422" on="0"/>
        <pt x="382" y="348" on="0"/>
        <pt x="382" y="287" on="1"/>
      </contour>
    </TTGlyph>
    <TTGlyph name="agrave" xMin="50" yMin="-9" xMax="453" yMax="716">
      <component glyphName="a" x="0" y="0" flags="0x204"/>
      <component glyphName="grave" x="126" y="0" flags="0x4"/>
    </TTGlyph>
    <TTGlyph name="ampersand" xMin="54" yMin="-10" xMax="687" yMax="717">
      <contour>
        <pt x="572" y="102" on="1"/>
        <pt x="584" y="89" on="0"/>
        <pt x="607" y="72" on="0"/>
        <pt x="632" y="62" on="0"/>
        <pt x="664" y="56" on="0"/>
        <pt x="687" y="55" on="1"/>
        <pt x="687" y="45" on="0"/>
        <pt x="685" y="21" on="0"/>
        <pt x="681" y="10" on="1"/>
        <pt x="667" y="10" on="0"/>
        <pt x="627" y="7" on="0"/>
        <pt x="585" y="2" on="0"/>
        <pt x="547" y="-5" on="0"/>
        <pt x="535" y="-9" on="1"/>
        <pt x="502" y="35" on="0"/>
        <pt x="468" y="75" on="1"/>
        <pt x="462" y="81" on="0"/>
        <pt x="456" y="88" on="1"/>
        <pt x="416" y="39" on="0"/>
        <pt x="374" y="16" on="1"/>
        <pt x="327" y="-10" on="0"/>
        <pt x="268" y="-10" on="1"/>
        <pt x="208" y="-10" on="0"/>
        <pt x="126" y="29" on="0"/>
        <pt x="76" y="92" on="0"/>
        <pt x="54" y="170" on="0"/>
        <pt x="54" y="208" on="1"/>
        <pt x="54" y="246" on="0"/>
        <pt x="77" y="312" on="0"/>
        <pt x="116" y="368" on="0"/>
        <pt x="143" y="391" on="1"/>
        <pt x="162" y="407" on="0"/>
        <pt x="182" y="421" on="1"/>
        <pt x="174" y="435" on="1"/>
        <pt x="159" y="467" on="0"/>
        <pt x="142" y="532" on="0"/>
        <pt x="142" y="568" on="1"/>
        <pt x="142" y="596" on="0"/>
        <pt x="164" y="650" on="0"/>
        <pt x="206" y="692" on="0"/>
        <pt x="267" y="717" on="0"/>
        <pt x="306" y="717" on="1"/>
        <pt x="349" y="717" on="0"/>
        <pt x="410" y="700" on="0"/>
        <pt x="442" y="682" on="1"/>
        <pt x="438" y="656" on="0"/>
        <pt x="435" y="595" on="0"/>
        <pt x="437" y="565" on="1"/>
        <pt x="425" y="560" on="0"/>
        <pt x="396" y="557" on="0"/>
        <pt x="384" y="557" on="1"/>
        <pt x="380" y="621" on="0"/>
        <pt x="341" y="673" on="0"/>
        <pt x="300" y="673" on="1"/>
        <pt x="265" y="673" on="0"/>
        <pt x="221" y="628" on="0"/>
        <pt x="221" y="587" on="1"/>
        <pt x="221" y="565" on="0"/>
        <pt x="229" y="525" on="0"/>
        <pt x="250" y="481" on="0"/>
        <pt x="286" y="427" on="0"/>
        <pt x="315" y="391" on="1"/>
        <pt x="331" y="371" on="0"/>
        <pt x="371" y="323" on="0"/>
        <pt x="430" y="256" on="0"/>
        <pt x="471" y="210" on="1"/>
        <pt x="478" y="203" on="0"/>
        <pt x="484" y="196" on="1"/>
        <pt x="509" y="235" on="0"/>
        <pt x="523" y="266" on="1"/>
        <pt x="539" y="301" on="0"/>
        <pt x="547" y="334" on="1"/>
        <pt x="557" y="373" on="0"/>
        <pt x="524" y="408" on="0"/>
        <pt x="472" y="419" on="1"/>
        <pt x="469" y="429" on="0"/>
        <pt x="465" y="451" on="0"/>
        <pt x="465" y="461" on="1"/>
        <pt x="486" y="459" on="0"/>
        <pt x="542" y="458" on="0"/>
        <pt x="567" y="458" on="1"/>
        <pt x="592" y="458" on="0"/>
        <pt x="650" y="459" on="0"/>
        <pt x="667" y="461" on="1"/>
        <pt x="667" y="452" on="0"/>
        <pt x="665" y="429" on="0"/>
        <pt x="663" y="420" on="1"/>
        <pt x="632" y="409" on="0"/>
        <pt x="604" y="373" on="0"/>
        <pt x="594" y="338" on="1"/>
        <pt x="581" y="293" on="0"/>
        <pt x="561" y="249" on="1"/>
        <pt x="544" y="211" on="0"/>
        <pt x="516" y="161" on="1"/>
        <pt x="542" y="134" on="0"/>
      </contour>
      <contour>
        <pt x="281" y="67" on="1"/>
        <pt x="326" y="67" on="0"/>
        <pt x="362" y="83" on="1"/>
        <pt x="392" y="97" on="0"/>
        <pt x="423" y="126" on="1"/>
        <pt x="412" y="140" on="0"/>
        <pt x="400" y="153" on="1"/>
        <pt x="367" y="192" on="0"/>
        <pt x="299" y="267" on="0"/>
        <pt x="265" y="307" on="1"/>
        <pt x="236" y="341" on="0"/>
        <pt x="213" y="372" on="1"/>
        <pt x="201" y="388" on="1"/>
        <pt x="178" y="363" on="0"/>
        <pt x="160" y="332" on="1"/>
        <pt x="138" y="293" on="0"/>
        <pt x="138" y="237" on="1"/>
        <pt x="138" y="195" on="0"/>
        <pt x="161" y="132" on="0"/>
        <pt x="200" y="89" on="0"/>
        <pt x="252" y="67" on="0"/>
      </contour>
    </TTGlyph>
    <TTGlyph name="apostrophe" xMin="60" yMin="437" xMax="199" yMax="719">
      <component glyphName="comma" x="0" y="622" flags="0x204"/>
    </TTGlyph>
    <TTGlyph name="aring" xMin="50" yMin="-9" xMax="453" yMax="708">
      <component glyphName="a" x="0" y="0" flags="0x204"/>
      <component glyphName="ring" x="-67" y="0" flags="0x4"/>
    </TTGlyph>
    <TTGlyph name="arrow" xMin="60" yMin="107" xMax="599" yMax="431">
      <contour>
        <pt x="426" y="295" on="1"/>
        <pt x="413" y="321" on="0"/>
        <pt x="389" y="358" on="0"/>
        <pt x="379" y="371" on="1"/>
        <pt x="364" y="390" on="0"/>
        <pt x="364" y="405" on="1"/>
        <pt x="364" y="414" on="0"/>
        <pt x="375" y="426" on="0"/>
        <pt x="386" y="431" on="1"/>
        <pt x="406" y="411" on="0"/>
        <pt x="459" y="368" on="0"/>
        <pt x="516" y="329" on="0"/>
        <pt x="569" y="297" on="0"/>
        <pt x="589" y="288" on="1"/>
        <pt x="595" y="278" on="0"/>
        <pt x="599" y="260" on="0"/>
        <pt x="599" y="249" on="1"/>
        <pt x="535" y="217" on="0"/>
        <pt x="446" y="152" on="0"/>
        <pt x="405" y="114" on="1"/>
        <pt x="398" y="107" on="0"/>
        <pt x="385" y="107" on="1"/>
        <pt x="372" y="107" on="0"/>
        <pt x="362" y="117" on="1"/>
        <pt x="382" y="143" on="0"/>
        <pt x="415" y="205" on="0"/>
        <pt x="426" y="233" on="1"/>
        <pt x="389" y="233" on="0"/>
        <pt x="291" y="231" on="0"/>
        <pt x="189" y="228" on="0"/>
        <pt x="94" y="224" on="0"/>
        <pt x="60" y="223" on="1"/>
        <pt x="60" y="240" on="0"/>
        <pt x="68" y="281" on="0"/>
        <pt x="76" y="295" on="1"/>
      </contour>
    </TTGlyph>
    <TTGlyph name="asciicircum" xMin="43" yMin="383" xMax="508" yMax="696">
      <contour>
        <pt x="277" y="644" on="1"/>
        <pt x="221" y="578" on="0"/>
        <pt x="113" y="443" on="0"/>
        <pt x="70" y="383" on="1"/>
        <pt x="59" y="393" on="0"/>
        <pt x="47" y="414" on="0"/>
        <pt x="43" y="430" on="1"/>
        <pt x="249" y="685" on="1"/>
        <pt x="260" y="692" on="0"/>
        <pt x="291" y="696" on="0"/>
        <pt x="304" y="694" on="1"/>
        <pt x="324" y="663" on="0"/>
        <pt x="376" y="588" on="0"/>
        <pt x="430" y="510" on="0"/>
        <pt x="485" y="435" on="0"/>
        <pt x="508" y="404" on="1"/>
        <pt x="499" y="396" on="0"/>
        <pt x="466" y="391" on="0"/>
        <pt x="452" y="394" on="1"/>
      </contour>
    </TTGlyph>
    <TTGlyph name="asciitilde" xMin="42" yMin="213" xMax="543" yMax="335">
      <contour>
        <pt x="63" y="213" on="1"/>
        <pt x="45" y="221" on="0"/>
        <pt x="42" y="239" on="1"/>
        <pt x="83" y="294" on="0"/>
        <pt x="157" y="335" on="0"/>
        <pt x="192" y="335" on="1"/>
        <pt x="220" y="335" on="0"/>
        <pt x="274" y="317" on="0"/>
        <pt x="327" y="296" on="0"/>
        <pt x="381" y="278" on="0"/>
        <pt x="408" y="278" on="1"/>
        <pt x="433" y="278" on="0"/>
        <pt x="484" y="298" on="0"/>
        <pt x="511" y="323" on="1"/>
        <pt x="522" y="322" on="0"/>
        <pt x="535" y="317" on="0"/>
        <pt x="543" y="310" on="1"/>
        <pt x="501" y="256" on="0"/>
        <pt x="429" y="216" on="0"/>
        <pt x="397" y="216" on="1"/>
        <pt x="370" y="216" on="0"/>
        <pt x="319" y="235" on="0"/>
        <pt x="268" y="259" on="0"/>
        <pt x="216" y="278" on="0"/>
        <pt x="188" y="278" on="1"/>
        <pt x="159" y="278" on="0"/>
        <pt x="98" y="250" on="0"/>
      </contour>
    </TTGlyph>
    <TTGlyph name="asterisk" xMin="60" yMin="350" xMax="384" yMax="679">
      <contour>
        <pt x="284" y="664" on="1"/>
        <pt x="271" y="635" on="0"/>
        <pt x="245" y="564" on="0"/>
        <pt x="233" y="529" on="1"/>
        <pt x="269" y="535" on="0"/>
        <pt x="335" y="550" on="0"/>
        <pt x="373" y="561" on="1"/>
        <pt x="379" y="548" on="0"/>
        <pt x="384" y="510" on="0"/>
        <pt x="381" y="494" on="1"/>
        <pt x="349" y="496" on="0"/>
        <pt x="273" y="499" on="0"/>
        <pt x="236" y="500" on="1"/>
        <pt x="253" y="467" on="0"/>
        <pt x="288" y="410" on="0"/>
        <pt x="309" y="377" on="1"/>
        <pt x="297" y="366" on="0"/>
        <pt x="268" y="352" on="0"/>
        <pt x="248" y="350" on="1"/>
        <pt x="241" y="380" on="0"/>
        <pt x="220" y="452" on="0"/>
        <pt x="209" y="487" on="1"/>
        <pt x="183" y="461" on="0"/>
        <pt x="140" y="411" on="0"/>
        <pt x="116" y="381" on="1"/>
        <pt x="103" y="388" on="0"/>
        <pt x="76" y="415" on="0"/>
        <pt x="71" y="431" on="1"/>
        <pt x="97" y="447" on="0"/>
        <pt x="160" y="489" on="0"/>
        <pt x="190" y="511" on="1"/>
        <pt x="158" y="527" on="0"/>
        <pt x="96" y="552" on="0"/>
        <pt x="60" y="566" on="1"/>
        <pt x="63" y="580" on="0"/>
        <pt x="79" y="614" on="0"/>
        <pt x="93" y="624" on="1"/>
        <pt x="116" y="604" on="0"/>
        <pt x="176" y="558" on="0"/>
        <pt x="205" y="536" on="1"/>
        <pt x="210" y="572" on="0"/>
        <pt x="215" y="638" on="0"/>
        <pt x="217" y="677" on="1"/>
        <pt x="231" y="679" on="0"/>
        <pt x="270" y="673" on="0"/>
      </contour>
    </TTGlyph>
    <TTGlyph name="at" xMin="126" yMin="-202" xMax="873" yMax="660">
      <contour>
        <pt x="503" y="467" on="1"/>
        <pt x="532" y="467" on="0"/>
        <pt x="556" y="464" on="1"/>
        <pt x="573" y="462" on="0"/>
        <pt x="594" y="458" on="1"/>
        <pt x="604" y="458" on="0"/>
        <pt x="615" y="460" on="1"/>
        <pt x="630" y="462" on="0"/>
        <pt x="644" y="467" on="1"/>
        <pt x="651" y="465" on="0"/>
        <pt x="659" y="455" on="0"/>
        <pt x="664" y="434" on="0"/>
        <pt x="666" y="399" on="0"/>
        <pt x="666" y="371" on="1"/>
        <pt x="666" y="180" on="1"/>
        <pt x="666" y="143" on="0"/>
        <pt x="668" y="99" on="0"/>
        <pt x="675" y="76" on="0"/>
        <pt x="690" y="69" on="0"/>
        <pt x="702" y="69" on="1"/>
        <pt x="717" y="69" on="0"/>
        <pt x="759" y="105" on="0"/>
        <pt x="797" y="177" on="0"/>
        <pt x="824" y="282" on="0"/>
        <pt x="824" y="351" on="1"/>
        <pt x="824" y="405" on="0"/>
        <pt x="787" y="502" on="0"/>
        <pt x="712" y="576" on="0"/>
        <pt x="601" y="619" on="0"/>
        <pt x="527" y="619" on="1"/>
        <pt x="442" y="619" on="0"/>
        <pt x="315" y="561" on="0"/>
        <pt x="230" y="459" on="0"/>
        <pt x="188" y="319" on="0"/>
        <pt x="188" y="237" on="1"/>
        <pt x="188" y="159" on="0"/>
        <pt x="231" y="16" on="0"/>
        <pt x="319" y="-93" on="0"/>
        <pt x="451" y="-157" on="0"/>
        <pt x="541" y="-157" on="1"/>
        <pt x="624" y="-157" on="0"/>
        <pt x="770" y="-103" on="0"/>
        <pt x="823" y="-43" on="1"/>
        <pt x="848" y="-47" on="0"/>
        <pt x="854" y="-68" on="1"/>
        <pt x="831" y="-100" on="0"/>
        <pt x="762" y="-150" on="0"/>
        <pt x="677" y="-184" on="0"/>
        <pt x="579" y="-202" on="0"/>
        <pt x="527" y="-202" on="1"/>
        <pt x="425" y="-202" on="0"/>
        <pt x="274" y="-138" on="0"/>
        <pt x="175" y="-23" on="0"/>
        <pt x="126" y="135" on="0"/>
        <pt x="126" y="228" on="1"/>
        <pt x="126" y="318" on="0"/>
        <pt x="181" y="475" on="0"/>
        <pt x="286" y="592" on="0"/>
        <pt x="439" y="660" on="0"/>
        <pt x="537" y="660" on="1"/>
        <pt x="621" y="660" on="0"/>
        <pt x="747" y="612" on="0"/>
        <pt x="831" y="530" on="0"/>
        <pt x="873" y="421" on="0"/>
        <pt x="873" y="359" on="1"/>
        <pt x="873" y="278" on="0"/>
        <pt x="831" y="143" on="0"/>
        <pt x="766" y="46" on="0"/>
        <pt x="686" y="-9" on="0"/>
        <pt x="649" y="-9" on="1"/>
        <pt x="610" y="-9" on="0"/>
        <pt x="581" y="43" on="0"/>
        <pt x="581" y="89" on="1"/>
        <pt x="581" y="163" on="1"/>
        <pt x="572" y="130" on="0"/>
        <pt x="560" y="103" on="1"/>
        <pt x="538" y="52" on="0"/>
        <pt x="477" y="-9" on="0"/>
        <pt x="440" y="-9" on="1"/>
        <pt x="384" y="-9" on="0"/>
        <pt x="316" y="85" on="0"/>
        <pt x="316" y="198" on="1"/>
        <pt x="316" y="257" on="0"/>
        <pt x="343" y="356" on="0"/>
        <pt x="393" y="427" on="0"/>
        <pt x="461" y="467" on="0"/>
      </contour>
      <contour>
        <pt x="585" y="368" on="1"/>
        <pt x="586" y="381" on="0"/>
        <pt x="586" y="392" on="1"/>
        <pt x="567" y="406" on="0"/>
        <pt x="545" y="413" on="1"/>
        <pt x="520" y="422" on="0"/>
        <pt x="497" y="422" on="1"/>
        <pt x="449" y="422" on="0"/>
        <pt x="406" y="331" on="0"/>
        <pt x="406" y="228" on="1"/>
        <pt x="406" y="141" on="0"/>
        <pt x="442" y="73" on="0"/>
        <pt x="466" y="73" on="1"/>
        <pt x="478" y="73" on="0"/>
        <pt x="514" y="106" on="0"/>
        <pt x="549" y="173" on="0"/>
        <pt x="564" y="223" on="1"/>
        <pt x="578" y="270" on="0"/>
        <pt x="584" y="332" on="1"/>
        <pt x="585" y="350" on="0"/>
      </contour>
    </TTGlyph>
    <TTGlyph name="atilde" xMin="50" yMin="-9" xMax="453" yMax="627">
      <component glyphName="a" x="0" y="0" flags="0x204"/>
      <component glyphName="tilde" x="-22" y="0" flags="0x4"/>
    </TTGlyph>
    <TTGlyph name="b" xMin="10" yMin="-9" xMax="507" yMax="717">
      <contour>
        <pt x="258" y="-9" on="1"/>
        <pt x="189" y="-9" on="0"/>
        <pt x="93" y="30" on="0"/>
        <pt x="63" y="59" on="1"/>
        <pt x="73" y="72" on="0"/>
        <pt x="85" y="127" on="0"/>
        <pt x="85" y="186" on="1"/>
        <pt x="85" y="575" on="1"/>
        <pt x="85" y="593" on="0"/>
        <pt x="81" y="619" on="0"/>
        <pt x="65" y="637" on="0"/>
        <pt x="35" y="646" on="0"/>
        <pt x="10" y="646" on="1"/>
        <pt x="10" y="657" on="0"/>
        <pt x="14" y="675" on="0"/>
        <pt x="19" y="683" on="1"/>
        <pt x="30" y="683" on="0"/>
        <pt x="68" y="689" on="0"/>
        <pt x="108" y="698" on="0"/>
        <pt x="144" y="711" on="0"/>
        <pt x="153" y="717" on="1"/>
        <pt x="162" y="714" on="0"/>
        <pt x="175" y="696" on="0"/>
        <pt x="175" y="677" on="1"/>
        <pt x="175" y="416" on="1"/>
        <pt x="175" y="398" on="0"/>
        <pt x="172" y="381" on="1"/>
        <pt x="171" y="377" on="0"/>
        <pt x="170" y="371" on="1"/>
        <pt x="178" y="386" on="0"/>
        <pt x="183" y="393" on="1"/>
        <pt x="190" y="404" on="0"/>
        <pt x="215" y="430" on="0"/>
        <pt x="251" y="452" on="0"/>
        <pt x="295" y="467" on="0"/>
        <pt x="320" y="467" on="1"/>
        <pt x="408" y="467" on="0"/>
        <pt x="507" y="361" on="0"/>
        <pt x="507" y="245" on="1"/>
        <pt x="507" y="192" on="0"/>
        <pt x="471" y="100" on="0"/>
        <pt x="406" y="31" on="0"/>
        <pt x="314" y="-9" on="0"/>
      </contour>
      <contour>
        <pt x="175" y="72" on="1"/>
        <pt x="189" y="60" on="0"/>
        <pt x="204" y="51" on="1"/>
        <pt x="228" y="37" on="0"/>
        <pt x="263" y="37" on="1"/>
        <pt x="284" y="37" on="0"/>
        <pt x="334" y="53" on="0"/>
        <pt x="378" y="97" on="0"/>
        <pt x="408" y="172" on="0"/>
        <pt x="408" y="232" on="1"/>
        <pt x="408" y="280" on="0"/>
        <pt x="385" y="346" on="0"/>
        <pt x="352" y="386" on="0"/>
        <pt x="312" y="404" on="0"/>
        <pt x="296" y="404" on="1"/>
        <pt x="274" y="404" on="0"/>
        <pt x="231" y="384" on="0"/>
        <pt x="196" y="338" on="0"/>
        <pt x="175" y="265" on="0"/>
        <pt x="175" y="213" on="1"/>
      </contour>
    </TTGlyph>
    <TTGlyph name="backslash" xMin="25" yMin="-5" xMax="341" yMax="713">
      <contour>
        <pt x="25" y="709" on="1"/>
        <pt x="30" y="711" on="0"/>
        <pt x="43" y="713" on="0"/>
        <pt x="51" y="713" on="1"/>
        <pt x="70" y="713" on="0"/>
        <pt x="78" y="709" on="1"/>
        <pt x="341" y="0" on="1"/>
        <pt x="333" y="-3" on="0"/>
        <pt x="296" y="-5" on="0"/>
        <pt x="289" y="-3" on="1"/>
      </contour>
    </TTGlyph>
    <TTGlyph name="bar" xMin="62" yMin="-241" xMax="112" yMax="712">
      <contour>
        <pt x="62" y="712" on="1"/>
        <pt x="77" y="712" on="0"/>
        <pt x="101" y="708" on="0"/>
        <pt x="112" y="701" on="1"/>
        <pt x="112" y="606" on="1"/>
        <pt x="112" y="553" on="0"/>
        <pt x="111" y="432" on="0"/>
        <pt x="111" y="366" on="1"/>
        <pt x="111" y="101" on="1"/>
        <pt x="111" y="35" on="0"/>
        <pt x="112" y="-88" on="0"/>
        <pt x="112" y="-142" on="1"/>
        <pt x="112" y="-241" on="1"/>
        <pt x="101" y="-241" on="0"/>
        <pt x="69" y="-235" on="0"/>
        <pt x="62" y="-230" on="1"/>
      </contour>
    </TTGlyph>
    <TTGlyph name="braceleft" xMin="35" yMin="-271" xMax="292" yMax="741">
      <contour>
        <pt x="277" y="741" on="1"/>
        <pt x="286" y="727" on="0"/>
        <pt x="286" y="714" on="1"/>
        <pt x="235" y="697" on="0"/>
        <pt x="200" y="632" on="0"/>
        <pt x="200" y="591" on="1"/>
        <pt x="200" y="568" on="0"/>
        <pt x="207" y="520" on="0"/>
        <pt x="211" y="495" on="1"/>
        <pt x="219" y="446" on="1"/>
        <pt x="223" y="422" on="0"/>
        <pt x="223" y="399" on="1"/>
        <pt x="223" y="373" on="0"/>
        <pt x="213" y="326" on="0"/>
        <pt x="185" y="286" on="0"/>
        <pt x="135" y="255" on="0"/>
        <pt x="96" y="246" on="1"/>
        <pt x="135" y="236" on="0"/>
        <pt x="184" y="204" on="0"/>
        <pt x="213" y="162" on="0"/>
        <pt x="224" y="113" on="0"/>
        <pt x="224" y="86" on="1"/>
        <pt x="224" y="37" on="0"/>
        <pt x="204" y="-66" on="0"/>
        <pt x="204" y="-113" on="1"/>
        <pt x="204" y="-135" on="0"/>
        <pt x="212" y="-174" on="0"/>
        <pt x="232" y="-208" on="0"/>
        <pt x="266" y="-234" on="0"/>
        <pt x="292" y="-242" on="1"/>
        <pt x="292" y="-252" on="0"/>
        <pt x="291" y="-265" on="0"/>
        <pt x="286" y="-271" on="1"/>
        <pt x="235" y="-255" on="0"/>
        <pt x="172" y="-210" on="0"/>
        <pt x="136" y="-156" on="0"/>
        <pt x="124" y="-95" on="0"/>
        <pt x="124" y="-63" on="1"/>
        <pt x="124" y="-25" on="0"/>
        <pt x="133" y="49" on="0"/>
        <pt x="133" y="84" on="1"/>
        <pt x="133" y="108" on="0"/>
        <pt x="125" y="152" on="0"/>
        <pt x="104" y="189" on="0"/>
        <pt x="65" y="218" on="0"/>
        <pt x="35" y="228" on="1"/>
        <pt x="35" y="237" on="0"/>
        <pt x="36" y="251" on="0"/>
        <pt x="40" y="260" on="1"/>
        <pt x="69" y="270" on="0"/>
        <pt x="106" y="297" on="0"/>
        <pt x="127" y="332" on="0"/>
        <pt x="135" y="372" on="0"/>
        <pt x="135" y="394" on="1"/>
        <pt x="135" y="430" on="0"/>
        <pt x="123" y="510" on="0"/>
        <pt x="123" y="549" on="1"/>
        <pt x="123" y="578" on="0"/>
        <pt x="135" y="633" on="0"/>
        <pt x="169" y="683" on="0"/>
        <pt x="229" y="725" on="0"/>
      </contour>
    </TTGlyph>
    <TTGlyph name="braceright" xMin="33" yMin="-271" xMax="290" yMax="741">
      <contour>
        <pt x="48" y="741" on="1"/>
        <pt x="96" y="725" on="0"/>
        <pt x="156" y="683" on="0"/>
        <pt x="190" y="633" on="0"/>
        <pt x="202" y="578" on="0"/>
        <pt x="202" y="549" on="1"/>
        <pt x="202" y="510" on="0"/>
        <pt x="190" y="430" on="0"/>
        <pt x="190" y="394" on="1"/>
        <pt x="190" y="372" on="0"/>
        <pt x="198" y="332" on="0"/>
        <pt x="219" y="297" on="0"/>
        <pt x="256" y="270" on="0"/>
        <pt x="285" y="260" on="1"/>
        <pt x="289" y="251" on="0"/>
        <pt x="290" y="237" on="0"/>
        <pt x="290" y="228" on="1"/>
        <pt x="260" y="218" on="0"/>
        <pt x="221" y="189" on="0"/>
        <pt x="200" y="152" on="0"/>
        <pt x="192" y="108" on="0"/>
        <pt x="192" y="84" on="1"/>
        <pt x="192" y="49" on="0"/>
        <pt x="201" y="-25" on="0"/>
        <pt x="201" y="-63" on="1"/>
        <pt x="201" y="-95" on="0"/>
        <pt x="189" y="-156" on="0"/>
        <pt x="153" y="-210" on="0"/>
        <pt x="90" y="-255" on="0"/>
        <pt x="39" y="-271" on="1"/>
        <pt x="34" y="-265" on="0"/>
        <pt x="33" y="-252" on="0"/>
        <pt x="33" y="-242" on="1"/>
        <pt x="85" y="-226" on="0"/>
        <pt x="121" y="-157" on="0"/>
        <pt x="121" y="-113" on="1"/>
        <pt x="121" y="-66" on="0"/>
        <pt x="101" y="37" on="0"/>
        <pt x="101" y="86" on="1"/>
        <pt x="101" y="113" on="0"/>
        <pt x="112" y="162" on="0"/>
        <pt x="141" y="204" on="0"/>
        <pt x="190" y="236" on="0"/>
        <pt x="229" y="246" on="1"/>
        <pt x="190" y="255" on="0"/>
        <pt x="140" y="286" on="0"/>
        <pt x="112" y="326" on="0"/>
        <pt x="102" y="373" on="0"/>
        <pt x="102" y="399" on="1"/>
        <pt x="102" y="422" on="0"/>
        <pt x="106" y="446" on="1"/>
        <pt x="114" y="495" on="1"/>
        <pt x="118" y="520" on="0"/>
        <pt x="125" y="568" on="0"/>
        <pt x="125" y="591" on="1"/>
        <pt x="125" y="632" on="0"/>
        <pt x="90" y="697" on="0"/>
        <pt x="39" y="714" on="1"/>
        <pt x="39" y="727" on="0"/>
      </contour>
    </TTGlyph>
    <TTGlyph name="bracketleft" xMin="70" yMin="-269" xMax="272" yMax="742">
      <contour>
        <pt x="70" y="742" on="1"/>
        <pt x="96" y="740" on="0"/>
        <pt x="120" y="740" on="1"/>
        <pt x="211" y="740" on="1"/>
        <pt x="232" y="740" on="0"/>
        <pt x="261" y="742" on="1"/>
        <pt x="268" y="736" on="0"/>
        <pt x="272" y="715" on="0"/>
        <pt x="272" y="704" on="1"/>
        <pt x="232" y="701" on="0"/>
        <pt x="181" y="692" on="0"/>
        <pt x="151" y="673" on="0"/>
        <pt x="140" y="639" on="0"/>
        <pt x="140" y="610" on="1"/>
        <pt x="140" y="-157" on="1"/>
        <pt x="140" y="-181" on="0"/>
        <pt x="155" y="-208" on="0"/>
        <pt x="185" y="-223" on="0"/>
        <pt x="231" y="-228" on="0"/>
        <pt x="261" y="-229" on="1"/>
        <pt x="268" y="-237" on="0"/>
        <pt x="272" y="-255" on="0"/>
        <pt x="272" y="-269" on="1"/>
        <pt x="251" y="-267" on="0"/>
        <pt x="223" y="-267" on="1"/>
        <pt x="123" y="-267" on="1"/>
        <pt x="96" y="-267" on="0"/>
        <pt x="70" y="-269" on="1"/>
      </contour>
    </TTGlyph>
    <TTGlyph name="bracketright" xMin="44" yMin="-269" xMax="246" yMax="742">
      <contour>
        <pt x="246" y="-269" on="1"/>
        <pt x="220" y="-267" on="0"/>
        <pt x="192" y="-267" on="1"/>
        <pt x="92" y="-267" on="1"/>
        <pt x="65" y="-267" on="0"/>
        <pt x="44" y="-269" on="1"/>
        <pt x="44" y="-255" on="0"/>
        <pt x="48" y="-237" on="0"/>
        <pt x="55" y="-229" on="1"/>
        <pt x="85" y="-228" on="0"/>
        <pt x="131" y="-223" on="0"/>
        <pt x="161" y="-208" on="0"/>
        <pt x="176" y="-181" on="0"/>
        <pt x="176" y="-157" on="1"/>
        <pt x="176" y="610" on="1"/>
        <pt x="176" y="639" on="0"/>
        <pt x="165" y="673" on="0"/>
        <pt x="135" y="692" on="0"/>
        <pt x="84" y="701" on="0"/>
        <pt x="44" y="704" on="1"/>
        <pt x="44" y="715" on="0"/>
        <pt x="48" y="736" on="0"/>
        <pt x="55" y="742" on="1"/>
        <pt x="84" y="740" on="0"/>
        <pt x="104" y="740" on="1"/>
        <pt x="195" y="740" on="1"/>
        <pt x="220" y="740" on="0"/>
        <pt x="246" y="742" on="1"/>
      </contour>
    </TTGlyph>
    <TTGlyph name="brokenbar" xMin="62" yMin="-241" xMax="112" yMax="712">
      <contour>
        <pt x="62" y="712" on="1"/>
        <pt x="77" y="712" on="0"/>
        <pt x="101" y="708" on="0"/>
        <pt x="112" y="701" on="1"/>
        <pt x="112" y="669" on="0"/>
        <pt x="110" y="573" on="0"/>
        <pt x="110" y="522" on="1"/>
        <pt x="110" y="500" on="0"/>
        <pt x="111" y="445" on="0"/>
        <pt x="111" y="391" on="0"/>
        <pt x="112" y="343" on="0"/>
        <pt x="112" y="329" on="1"/>
        <pt x="101" y="329" on="0"/>
        <pt x="69" y="335" on="0"/>
        <pt x="62" y="340" on="1"/>
      </contour>
      <contour>
        <pt x="62" y="173" on="1"/>
        <pt x="77" y="173" on="0"/>
        <pt x="101" y="169" on="0"/>
        <pt x="112" y="162" on="1"/>
        <pt x="112" y="146" on="0"/>
        <pt x="111" y="98" on="0"/>
        <pt x="111" y="44" on="0"/>
        <pt x="110" y="-11" on="0"/>
        <pt x="110" y="-33" on="1"/>
        <pt x="110" y="-52" on="0"/>
        <pt x="111" y="-104" on="0"/>
        <pt x="111" y="-161" on="0"/>
        <pt x="112" y="-217" on="0"/>
        <pt x="112" y="-241" on="1"/>
        <pt x="101" y="-241" on="0"/>
        <pt x="69" y="-235" on="0"/>
        <pt x="62" y="-230" on="1"/>
      </contour>
    </TTGlyph>
    <TTGlyph name="bullet" xMin="60" yMin="193" xMax="278" yMax="403">
      <contour>
        <pt x="171" y="403" on="1"/>
        <pt x="197" y="403" on="0"/>
        <pt x="237" y="386" on="0"/>
        <pt x="264" y="358" on="0"/>
        <pt x="278" y="321" on="0"/>
        <pt x="278" y="301" on="1"/>
        <pt x="278" y="254" on="0"/>
        <pt x="222" y="193" on="0"/>
        <pt x="171" y="193" on="1"/>
        <pt x="142" y="193" on="0"/>
        <pt x="101" y="211" on="0"/>
        <pt x="73" y="242" on="0"/>
        <pt x="60" y="281" on="0"/>
        <pt x="60" y="302" on="1"/>
        <pt x="60" y="346" on="0"/>
        <pt x="121" y="403" on="0"/>
      </contour>
    </TTGlyph>
    <TTGlyph name="c" xMin="40" yMin="-9" xMax="412" yMax="467">
      <contour>
        <pt x="412" y="78" on="1"/>
        <pt x="385" y="35" on="0"/>
        <pt x="305" y="-9" on="0"/>
        <pt x="248" y="-9" on="1"/>
        <pt x="210" y="-9" on="0"/>
        <pt x="135" y="21" on="0"/>
        <pt x="76" y="80" on="0"/>
        <pt x="40" y="168" on="0"/>
        <pt x="40" y="227" on="1"/>
        <pt x="40" y="272" on="0"/>
        <pt x="67" y="358" on="0"/>
        <pt x="120" y="426" on="0"/>
        <pt x="197" y="467" on="0"/>
        <pt x="248" y="467" on="1"/>
        <pt x="342" y="467" on="0"/>
        <pt x="399" y="422" on="1"/>
        <pt x="394" y="393" on="0"/>
        <pt x="392" y="337" on="0"/>
        <pt x="392" y="308" on="1"/>
        <pt x="384" y="303" on="0"/>
        <pt x="357" y="300" on="0"/>
        <pt x="346" y="300" on="1"/>
        <pt x="340" y="358" on="0"/>
        <pt x="284" y="420" on="0"/>
        <pt x="240" y="420" on="1"/>
        <pt x="190" y="420" on="0"/>
        <pt x="133" y="328" on="0"/>
        <pt x="133" y="242" on="1"/>
        <pt x="133" y="204" on="0"/>
        <pt x="152" y="134" on="0"/>
        <pt x="188" y="80" on="0"/>
        <pt x="241" y="48" on="0"/>
        <pt x="276" y="48" on="1"/>
        <pt x="343" y="48" on="0"/>
        <pt x="387" y="106" on="1"/>
        <pt x="395" y="102" on="0"/>
        <pt x="409" y="87" on="0"/>
      </contour>
    </TTGlyph>
    <TTGlyph name="ccedilla" xMin="40" yMin="-242" xMax="412" yMax="467">
      <contour>
        <pt x="412" y="78" on="1"/>
        <pt x="385" y="35" on="0"/>
        <pt x="345" y="13" on="1"/>
        <pt x="310" y="-6" on="0"/>
        <pt x="263" y="-9" on="1"/>
        <pt x="233" y="-50" on="1"/>
        <pt x="273" y="-57" on="0"/>
        <pt x="320" y="-105" on="0"/>
        <pt x="320" y="-141" on="1"/>
        <pt x="320" y="-166" on="0"/>
        <pt x="295" y="-204" on="0"/>
        <pt x="256" y="-229" on="0"/>
        <pt x="211" y="-242" on="0"/>
        <pt x="192" y="-242" on="1"/>
        <pt x="188" y="-235" on="0"/>
        <pt x="185" y="-218" on="0"/>
        <pt x="185" y="-210" on="1"/>
        <pt x="215" y="-210" on="0"/>
        <pt x="264" y="-181" on="0"/>
        <pt x="264" y="-155" on="1"/>
        <pt x="264" y="-130" on="0"/>
        <pt x="227" y="-101" on="0"/>
        <pt x="199" y="-101" on="1"/>
        <pt x="191" y="-95" on="0"/>
        <pt x="181" y="-76" on="0"/>
        <pt x="181" y="-63" on="1"/>
        <pt x="216" y="-6" on="1"/>
        <pt x="194" y="-3" on="0"/>
        <pt x="172" y="6" on="1"/>
        <pt x="135" y="21" on="0"/>
        <pt x="76" y="80" on="0"/>
        <pt x="40" y="168" on="0"/>
        <pt x="40" y="227" on="1"/>
        <pt x="40" y="272" on="0"/>
        <pt x="67" y="358" on="0"/>
        <pt x="120" y="426" on="0"/>
        <pt x="197" y="467" on="0"/>
        <pt x="248" y="467" on="1"/>
        <pt x="342" y="467" on="0"/>
        <pt x="399" y="422" on="1"/>
        <pt x="394" y="393" on="0"/>
        <pt x="392" y="337" on="0"/>
        <pt x="392" y="308" on="1"/>
        <pt x="384" y="303" on="0"/>
        <pt x="357" y="300" on="0"/>
        <pt x="346" y="300" on="1"/>
        <pt x="340" y="358" on="0"/>
        <pt x="284" y="420" on="0"/>
        <pt x="240" y="420" on="1"/>
        <pt x="190" y="420" on="0"/>
        <pt x="133" y="328" on="0"/>
        <pt x="133" y="242" on="1"/>
        <pt x="133" y="204" on="0"/>
        <pt x="152" y="134" on="0"/>
        <pt x="188" y="80" on="0"/>
        <pt x="241" y="48" on="0"/>
        <pt x="276" y="48" on="1"/>
        <pt x="343" y="48" on="0"/>
        <pt x="387" y="106" on="1"/>
        <pt x="395" y="102" on="0"/>
        <pt x="409" y="87" on="0"/>
      </contour>
    </TTGlyph>
    <TTGlyph name="cedilla" xMin="224" yMin="-242" xMax="363" yMax="16">
      <contour>
        <pt x="324" y="16" on="1"/>
        <pt x="276" y="-50" on="1"/>
        <pt x="316" y="-57" on="0"/>
        <pt x="363" y="-105" on="0"/>
        <pt x="363" y="-141" on="1"/>
        <pt x="363" y="-166" on="0"/>
        <pt x="338" y="-204" on="0"/>
        <pt x="299" y="-229" on="0"/>
        <pt x="254" y="-242" on="0"/>
        <pt x="235" y="-242" on="1"/>
        <pt x="231" y="-235" on="0"/>
        <pt x="228" y="-218" on="0"/>
        <pt x="228" y="-210" on="1"/>
        <pt x="258" y="-210" on="0"/>
        <pt x="307" y="-181" on="0"/>
        <pt x="307" y="-155" on="1"/>
        <pt x="307" y="-130" on="0"/>
        <pt x="270" y="-101" on="0"/>
        <pt x="242" y="-101" on="1"/>
        <pt x="234" y="-95" on="0"/>
        <pt x="224" y="-76" on="0"/>
        <pt x="224" y="-63" on="1"/>
        <pt x="274" y="16" on="1"/>
      </contour>
    </TTGlyph>
    <TTGlyph name="cent" xMin="40" yMin="-141" xMax="412" yMax="612">
      <contour>
        <pt x="412" y="78" on="1"/>
        <pt x="385" y="35" on="0"/>
        <pt x="345" y="13" on="1"/>
        <pt x="315" y="-3" on="0"/>
        <pt x="276" y="-7" on="1"/>
        <pt x="276" y="-54" on="1"/>
        <pt x="277" y="-95" on="0"/>
        <pt x="277" y="-141" on="1"/>
        <pt x="266" y="-141" on="0"/>
        <pt x="234" y="-135" on="0"/>
        <pt x="227" y="-130" on="1"/>
        <pt x="227" y="-8" on="1"/>
        <pt x="199" y="-5" on="0"/>
        <pt x="172" y="6" on="1"/>
        <pt x="135" y="21" on="0"/>
        <pt x="76" y="80" on="0"/>
        <pt x="40" y="168" on="0"/>
        <pt x="40" y="227" on="1"/>
        <pt x="40" y="272" on="0"/>
        <pt x="67" y="358" on="0"/>
        <pt x="120" y="426" on="0"/>
        <pt x="158" y="446" on="1"/>
        <pt x="189" y="462" on="0"/>
        <pt x="227" y="466" on="1"/>
        <pt x="227" y="612" on="1"/>
        <pt x="242" y="612" on="0"/>
        <pt x="266" y="608" on="0"/>
        <pt x="277" y="601" on="1"/>
        <pt x="277" y="521" on="1"/>
        <pt x="277" y="495" on="0"/>
        <pt x="276" y="466" on="1"/>
        <pt x="351" y="460" on="0"/>
        <pt x="399" y="422" on="1"/>
        <pt x="394" y="393" on="0"/>
        <pt x="392" y="337" on="0"/>
        <pt x="392" y="308" on="1"/>
        <pt x="384" y="303" on="0"/>
        <pt x="357" y="300" on="0"/>
        <pt x="346" y="300" on="1"/>
        <pt x="340" y="358" on="0"/>
        <pt x="312" y="389" on="1"/>
        <pt x="296" y="406" on="0"/>
        <pt x="276" y="414" on="1"/>
        <pt x="276" y="48" on="1"/>
        <pt x="343" y="48" on="0"/>
        <pt x="387" y="106" on="1"/>
        <pt x="395" y="102" on="0"/>
        <pt x="409" y="87" on="0"/>
      </contour>
      <contour>
        <pt x="161" y="374" on="1"/>
        <pt x="133" y="328" on="0"/>
        <pt x="133" y="242" on="1"/>
        <pt x="133" y="204" on="0"/>
        <pt x="152" y="134" on="0"/>
        <pt x="188" y="80" on="0"/>
        <pt x="214" y="64" on="1"/>
        <pt x="220" y="60" on="0"/>
        <pt x="227" y="57" on="1"/>
        <pt x="227" y="419" on="1"/>
        <pt x="186" y="414" on="0"/>
      </contour>
    </TTGlyph>
    <TTGlyph name="circumflex" xMin="75" yMin="517" xMax="410" yMax="709">
      <contour>
        <pt x="75" y="555" on="1"/>
        <pt x="113" y="584" on="0"/>
        <pt x="198" y="664" on="0"/>
        <pt x="232" y="705" on="1"/>
        <pt x="240" y="707" on="0"/>
        <pt x="258" y="709" on="0"/>
        <pt x="264" y="709" on="1"/>
        <pt x="291" y="672" on="0"/>
        <pt x="365" y="586" on="0"/>
        <pt x="410" y="541" on="1"/>
        <pt x="400" y="528" on="0"/>
        <pt x="380" y="523" on="1"/>
        <pt x="364" y="534" on="0"/>
        <pt x="346" y="547" on="1"/>
        <pt x="310" y="573" on="1"/>
        <pt x="292" y="586" on="0"/>
        <pt x="256" y="609" on="0"/>
        <pt x="240" y="618" on="1"/>
        <pt x="228" y="612" on="0"/>
        <pt x="187" y="586" on="0"/>
        <pt x="141" y="556" on="0"/>
        <pt x="98" y="526" on="0"/>
        <pt x="86" y="517" on="1"/>
        <pt x="79" y="524" on="0"/>
        <pt x="75" y="548" on="0"/>
      </contour>
    </TTGlyph>
    <TTGlyph name="colon" xMin="60" yMin="25" xMax="180" yMax="433">
      <contour>
        <pt x="125" y="135" on="1"/>
        <pt x="151" y="135" on="0"/>
        <pt x="180" y="100" on="0"/>
        <pt x="180" y="83" on="1"/>
        <pt x="180" y="53" on="0"/>
        <pt x="144" y="25" on="0"/>
        <pt x="121" y="25" on="1"/>
        <pt x="94" y="25" on="0"/>
        <pt x="64" y="55" on="0"/>
        <pt x="64" y="78" on="1"/>
        <pt x="64" y="101" on="0"/>
        <pt x="98" y="135" on="0"/>
      </contour>
      <contour>
        <pt x="121" y="433" on="1"/>
        <pt x="147" y="433" on="0"/>
        <pt x="176" y="398" on="0"/>
        <pt x="176" y="381" on="1"/>
        <pt x="176" y="351" on="0"/>
        <pt x="140" y="323" on="0"/>
        <pt x="117" y="323" on="1"/>
        <pt x="90" y="323" on="0"/>
        <pt x="60" y="353" on="0"/>
        <pt x="60" y="376" on="1"/>
        <pt x="60" y="399" on="0"/>
        <pt x="94" y="433" on="0"/>
      </contour>
    </TTGlyph>
    <TTGlyph name="comma" xMin="60" yMin="-185" xMax="199" yMax="97">
      <contour>
        <pt x="165" y="97" on="1"/>
        <pt x="199" y="84" on="0"/>
        <pt x="199" y="25" on="1"/>
        <pt x="199" y="-5" on="0"/>
        <pt x="182" y="-62" on="0"/>
        <pt x="152" y="-116" on="0"/>
        <pt x="113" y="-164" on="0"/>
        <pt x="92" y="-185" on="1"/>
        <pt x="72" y="-185" on="0"/>
        <pt x="60" y="-170" on="1"/>
        <pt x="91" y="-135" on="0"/>
        <pt x="124" y="-69" on="0"/>
        <pt x="124" y="-43" on="1"/>
        <pt x="124" y="1" on="0"/>
        <pt x="77" y="7" on="1"/>
        <pt x="77" y="17" on="0"/>
        <pt x="80" y="54" on="0"/>
        <pt x="85" y="67" on="1"/>
        <pt x="108" y="72" on="0"/>
        <pt x="148" y="86" on="0"/>
      </contour>
    </TTGlyph>
    <TTGlyph name="copyright" xMin="35" yMin="-111" xMax="717" yMax="571">
      <contour>
        <pt x="78" y="230" on="1"/>
        <pt x="78" y="167" on="0"/>
        <pt x="124" y="58" on="0"/>
        <pt x="204" y="-22" on="0"/>
        <pt x="313" y="-67" on="0"/>
        <pt x="376" y="-67" on="1"/>
        <pt x="439" y="-67" on="0"/>
        <pt x="548" y="-21" on="0"/>
        <pt x="628" y="59" on="0"/>
        <pt x="674" y="167" on="0"/>
        <pt x="674" y="230" on="1"/>
        <pt x="674" y="293" on="0"/>
        <pt x="628" y="402" on="0"/>
        <pt x="548" y="482" on="0"/>
        <pt x="439" y="528" on="0"/>
        <pt x="376" y="528" on="1"/>
        <pt x="313" y="528" on="0"/>
        <pt x="205" y="482" on="0"/>
        <pt x="124" y="402" on="0"/>
        <pt x="78" y="293" on="0"/>
      </contour>
      <contour>
        <pt x="35" y="230" on="1"/>
        <pt x="35" y="302" on="0"/>
        <pt x="88" y="426" on="0"/>
        <pt x="180" y="518" on="0"/>
        <pt x="304" y="571" on="0"/>
        <pt x="376" y="571" on="1"/>
        <pt x="447" y="571" on="0"/>
        <pt x="572" y="518" on="0"/>
        <pt x="664" y="426" on="0"/>
        <pt x="717" y="302" on="0"/>
        <pt x="717" y="230" on="1"/>
        <pt x="717" y="159" on="0"/>
        <pt x="664" y="34" on="0"/>
        <pt x="572" y="-58" on="0"/>
        <pt x="447" y="-111" on="0"/>
        <pt x="376" y="-111" on="1"/>
        <pt x="304" y="-111" on="0"/>
        <pt x="179" y="-58" on="0"/>
        <pt x="87" y="33" on="0"/>
        <pt x="35" y="158" on="0"/>
      </contour>
      <contour>
        <pt x="385" y="453" on="1"/>
        <pt x="431" y="453" on="0"/>
        <pt x="494" y="432" on="0"/>
        <pt x="529" y="410" on="1"/>
        <pt x="524" y="383" on="0"/>
        <pt x="522" y="330" on="0"/>
        <pt x="522" y="303" on="1"/>
        <pt x="515" y="299" on="0"/>
        <pt x="489" y="296" on="0"/>
        <pt x="479" y="296" on="1"/>
        <pt x="477" y="316" on="0"/>
        <pt x="466" y="356" on="0"/>
        <pt x="440" y="388" on="0"/>
        <pt x="399" y="408" on="0"/>
        <pt x="367" y="408" on="1"/>
        <pt x="338" y="408" on="0"/>
        <pt x="299" y="381" on="0"/>
        <pt x="275" y="335" on="0"/>
        <pt x="264" y="273" on="0"/>
        <pt x="264" y="239" on="1"/>
        <pt x="264" y="204" on="0"/>
        <pt x="278" y="139" on="0"/>
        <pt x="310" y="88" on="0"/>
        <pt x="359" y="57" on="0"/>
        <pt x="394" y="57" on="1"/>
        <pt x="423" y="57" on="0"/>
        <pt x="486" y="78" on="0"/>
        <pt x="514" y="108" on="1"/>
        <pt x="525" y="98" on="0"/>
        <pt x="531" y="84" on="1"/>
        <pt x="505" y="46" on="0"/>
        <pt x="426" y="5" on="0"/>
        <pt x="368" y="5" on="1"/>
        <pt x="332" y="5" on="0"/>
        <pt x="261" y="33" on="0"/>
        <pt x="206" y="89" on="0"/>
        <pt x="172" y="172" on="0"/>
        <pt x="172" y="228" on="1"/>
        <pt x="172" y="279" on="0"/>
        <pt x="203" y="362" on="0"/>
        <pt x="260" y="421" on="0"/>
        <pt x="338" y="453" on="0"/>
      </contour>
    </TTGlyph>
    <TTGlyph name="currency" xMin="67" yMin="57" xMax="474" yMax="439">
      <contour>
        <pt x="270" y="75" on="1"/>
        <pt x="229" y="75" on="0"/>
        <pt x="195" y="90" on="1"/>
        <pt x="178" y="98" on="0"/>
        <pt x="162" y="108" on="1"/>
        <pt x="113" y="58" on="1"/>
        <pt x="98" y="59" on="0"/>
        <pt x="82" y="66" on="0"/>
        <pt x="73" y="76" on="1"/>
        <pt x="131" y="137" on="1"/>
        <pt x="112" y="160" on="0"/>
        <pt x="100" y="188" on="1"/>
        <pt x="87" y="221" on="0"/>
        <pt x="87" y="257" on="1"/>
        <pt x="87" y="296" on="0"/>
        <pt x="102" y="328" on="1"/>
        <pt x="110" y="346" on="0"/>
        <pt x="121" y="361" on="1"/>
        <pt x="67" y="416" on="1"/>
        <pt x="74" y="423" on="0"/>
        <pt x="92" y="434" on="0"/>
        <pt x="106" y="435" on="1"/>
        <pt x="151" y="390" on="1"/>
        <pt x="173" y="408" on="0"/>
        <pt x="201" y="418" on="1"/>
        <pt x="234" y="431" on="0"/>
        <pt x="270" y="431" on="1"/>
        <pt x="306" y="431" on="0"/>
        <pt x="338" y="418" on="1"/>
        <pt x="362" y="408" on="0"/>
        <pt x="382" y="393" on="1"/>
        <pt x="427" y="439" on="1"/>
        <pt x="440" y="436" on="0"/>
        <pt x="456" y="427" on="0"/>
        <pt x="464" y="418" on="1"/>
        <pt x="411" y="365" on="1"/>
        <pt x="425" y="348" on="0"/>
        <pt x="434" y="327" on="1"/>
        <pt x="448" y="295" on="0"/>
        <pt x="448" y="257" on="1"/>
        <pt x="448" y="210" on="0"/>
        <pt x="430" y="176" on="1"/>
        <pt x="420" y="157" on="0"/>
        <pt x="408" y="141" on="1"/>
        <pt x="474" y="77" on="1"/>
        <pt x="468" y="69" on="0"/>
        <pt x="449" y="58" on="0"/>
        <pt x="434" y="57" on="1"/>
        <pt x="377" y="112" on="1"/>
        <pt x="355" y="95" on="0"/>
        <pt x="329" y="86" on="1"/>
        <pt x="298" y="75" on="0"/>
      </contour>
      <contour>
        <pt x="261" y="391" on="1"/>
        <pt x="208" y="391" on="0"/>
        <pt x="143" y="321" on="0"/>
        <pt x="143" y="264" on="1"/>
        <pt x="143" y="238" on="0"/>
        <pt x="163" y="186" on="0"/>
        <pt x="199" y="144" on="0"/>
        <pt x="248" y="118" on="0"/>
        <pt x="276" y="118" on="1"/>
        <pt x="329" y="118" on="0"/>
        <pt x="393" y="189" on="0"/>
        <pt x="393" y="249" on="1"/>
        <pt x="393" y="275" on="0"/>
        <pt x="373" y="326" on="0"/>
        <pt x="338" y="366" on="0"/>
        <pt x="289" y="391" on="0"/>
      </contour>
    </TTGlyph>
    <TTGlyph name="d" xMin="40" yMin="-9" xMax="529" yMax="717">
      <contour>
        <pt x="289" y="467" on="1"/>
        <pt x="318" y="467" on="0"/>
        <pt x="339" y="462" on="1"/>
        <pt x="354" y="458" on="0"/>
        <pt x="372" y="453" on="1"/>
        <pt x="372" y="575" on="1"/>
        <pt x="372" y="593" on="0"/>
        <pt x="368" y="619" on="0"/>
        <pt x="352" y="637" on="0"/>
        <pt x="322" y="646" on="0"/>
        <pt x="297" y="646" on="1"/>
        <pt x="297" y="657" on="0"/>
        <pt x="301" y="675" on="0"/>
        <pt x="306" y="683" on="1"/>
        <pt x="317" y="683" on="0"/>
        <pt x="355" y="689" on="0"/>
        <pt x="395" y="698" on="0"/>
        <pt x="431" y="711" on="0"/>
        <pt x="440" y="717" on="1"/>
        <pt x="449" y="714" on="0"/>
        <pt x="462" y="696" on="0"/>
        <pt x="462" y="677" on="1"/>
        <pt x="462" y="127" on="1"/>
        <pt x="463" y="96" on="0"/>
        <pt x="487" y="67" on="0"/>
        <pt x="529" y="65" on="1"/>
        <pt x="529" y="54" on="0"/>
        <pt x="527" y="33" on="0"/>
        <pt x="523" y="22" on="1"/>
        <pt x="512" y="22" on="0"/>
        <pt x="479" y="17" on="0"/>
        <pt x="446" y="9" on="0"/>
        <pt x="416" y="-3" on="0"/>
        <pt x="407" y="-9" on="1"/>
        <pt x="398" y="-6" on="0"/>
        <pt x="382" y="14" on="0"/>
        <pt x="382" y="40" on="1"/>
        <pt x="382" y="58" on="0"/>
        <pt x="383" y="76" on="1"/>
        <pt x="384" y="89" on="0"/>
        <pt x="387" y="108" on="1"/>
        <pt x="383" y="98" on="0"/>
        <pt x="378" y="90" on="1"/>
        <pt x="369" y="73" on="0"/>
        <pt x="364" y="65" on="1"/>
        <pt x="357" y="54" on="0"/>
        <pt x="332" y="28" on="0"/>
        <pt x="296" y="6" on="0"/>
        <pt x="252" y="-9" on="0"/>
        <pt x="227" y="-9" on="1"/>
        <pt x="139" y="-9" on="0"/>
        <pt x="40" y="97" on="0"/>
        <pt x="40" y="213" on="1"/>
        <pt x="40" y="265" on="0"/>
        <pt x="76" y="358" on="0"/>
        <pt x="141" y="427" on="0"/>
        <pt x="233" y="467" on="0"/>
      </contour>
      <contour>
        <pt x="361" y="156" on="1"/>
        <pt x="370" y="186" on="0"/>
        <pt x="372" y="229" on="1"/>
        <pt x="372" y="385" on="1"/>
        <pt x="358" y="397" on="0"/>
        <pt x="342" y="407" on="1"/>
        <pt x="319" y="421" on="0"/>
        <pt x="284" y="421" on="1"/>
        <pt x="263" y="421" on="0"/>
        <pt x="213" y="405" on="0"/>
        <pt x="169" y="361" on="0"/>
        <pt x="139" y="286" on="0"/>
        <pt x="139" y="226" on="1"/>
        <pt x="139" y="178" on="0"/>
        <pt x="162" y="112" on="0"/>
        <pt x="195" y="72" on="0"/>
        <pt x="234" y="54" on="0"/>
        <pt x="251" y="54" on="1"/>
        <pt x="273" y="54" on="0"/>
        <pt x="316" y="74" on="0"/>
        <pt x="351" y="120" on="0"/>
      </contour>
    </TTGlyph>
    <TTGlyph name="dagger" xMin="42" yMin="-249" xMax="433" yMax="673">
      <contour>
        <pt x="282" y="633" on="1"/>
        <pt x="276" y="546" on="0"/>
        <pt x="271" y="458" on="1"/>
        <pt x="433" y="458" on="1"/>
        <pt x="432" y="441" on="0"/>
        <pt x="414" y="395" on="0"/>
        <pt x="404" y="383" on="1"/>
        <pt x="384" y="386" on="0"/>
        <pt x="347" y="391" on="0"/>
        <pt x="308" y="396" on="0"/>
        <pt x="285" y="398" on="1"/>
        <pt x="277" y="398" on="0"/>
        <pt x="269" y="399" on="1"/>
        <pt x="253" y="79" on="0"/>
        <pt x="252" y="-249" on="1"/>
        <pt x="241" y="-249" on="0"/>
        <pt x="218" y="-243" on="0"/>
        <pt x="209" y="-237" on="1"/>
        <pt x="211" y="-21" on="0"/>
        <pt x="207" y="196" on="1"/>
        <pt x="205" y="298" on="0"/>
        <pt x="201" y="400" on="1"/>
        <pt x="190" y="400" on="0"/>
        <pt x="180" y="399" on="1"/>
        <pt x="155" y="397" on="0"/>
        <pt x="109" y="393" on="0"/>
        <pt x="66" y="387" on="0"/>
        <pt x="42" y="384" on="1"/>
        <pt x="42" y="407" on="0"/>
        <pt x="53" y="442" on="0"/>
        <pt x="61" y="458" on="1"/>
        <pt x="198" y="458" on="1"/>
        <pt x="194" y="545" on="0"/>
        <pt x="189" y="633" on="1"/>
        <pt x="214" y="640" on="0"/>
        <pt x="244" y="659" on="0"/>
        <pt x="263" y="673" on="1"/>
        <pt x="277" y="666" on="0"/>
        <pt x="283" y="649" on="0"/>
      </contour>
    </TTGlyph>
    <TTGlyph name="daggerdbl" xMin="41" yMin="-206" xMax="433" yMax="673">
      <contour>
        <pt x="275" y="0" on="1"/>
        <pt x="276" y="-9" on="0"/>
        <pt x="277" y="-17" on="1"/>
        <pt x="279" y="-48" on="0"/>
        <pt x="284" y="-99" on="0"/>
        <pt x="289" y="-143" on="0"/>
        <pt x="292" y="-166" on="1"/>
        <pt x="272" y="-173" on="0"/>
        <pt x="241" y="-192" on="0"/>
        <pt x="225" y="-206" on="1"/>
        <pt x="211" y="-199" on="0"/>
        <pt x="204" y="-182" on="0"/>
        <pt x="206" y="-166" on="1"/>
        <pt x="211" y="-124" on="0"/>
        <pt x="215" y="-74" on="1"/>
        <pt x="217" y="-42" on="0"/>
        <pt x="219" y="0" on="1"/>
        <pt x="41" y="0" on="1"/>
        <pt x="42" y="17" on="0"/>
        <pt x="60" y="63" on="0"/>
        <pt x="70" y="75" on="1"/>
        <pt x="90" y="72" on="0"/>
        <pt x="127" y="67" on="0"/>
        <pt x="166" y="62" on="0"/>
        <pt x="188" y="60" on="1"/>
        <pt x="204" y="58" on="0"/>
        <pt x="222" y="57" on="1"/>
        <pt x="224" y="115" on="0"/>
        <pt x="218" y="160" on="1"/>
        <pt x="213" y="207" on="0"/>
        <pt x="196" y="227" on="1"/>
        <pt x="212" y="249" on="0"/>
        <pt x="215" y="297" on="1"/>
        <pt x="219" y="343" on="0"/>
        <pt x="215" y="401" on="1"/>
        <pt x="196" y="400" on="0"/>
        <pt x="180" y="399" on="1"/>
        <pt x="155" y="397" on="0"/>
        <pt x="109" y="393" on="0"/>
        <pt x="66" y="387" on="0"/>
        <pt x="42" y="384" on="1"/>
        <pt x="42" y="407" on="0"/>
        <pt x="53" y="442" on="0"/>
        <pt x="61" y="458" on="1"/>
        <pt x="211" y="458" on="1"/>
        <pt x="208" y="505" on="0"/>
        <pt x="205" y="540" on="1"/>
        <pt x="201" y="592" on="0"/>
        <pt x="196" y="633" on="1"/>
        <pt x="219" y="641" on="0"/>
        <pt x="251" y="659" on="0"/>
        <pt x="270" y="673" on="1"/>
        <pt x="284" y="666" on="0"/>
        <pt x="291" y="649" on="0"/>
        <pt x="289" y="633" on="1"/>
        <pt x="287" y="612" on="0"/>
        <pt x="282" y="569" on="0"/>
        <pt x="277" y="516" on="0"/>
        <pt x="274" y="483" on="1"/>
        <pt x="273" y="471" on="0"/>
        <pt x="272" y="458" on="1"/>
        <pt x="433" y="458" on="1"/>
        <pt x="432" y="441" on="0"/>
        <pt x="414" y="395" on="0"/>
        <pt x="404" y="383" on="1"/>
        <pt x="384" y="386" on="0"/>
        <pt x="347" y="391" on="0"/>
        <pt x="308" y="396" on="0"/>
        <pt x="285" y="398" on="1"/>
        <pt x="278" y="398" on="0"/>
        <pt x="269" y="399" on="1"/>
        <pt x="267" y="341" on="0"/>
        <pt x="273" y="297" on="1"/>
        <pt x="279" y="249" on="0"/>
        <pt x="296" y="227" on="1"/>
        <pt x="279" y="207" on="0"/>
        <pt x="273" y="161" on="1"/>
        <pt x="268" y="116" on="0"/>
        <pt x="271" y="57" on="1"/>
        <pt x="283" y="58" on="0"/>
        <pt x="294" y="59" on="1"/>
        <pt x="319" y="61" on="0"/>
        <pt x="365" y="65" on="0"/>
        <pt x="408" y="71" on="0"/>
        <pt x="432" y="74" on="1"/>
        <pt x="432" y="51" on="0"/>
        <pt x="421" y="16" on="0"/>
        <pt x="413" y="0" on="1"/>
      </contour>
    </TTGlyph>
    <TTGlyph name="degree" xMin="60" yMin="454" xMax="324" yMax="700">
      <contour>
        <pt x="190" y="700" on="1"/>
        <pt x="255" y="700" on="0"/>
        <pt x="324" y="631" on="0"/>
        <pt x="324" y="579" on="1"/>
        <pt x="324" y="553" on="0"/>
        <pt x="305" y="507" on="0"/>
        <pt x="270" y="473" on="0"/>
        <pt x="220" y="454" on="0"/>
        <pt x="190" y="454" on="1"/>
        <pt x="128" y="454" on="0"/>
        <pt x="60" y="524" on="0"/>
        <pt x="60" y="578" on="1"/>
        <pt x="60" y="604" on="0"/>
        <pt x="79" y="648" on="0"/>
        <pt x="114" y="681" on="0"/>
        <pt x="161" y="700" on="0"/>
      </contour>
      <contour>
        <pt x="184" y="662" on="1"/>
        <pt x="161" y="662" on="0"/>
        <pt x="130" y="623" on="0"/>
        <pt x="130" y="597" on="1"/>
        <pt x="130" y="550" on="0"/>
        <pt x="175" y="494" on="0"/>
        <pt x="204" y="494" on="1"/>
        <pt x="225" y="494" on="0"/>
        <pt x="254" y="530" on="0"/>
        <pt x="254" y="568" on="1"/>
        <pt x="254" y="612" on="0"/>
        <pt x="216" y="662" on="0"/>
      </contour>
    </TTGlyph>
    <TTGlyph name="dieresis" xMin="145" yMin="532" xMax="452" yMax="640">
      <contour>
        <pt x="202" y="532" on="1"/>
        <pt x="176" y="532" on="0"/>
        <pt x="145" y="561" on="0"/>
        <pt x="145" y="583" on="1"/>
        <pt x="145" y="605" on="0"/>
        <pt x="171" y="640" on="0"/>
        <pt x="200" y="640" on="1"/>
        <pt x="230" y="640" on="0"/>
        <pt x="257" y="608" on="0"/>
        <pt x="257" y="585" on="1"/>
        <pt x="257" y="562" on="0"/>
        <pt x="225" y="532" on="0"/>
      </contour>
      <contour>
        <pt x="395" y="640" on="1"/>
        <pt x="420" y="640" on="0"/>
        <pt x="452" y="612" on="0"/>
        <pt x="452" y="589" on="1"/>
        <pt x="452" y="568" on="0"/>
        <pt x="428" y="533" on="0"/>
        <pt x="398" y="533" on="1"/>
        <pt x="369" y="533" on="0"/>
        <pt x="339" y="564" on="0"/>
        <pt x="339" y="589" on="1"/>
        <pt x="339" y="613" on="0"/>
        <pt x="370" y="640" on="0"/>
      </contour>
    </TTGlyph>
    <TTGlyph name="divide" xMin="20" yMin="61" xMax="505" yMax="466">
      <contour>
        <pt x="505" y="287" on="1"/>
        <pt x="505" y="272" on="0"/>
        <pt x="502" y="248" on="0"/>
        <pt x="495" y="237" on="1"/>
        <pt x="453" y="237" on="0"/>
        <pt x="398" y="238" on="0"/>
        <pt x="375" y="238" on="1"/>
        <pt x="273" y="238" on="1"/>
        <pt x="207" y="238" on="0"/>
        <pt x="88" y="237" on="0"/>
        <pt x="20" y="236" on="1"/>
        <pt x="20" y="247" on="0"/>
        <pt x="25" y="280" on="0"/>
        <pt x="30" y="287" on="1"/>
      </contour>
      <contour>
        <pt x="264" y="466" on="1"/>
        <pt x="285" y="466" on="0"/>
        <pt x="315" y="443" on="0"/>
        <pt x="315" y="423" on="1"/>
        <pt x="315" y="400" on="0"/>
        <pt x="294" y="368" on="0"/>
        <pt x="267" y="368" on="1"/>
        <pt x="238" y="368" on="0"/>
        <pt x="212" y="398" on="0"/>
        <pt x="212" y="423" on="1"/>
        <pt x="212" y="445" on="0"/>
        <pt x="243" y="466" on="0"/>
      </contour>
      <contour>
        <pt x="269" y="61" on="1"/>
        <pt x="246" y="61" on="0"/>
        <pt x="217" y="89" on="0"/>
        <pt x="217" y="109" on="1"/>
        <pt x="217" y="129" on="0"/>
        <pt x="240" y="158" on="0"/>
        <pt x="267" y="158" on="1"/>
        <pt x="295" y="158" on="0"/>
        <pt x="319" y="132" on="0"/>
        <pt x="319" y="109" on="1"/>
        <pt x="319" y="87" on="0"/>
        <pt x="289" y="61" on="0"/>
      </contour>
    </TTGlyph>
    <TTGlyph name="dollar" xMin="68" yMin="-91" xMax="477" yMax="744">
      <contour>
        <pt x="248" y="-8" on="1"/>
        <pt x="229" y="-7" on="0"/>
        <pt x="212" y="-5" on="1"/>
        <pt x="186" y="-2" on="0"/>
        <pt x="141" y="13" on="0"/>
        <pt x="96" y="37" on="0"/>
        <pt x="68" y="55" on="1"/>
        <pt x="74" y="93" on="0"/>
        <pt x="77" y="169" on="0"/>
        <pt x="77" y="197" on="1"/>
        <pt x="88" y="200" on="0"/>
        <pt x="118" y="203" on="0"/>
        <pt x="131" y="203" on="1"/>
        <pt x="133" y="165" on="0"/>
        <pt x="149" y="105" on="0"/>
        <pt x="182" y="62" on="0"/>
        <pt x="209" y="50" on="1"/>
        <pt x="226" y="43" on="0"/>
        <pt x="248" y="40" on="1"/>
        <pt x="248" y="297" on="1"/>
        <pt x="242" y="300" on="0"/>
        <pt x="236" y="302" on="1"/>
        <pt x="196" y="321" on="0"/>
        <pt x="127" y="372" on="0"/>
        <pt x="81" y="448" on="0"/>
        <pt x="81" y="509" on="1"/>
        <pt x="81" y="548" on="0"/>
        <pt x="108" y="613" on="0"/>
        <pt x="156" y="660" on="0"/>
        <pt x="189" y="672" on="1"/>
        <pt x="216" y="682" on="0"/>
        <pt x="248" y="684" on="1"/>
        <pt x="248" y="744" on="1"/>
        <pt x="263" y="744" on="0"/>
        <pt x="283" y="740" on="0"/>
        <pt x="294" y="733" on="1"/>
        <pt x="294" y="713" on="0"/>
        <pt x="293" y="684" on="1"/>
        <pt x="331" y="681" on="0"/>
        <pt x="360" y="671" on="1"/>
        <pt x="400" y="658" on="0"/>
        <pt x="421" y="641" on="1"/>
        <pt x="421" y="612" on="0"/>
        <pt x="423" y="536" on="0"/>
        <pt x="427" y="509" on="1"/>
        <pt x="416" y="504" on="0"/>
        <pt x="385" y="500" on="0"/>
        <pt x="371" y="500" on="1"/>
        <pt x="363" y="543" on="0"/>
        <pt x="343" y="598" on="0"/>
        <pt x="316" y="629" on="0"/>
        <pt x="299" y="635" on="1"/>
        <pt x="296" y="636" on="0"/>
        <pt x="292" y="637" on="1"/>
        <pt x="292" y="392" on="1"/>
        <pt x="322" y="377" on="1"/>
        <pt x="362" y="358" on="0"/>
        <pt x="431" y="307" on="0"/>
        <pt x="477" y="235" on="0"/>
        <pt x="477" y="180" on="1"/>
        <pt x="477" y="142" on="0"/>
        <pt x="446" y="73" on="0"/>
        <pt x="392" y="21" on="0"/>
        <pt x="355" y="6" on="1"/>
        <pt x="326" y="-5" on="0"/>
        <pt x="293" y="-8" on="1"/>
        <pt x="294" y="-55" on="0"/>
        <pt x="294" y="-91" on="1"/>
        <pt x="283" y="-91" on="0"/>
        <pt x="255" y="-85" on="0"/>
        <pt x="248" y="-80" on="1"/>
      </contour>
      <contour>
        <pt x="292" y="274" on="1"/>
        <pt x="292" y="39" on="1"/>
        <pt x="312" y="41" on="0"/>
        <pt x="328" y="47" on="1"/>
        <pt x="349" y="56" on="0"/>
        <pt x="377" y="84" on="0"/>
        <pt x="392" y="121" on="0"/>
        <pt x="392" y="142" on="1"/>
        <pt x="392" y="187" on="0"/>
        <pt x="346" y="243" on="0"/>
        <pt x="311" y="263" on="1"/>
        <pt x="302" y="269" on="0"/>
      </contour>
      <contour>
        <pt x="190" y="469" on="1"/>
        <pt x="213" y="441" on="0"/>
        <pt x="247" y="419" on="1"/>
        <pt x="248" y="418" on="1"/>
        <pt x="248" y="640" on="1"/>
        <pt x="214" y="636" on="0"/>
        <pt x="193" y="615" on="1"/>
        <pt x="167" y="589" on="0"/>
        <pt x="167" y="541" on="1"/>
        <pt x="167" y="497" on="0"/>
      </contour>
    </TTGlyph>
    <TTGlyph name="dotlessi" xMin="36" yMin="-3" xMax="265" yMax="467">
      <contour>
        <pt x="201" y="127" on="1"/>
        <pt x="201" y="77" on="0"/>
        <pt x="228" y="40" on="0"/>
        <pt x="260" y="40" on="1"/>
        <pt x="263" y="29" on="0"/>
        <pt x="265" y="4" on="0"/>
        <pt x="265" y="-3" on="1"/>
        <pt x="239" y="-1" on="0"/>
        <pt x="181" y="0" on="0"/>
        <pt x="152" y="0" on="1"/>
        <pt x="123" y="0" on="0"/>
        <pt x="62" y="-1" on="0"/>
        <pt x="37" y="-3" on="1"/>
        <pt x="37" y="7" on="0"/>
        <pt x="39" y="30" on="0"/>
        <pt x="42" y="40" on="1"/>
        <pt x="82" y="40" on="0"/>
        <pt x="111" y="77" on="0"/>
        <pt x="111" y="127" on="1"/>
        <pt x="111" y="325" on="1"/>
        <pt x="111" y="343" on="0"/>
        <pt x="107" y="369" on="0"/>
        <pt x="91" y="387" on="0"/>
        <pt x="61" y="396" on="0"/>
        <pt x="36" y="396" on="1"/>
        <pt x="36" y="407" on="0"/>
        <pt x="40" y="425" on="0"/>
        <pt x="45" y="433" on="1"/>
        <pt x="56" y="433" on="0"/>
        <pt x="94" y="439" on="0"/>
        <pt x="134" y="448" on="0"/>
        <pt x="170" y="461" on="0"/>
        <pt x="179" y="467" on="1"/>
        <pt x="188" y="464" on="0"/>
        <pt x="201" y="446" on="0"/>
        <pt x="201" y="427" on="1"/>
      </contour>
    </TTGlyph>
    <TTGlyph name="dotlessj" xMin="13" yMin="-249" xMax="201" yMax="467">
      <contour>
        <pt x="111" y="325" on="1"/>
        <pt x="111" y="343" on="0"/>
        <pt x="107" y="369" on="0"/>
        <pt x="91" y="387" on="0"/>
        <pt x="61" y="396" on="0"/>
        <pt x="36" y="396" on="1"/>
        <pt x="36" y="407" on="0"/>
        <pt x="40" y="425" on="0"/>
        <pt x="45" y="433" on="1"/>
        <pt x="56" y="433" on="0"/>
        <pt x="94" y="439" on="0"/>
        <pt x="134" y="448" on="0"/>
        <pt x="170" y="461" on="0"/>
        <pt x="179" y="467" on="1"/>
        <pt x="188" y="464" on="0"/>
        <pt x="201" y="446" on="0"/>
        <pt x="201" y="427" on="1"/>
        <pt x="201" y="23" on="1"/>
        <pt x="201" y="-28" on="0"/>
        <pt x="170" y="-114" on="0"/>
        <pt x="122" y="-183" on="0"/>
        <pt x="63" y="-234" on="0"/>
        <pt x="35" y="-249" on="1"/>
        <pt x="27" y="-245" on="0"/>
        <pt x="15" y="-231" on="0"/>
        <pt x="13" y="-221" on="1"/>
        <pt x="43" y="-187" on="0"/>
        <pt x="81" y="-129" on="0"/>
        <pt x="103" y="-73" on="0"/>
        <pt x="111" y="-12" on="0"/>
        <pt x="111" y="26" on="1"/>
      </contour>
    </TTGlyph>
    <TTGlyph name="e" xMin="40" yMin="-9" xMax="434" yMax="467">
      <contour>
        <pt x="203" y="223" on="1"/>
        <pt x="170" y="222" on="0"/>
        <pt x="139" y="220" on="1"/>
        <pt x="140" y="198" on="0"/>
        <pt x="144" y="177" on="1"/>
        <pt x="151" y="141" on="0"/>
        <pt x="184" y="83" on="0"/>
        <pt x="240" y="47" on="0"/>
        <pt x="284" y="47" on="1"/>
        <pt x="317" y="47" on="0"/>
        <pt x="381" y="76" on="0"/>
        <pt x="406" y="105" on="1"/>
        <pt x="414" y="100" on="0"/>
        <pt x="428" y="82" on="0"/>
        <pt x="430" y="74" on="1"/>
        <pt x="395" y="29" on="0"/>
        <pt x="307" y="-9" on="0"/>
        <pt x="252" y="-9" on="1"/>
        <pt x="199" y="-9" on="0"/>
        <pt x="119" y="29" on="0"/>
        <pt x="66" y="93" on="0"/>
        <pt x="40" y="180" on="0"/>
        <pt x="40" y="229" on="1"/>
        <pt x="40" y="277" on="0"/>
        <pt x="69" y="363" on="0"/>
        <pt x="122" y="429" on="0"/>
        <pt x="199" y="467" on="0"/>
        <pt x="247" y="467" on="1"/>
        <pt x="296" y="467" on="0"/>
        <pt x="364" y="434" on="0"/>
        <pt x="408" y="378" on="0"/>
        <pt x="431" y="303" on="0"/>
        <pt x="434" y="260" on="1"/>
        <pt x="430" y="240" on="0"/>
        <pt x="419" y="226" on="1"/>
        <pt x="368" y="226" on="1"/>
        <pt x="334" y="226" on="0"/>
        <pt x="249" y="225" on="0"/>
      </contour>
      <contour>
        <pt x="146" y="332" on="1"/>
        <pt x="140" y="307" on="0"/>
        <pt x="138" y="271" on="1"/>
        <pt x="330" y="271" on="1"/>
        <pt x="330" y="337" on="0"/>
        <pt x="282" y="419" on="0"/>
        <pt x="238" y="419" on="1"/>
        <pt x="220" y="419" on="0"/>
        <pt x="184" y="404" on="0"/>
        <pt x="155" y="365" on="0"/>
      </contour>
    </TTGlyph>
    <TTGlyph name="eacute" xMin="40" yMin="-9" xMax="434" yMax="722">
      <component glyphName="e" x="0" y="0" flags="0x204"/>
      <component glyphName="acute" x="0" y="0" flags="0x4"/>
    </TTGlyph>
    <TTGlyph name="ecircumflex" xMin="40" yMin="-9" xMax="434" yMax="709">
      <component glyphName="e" x="0" y="0" flags="0x204"/>
      <component glyphName="circumflex" x="5" y="0" flags="0x4"/>
    </TTGlyph>
    <TTGlyph name="edieresis" xMin="40" yMin="-9" xMax="434" yMax="640">
      <component glyphName="e" x="0" y="0" flags="0x204"/>
      <component glyphName="dieresis" x="-49" y="0" flags="0x4"/>
    </TTGlyph>
    <TTGlyph name="egrave" xMin="40" yMin="-9" xMax="434" yMax="716">
      <component glyphName="e" x="0" y="0" flags="0x204"/>
      <component glyphName="grave" x="109" y="0" flags="0x4"/>
    </TTGlyph>
    <TTGlyph name="eight" xMin="55" yMin="-9" xMax="453" yMax="637">
      <contour>
        <pt x="138" y="299" on="1"/>
        <pt x="161" y="317" on="0"/>
        <pt x="190" y="335" on="1"/>
        <pt x="137" y="371" on="0"/>
        <pt x="108" y="404" on="1"/>
        <pt x="74" y="442" on="0"/>
        <pt x="74" y="492" on="1"/>
        <pt x="74" y="520" on="0"/>
        <pt x="96" y="572" on="0"/>
        <pt x="139" y="612" on="0"/>
        <pt x="204" y="637" on="0"/>
        <pt x="246" y="637" on="1"/>
        <pt x="331" y="637" on="0"/>
        <pt x="428" y="570" on="0"/>
        <pt x="428" y="504" on="1"/>
        <pt x="428" y="473" on="0"/>
        <pt x="405" y="426" on="0"/>
        <pt x="369" y="389" on="0"/>
        <pt x="346" y="374" on="1"/>
        <pt x="329" y="364" on="0"/>
        <pt x="313" y="355" on="1"/>
        <pt x="329" y="344" on="0"/>
        <pt x="344" y="333" on="1"/>
        <pt x="379" y="307" on="0"/>
        <pt x="428" y="253" on="0"/>
        <pt x="453" y="192" on="0"/>
        <pt x="453" y="156" on="1"/>
        <pt x="453" y="118" on="0"/>
        <pt x="422" y="57" on="0"/>
        <pt x="368" y="14" on="0"/>
        <pt x="293" y="-9" on="0"/>
        <pt x="249" y="-9" on="1"/>
        <pt x="205" y="-9" on="0"/>
        <pt x="134" y="15" on="0"/>
        <pt x="83" y="56" on="0"/>
        <pt x="55" y="111" on="0"/>
        <pt x="55" y="141" on="1"/>
        <pt x="55" y="176" on="0"/>
        <pt x="74" y="232" on="0"/>
        <pt x="111" y="279" on="0"/>
      </contour>
      <contour>
        <pt x="324" y="233" on="1"/>
        <pt x="290" y="269" on="0"/>
        <pt x="227" y="311" on="1"/>
        <pt x="205" y="295" on="0"/>
        <pt x="189" y="279" on="1"/>
        <pt x="172" y="262" on="0"/>
        <pt x="150" y="224" on="0"/>
        <pt x="141" y="179" on="0"/>
        <pt x="141" y="149" on="1"/>
        <pt x="141" y="116" on="0"/>
        <pt x="163" y="70" on="0"/>
        <pt x="199" y="43" on="0"/>
        <pt x="243" y="31" on="0"/>
        <pt x="266" y="31" on="1"/>
        <pt x="280" y="31" on="0"/>
        <pt x="314" y="42" on="0"/>
        <pt x="344" y="66" on="0"/>
        <pt x="364" y="106" on="0"/>
        <pt x="364" y="136" on="1"/>
        <pt x="364" y="191" on="0"/>
      </contour>
      <contour>
        <pt x="264" y="386" on="1"/>
        <pt x="270" y="382" on="0"/>
        <pt x="277" y="378" on="1"/>
        <pt x="307" y="398" on="0"/>
        <pt x="321" y="421" on="1"/>
        <pt x="338" y="448" on="0"/>
        <pt x="338" y="491" on="1"/>
        <pt x="338" y="543" on="0"/>
        <pt x="286" y="597" on="0"/>
        <pt x="251" y="597" on="1"/>
        <pt x="214" y="597" on="0"/>
        <pt x="169" y="555" on="0"/>
        <pt x="168" y="512" on="1"/>
        <pt x="167" y="473" on="0"/>
        <pt x="211" y="418" on="0"/>
      </contour>
    </TTGlyph>
    <TTGlyph name="ellipsis" xMin="60" yMin="-8" xMax="800" yMax="102">
      <component glyphName="period" x="0" y="0" flags="0x4"/>
      <component glyphName="period" x="320" y="0" flags="0x4"/>
      <component glyphName="period" x="624" y="0" flags="0x4"/>
    </TTGlyph>
    <TTGlyph name="emdash" xMin="60" yMin="235" xMax="964" yMax="290">
      <contour>
        <pt x="964" y="290" on="1"/>
        <pt x="964" y="275" on="0"/>
        <pt x="960" y="249" on="0"/>
        <pt x="953" y="238" on="1"/>
        <pt x="655" y="238" on="0"/>
        <pt x="215" y="237" on="0"/>
        <pt x="60" y="235" on="1"/>
        <pt x="60" y="241" on="0"/>
        <pt x="62" y="257" on="0"/>
        <pt x="65" y="273" on="0"/>
        <pt x="69" y="287" on="0"/>
        <pt x="71" y="290" on="1"/>
      </contour>
    </TTGlyph>
    <TTGlyph name="endash" xMin="60" yMin="235" xMax="506" yMax="291">
      <contour>
        <pt x="506" y="291" on="1"/>
        <pt x="506" y="276" on="0"/>
        <pt x="502" y="249" on="0"/>
        <pt x="495" y="238" on="1"/>
        <pt x="395" y="238" on="1"/>
        <pt x="349" y="238" on="0"/>
        <pt x="251" y="237" on="0"/>
        <pt x="136" y="236" on="0"/>
        <pt x="60" y="235" on="1"/>
        <pt x="60" y="249" on="0"/>
        <pt x="66" y="281" on="0"/>
        <pt x="71" y="291" on="1"/>
      </contour>
    </TTGlyph>
    <TTGlyph name="equal" xMin="44" yMin="147" xMax="496" yMax="361">
      <contour>
        <pt x="495" y="196" on="1"/>
        <pt x="495" y="181" on="0"/>
        <pt x="491" y="159" on="0"/>
        <pt x="484" y="148" on="1"/>
        <pt x="454" y="148" on="0"/>
        <pt x="406" y="149" on="0"/>
        <pt x="383" y="149" on="1"/>
        <pt x="216" y="149" on="1"/>
        <pt x="189" y="149" on="0"/>
        <pt x="135" y="148" on="0"/>
        <pt x="78" y="147" on="0"/>
        <pt x="44" y="147" on="1"/>
        <pt x="44" y="158" on="0"/>
        <pt x="50" y="189" on="0"/>
        <pt x="55" y="196" on="1"/>
      </contour>
      <contour>
        <pt x="496" y="361" on="1"/>
        <pt x="496" y="346" on="0"/>
        <pt x="492" y="324" on="0"/>
        <pt x="485" y="313" on="1"/>
        <pt x="455" y="313" on="0"/>
        <pt x="408" y="314" on="0"/>
        <pt x="385" y="314" on="1"/>
        <pt x="218" y="314" on="1"/>
        <pt x="191" y="314" on="0"/>
        <pt x="137" y="313" on="0"/>
        <pt x="81" y="312" on="0"/>
        <pt x="47" y="312" on="1"/>
        <pt x="47" y="323" on="0"/>
        <pt x="53" y="354" on="0"/>
        <pt x="58" y="361" on="1"/>
      </contour>
    </TTGlyph>
    <TTGlyph name="eth" xMin="43" yMin="-8" xMax="490" yMax="679">
      <contour>
        <pt x="200" y="583" on="1"/>
        <pt x="150" y="611" on="0"/>
        <pt x="87" y="635" on="1"/>
        <pt x="87" y="643" on="0"/>
        <pt x="90" y="659" on="0"/>
        <pt x="98" y="669" on="1"/>
        <pt x="174" y="656" on="0"/>
        <pt x="245" y="623" on="1"/>
        <pt x="252" y="620" on="0"/>
        <pt x="259" y="616" on="1"/>
        <pt x="372" y="679" on="1"/>
        <pt x="379" y="665" on="0"/>
        <pt x="387" y="642" on="0"/>
        <pt x="386" y="629" on="1"/>
        <pt x="348" y="609" on="0"/>
        <pt x="320" y="594" on="1"/>
        <pt x="315" y="591" on="0"/>
        <pt x="309" y="588" on="1"/>
        <pt x="342" y="566" on="0"/>
        <pt x="370" y="540" on="1"/>
        <pt x="425" y="489" on="0"/>
        <pt x="490" y="352" on="0"/>
        <pt x="490" y="267" on="1"/>
        <pt x="490" y="194" on="0"/>
        <pt x="455" y="90" on="0"/>
        <pt x="392" y="23" on="0"/>
        <pt x="307" y="-8" on="0"/>
        <pt x="257" y="-8" on="1"/>
        <pt x="141" y="-8" on="0"/>
        <pt x="43" y="107" on="0"/>
        <pt x="43" y="213" on="1"/>
        <pt x="43" y="275" on="0"/>
        <pt x="86" y="360" on="0"/>
        <pt x="152" y="413" on="0"/>
        <pt x="234" y="437" on="0"/>
        <pt x="273" y="437" on="1"/>
        <pt x="304" y="437" on="0"/>
        <pt x="333" y="425" on="1"/>
        <pt x="350" y="418" on="0"/>
        <pt x="364" y="408" on="1"/>
        <pt x="345" y="456" on="0"/>
        <pt x="313" y="494" on="1"/>
        <pt x="285" y="527" on="0"/>
        <pt x="247" y="554" on="1"/>
        <pt x="229" y="543" on="0"/>
        <pt x="209" y="531" on="1"/>
        <pt x="179" y="514" on="0"/>
        <pt x="138" y="490" on="1"/>
        <pt x="132" y="501" on="0"/>
        <pt x="122" y="532" on="0"/>
        <pt x="123" y="540" on="1"/>
      </contour>
      <contour>
        <pt x="389" y="256" on="1"/>
        <pt x="389" y="305" on="0"/>
        <pt x="381" y="346" on="1"/>
        <pt x="366" y="360" on="0"/>
        <pt x="347" y="372" on="1"/>
        <pt x="314" y="391" on="0"/>
        <pt x="264" y="391" on="1"/>
        <pt x="238" y="391" on="0"/>
        <pt x="193" y="373" on="0"/>
        <pt x="159" y="334" on="0"/>
        <pt x="139" y="272" on="0"/>
        <pt x="139" y="227" on="1"/>
        <pt x="139" y="136" on="0"/>
        <pt x="211" y="48" on="0"/>
        <pt x="268" y="48" on="1"/>
        <pt x="285" y="48" on="0"/>
        <pt x="327" y="68" on="0"/>
        <pt x="364" y="116" on="0"/>
        <pt x="389" y="196" on="0"/>
      </contour>
    </TTGlyph>
    <TTGlyph name="exclam" xMin="145" yMin="-8" xMax="267" yMax="714">
      <contour>
        <pt x="246" y="714" on="1"/>
        <pt x="267" y="707" on="0"/>
        <pt x="264" y="683" on="1"/>
        <pt x="259" y="636" on="0"/>
        <pt x="249" y="524" on="0"/>
        <pt x="240" y="404" on="0"/>
        <pt x="232" y="282" on="0"/>
        <pt x="230" y="225" on="1"/>
        <pt x="218" y="225" on="0"/>
        <pt x="194" y="227" on="0"/>
        <pt x="185" y="231" on="1"/>
        <pt x="181" y="301" on="0"/>
        <pt x="172" y="421" on="0"/>
        <pt x="163" y="529" on="0"/>
        <pt x="152" y="630" on="0"/>
        <pt x="145" y="681" on="1"/>
        <pt x="155" y="683" on="0"/>
        <pt x="183" y="691" on="0"/>
        <pt x="212" y="700" on="0"/>
        <pt x="238" y="709" on="0"/>
      </contour>
      <contour>
        <pt x="211" y="102" on="1"/>
        <pt x="237" y="102" on="0"/>
        <pt x="266" y="67" on="0"/>
        <pt x="266" y="50" on="1"/>
        <pt x="266" y="20" on="0"/>
        <pt x="230" y="-8" on="0"/>
        <pt x="207" y="-8" on="1"/>
        <pt x="180" y="-8" on="0"/>
        <pt x="150" y="22" on="0"/>
        <pt x="150" y="45" on="1"/>
        <pt x="150" y="68" on="0"/>
        <pt x="184" y="102" on="0"/>
      </contour>
    </TTGlyph>
    <TTGlyph name="exclamdown" xMin="124" yMin="-242" xMax="246" yMax="467">
      <contour>
        <pt x="145" y="-242" on="1"/>
        <pt x="124" y="-235" on="0"/>
        <pt x="127" y="-211" on="1"/>
        <pt x="132" y="-165" on="0"/>
        <pt x="142" y="-55" on="0"/>
        <pt x="151" y="62" on="0"/>
        <pt x="159" y="181" on="0"/>
        <pt x="161" y="237" on="1"/>
        <pt x="173" y="237" on="0"/>
        <pt x="197" y="236" on="0"/>
        <pt x="206" y="232" on="1"/>
        <pt x="210" y="163" on="0"/>
        <pt x="219" y="45" on="0"/>
        <pt x="228" y="-61" on="0"/>
        <pt x="239" y="-159" on="0"/>
        <pt x="246" y="-209" on="1"/>
        <pt x="236" y="-211" on="0"/>
        <pt x="208" y="-219" on="0"/>
        <pt x="179" y="-228" on="0"/>
        <pt x="153" y="-238" on="0"/>
      </contour>
      <contour>
        <pt x="180" y="357" on="1"/>
        <pt x="154" y="357" on="0"/>
        <pt x="125" y="392" on="0"/>
        <pt x="125" y="409" on="1"/>
        <pt x="125" y="439" on="0"/>
        <pt x="161" y="467" on="0"/>
        <pt x="184" y="467" on="1"/>
        <pt x="211" y="467" on="0"/>
        <pt x="241" y="437" on="0"/>
        <pt x="241" y="414" on="1"/>
        <pt x="241" y="391" on="0"/>
        <pt x="207" y="357" on="0"/>
      </contour>
    </TTGlyph>
    <TTGlyph name="f" xMin="36" yMin="-3" xMax="420" yMax="714">
      <contour>
        <pt x="206" y="448" on="1"/>
        <pt x="308" y="448" on="1"/>
        <pt x="308" y="438" on="0"/>
        <pt x="304" y="413" on="0"/>
        <pt x="298" y="403" on="1"/>
        <pt x="245" y="403" on="0"/>
        <pt x="206" y="391" on="1"/>
        <pt x="206" y="147" on="1"/>
        <pt x="206" y="114" on="0"/>
        <pt x="216" y="74" on="0"/>
        <pt x="238" y="50" on="0"/>
        <pt x="271" y="41" on="0"/>
        <pt x="295" y="40" on="1"/>
        <pt x="300" y="26" on="0"/>
        <pt x="300" y="-3" on="1"/>
        <pt x="277" y="-1" on="0"/>
        <pt x="209" y="0" on="0"/>
        <pt x="174" y="0" on="1"/>
        <pt x="137" y="0" on="1"/>
        <pt x="118" y="0" on="0"/>
        <pt x="82" y="-1" on="0"/>
        <pt x="52" y="-2" on="0"/>
        <pt x="42" y="-3" on="1"/>
        <pt x="42" y="26" on="0"/>
        <pt x="47" y="40" on="1"/>
        <pt x="87" y="42" on="0"/>
        <pt x="116" y="77" on="0"/>
        <pt x="116" y="127" on="1"/>
        <pt x="116" y="394" on="1"/>
        <pt x="94" y="399" on="0"/>
        <pt x="51" y="403" on="0"/>
        <pt x="36" y="403" on="1"/>
        <pt x="36" y="430" on="0"/>
        <pt x="50" y="448" on="1"/>
        <pt x="116" y="448" on="1"/>
        <pt x="116" y="488" on="1"/>
        <pt x="116" y="544" on="0"/>
        <pt x="152" y="629" on="0"/>
        <pt x="211" y="686" on="0"/>
        <pt x="286" y="714" on="0"/>
        <pt x="325" y="714" on="1"/>
        <pt x="364" y="714" on="0"/>
        <pt x="403" y="699" on="0"/>
        <pt x="420" y="689" on="1"/>
        <pt x="418" y="657" on="0"/>
        <pt x="416" y="599" on="0"/>
        <pt x="416" y="572" on="1"/>
        <pt x="403" y="568" on="0"/>
        <pt x="373" y="564" on="0"/>
        <pt x="359" y="564" on="1"/>
        <pt x="359" y="605" on="0"/>
        <pt x="323" y="659" on="0"/>
        <pt x="281" y="659" on="1"/>
        <pt x="240" y="659" on="0"/>
        <pt x="206" y="586" on="0"/>
        <pt x="206" y="519" on="1"/>
      </contour>
    </TTGlyph>
    <TTGlyph name="f.calt" xMin="36" yMin="-3" xMax="374" yMax="714">
      <contour>
        <pt x="115" y="452" on="1"/>
        <pt x="115" y="488" on="1"/>
        <pt x="115" y="548" on="0"/>
        <pt x="141" y="634" on="0"/>
        <pt x="186" y="688" on="0"/>
        <pt x="244" y="714" on="0"/>
        <pt x="276" y="714" on="1"/>
        <pt x="305" y="714" on="0"/>
        <pt x="360" y="699" on="0"/>
        <pt x="374" y="689" on="1"/>
        <pt x="367" y="669" on="0"/>
        <pt x="363" y="615" on="0"/>
        <pt x="363" y="577" on="1"/>
        <pt x="354" y="572" on="0"/>
        <pt x="317" y="569" on="0"/>
        <pt x="303" y="569" on="1"/>
        <pt x="303" y="626" on="0"/>
        <pt x="274" y="670" on="0"/>
        <pt x="256" y="670" on="1"/>
        <pt x="240" y="670" on="0"/>
        <pt x="220" y="656" on="0"/>
        <pt x="209" y="622" on="0"/>
        <pt x="205" y="564" on="0"/>
        <pt x="205" y="519" on="1"/>
        <pt x="205" y="452" on="1"/>
        <pt x="308" y="452" on="1"/>
        <pt x="308" y="442" on="0"/>
        <pt x="304" y="417" on="0"/>
        <pt x="298" y="407" on="1"/>
        <pt x="244" y="407" on="0"/>
        <pt x="205" y="395" on="1"/>
        <pt x="205" y="147" on="1"/>
        <pt x="205" y="114" on="0"/>
        <pt x="215" y="74" on="0"/>
        <pt x="237" y="50" on="0"/>
        <pt x="270" y="41" on="0"/>
        <pt x="294" y="40" on="1"/>
        <pt x="299" y="26" on="0"/>
        <pt x="299" y="-3" on="1"/>
        <pt x="276" y="-1" on="0"/>
        <pt x="208" y="0" on="0"/>
        <pt x="173" y="0" on="1"/>
        <pt x="136" y="0" on="1"/>
        <pt x="117" y="0" on="0"/>
        <pt x="81" y="-1" on="0"/>
        <pt x="51" y="-2" on="0"/>
        <pt x="41" y="-3" on="1"/>
        <pt x="41" y="26" on="0"/>
        <pt x="46" y="40" on="1"/>
        <pt x="86" y="42" on="0"/>
        <pt x="115" y="77" on="0"/>
        <pt x="115" y="127" on="1"/>
        <pt x="115" y="398" on="1"/>
        <pt x="93" y="403" on="0"/>
        <pt x="51" y="407" on="0"/>
        <pt x="36" y="407" on="1"/>
        <pt x="36" y="434" on="0"/>
        <pt x="50" y="452" on="1"/>
      </contour>
    </TTGlyph>
    <TTGlyph name="f_f" xMin="36" yMin="-3" xMax="743" yMax="714">
      <contour>
        <pt x="116" y="452" on="1"/>
        <pt x="116" y="471" on="1"/>
        <pt x="116" y="521" on="0"/>
        <pt x="153" y="605" on="0"/>
        <pt x="217" y="665" on="0"/>
        <pt x="303" y="699" on="0"/>
        <pt x="353" y="699" on="1"/>
        <pt x="396" y="699" on="0"/>
        <pt x="436" y="684" on="1"/>
        <pt x="469" y="672" on="0"/>
        <pt x="497" y="650" on="1"/>
        <pt x="504" y="657" on="1"/>
        <pt x="534" y="686" on="0"/>
        <pt x="609" y="714" on="0"/>
        <pt x="648" y="714" on="1"/>
        <pt x="687" y="714" on="0"/>
        <pt x="726" y="699" on="0"/>
        <pt x="743" y="689" on="1"/>
        <pt x="741" y="657" on="0"/>
        <pt x="739" y="599" on="0"/>
        <pt x="739" y="572" on="1"/>
        <pt x="726" y="568" on="0"/>
        <pt x="696" y="564" on="0"/>
        <pt x="682" y="564" on="1"/>
        <pt x="682" y="605" on="0"/>
        <pt x="646" y="659" on="0"/>
        <pt x="604" y="659" on="1"/>
        <pt x="563" y="659" on="0"/>
        <pt x="529" y="586" on="0"/>
        <pt x="529" y="519" on="1"/>
        <pt x="529" y="452" on="1"/>
        <pt x="631" y="452" on="1"/>
        <pt x="631" y="442" on="0"/>
        <pt x="627" y="417" on="0"/>
        <pt x="621" y="407" on="1"/>
        <pt x="568" y="407" on="0"/>
        <pt x="529" y="395" on="1"/>
        <pt x="529" y="147" on="1"/>
        <pt x="529" y="114" on="0"/>
        <pt x="539" y="74" on="0"/>
        <pt x="561" y="50" on="0"/>
        <pt x="594" y="41" on="0"/>
        <pt x="618" y="40" on="1"/>
        <pt x="623" y="26" on="0"/>
        <pt x="623" y="-3" on="1"/>
        <pt x="600" y="-1" on="0"/>
        <pt x="532" y="0" on="0"/>
        <pt x="497" y="0" on="1"/>
        <pt x="460" y="0" on="1"/>
        <pt x="441" y="0" on="0"/>
        <pt x="405" y="-1" on="0"/>
        <pt x="375" y="-2" on="0"/>
        <pt x="365" y="-3" on="1"/>
        <pt x="365" y="26" on="0"/>
        <pt x="370" y="40" on="1"/>
        <pt x="410" y="42" on="0"/>
        <pt x="439" y="77" on="0"/>
        <pt x="439" y="127" on="1"/>
        <pt x="439" y="399" on="1"/>
        <pt x="417" y="404" on="0"/>
        <pt x="368" y="409" on="0"/>
        <pt x="333" y="409" on="1"/>
        <pt x="282" y="409" on="0"/>
        <pt x="226" y="401" on="0"/>
        <pt x="206" y="396" on="1"/>
        <pt x="206" y="147" on="1"/>
        <pt x="206" y="114" on="0"/>
        <pt x="216" y="74" on="0"/>
        <pt x="238" y="50" on="0"/>
        <pt x="271" y="41" on="0"/>
        <pt x="295" y="40" on="1"/>
        <pt x="300" y="26" on="0"/>
        <pt x="300" y="-3" on="1"/>
        <pt x="277" y="-1" on="0"/>
        <pt x="209" y="0" on="0"/>
        <pt x="174" y="0" on="1"/>
        <pt x="137" y="0" on="1"/>
        <pt x="118" y="0" on="0"/>
        <pt x="82" y="-1" on="0"/>
        <pt x="52" y="-2" on="0"/>
        <pt x="42" y="-3" on="1"/>
        <pt x="42" y="26" on="0"/>
        <pt x="47" y="40" on="1"/>
        <pt x="87" y="42" on="0"/>
        <pt x="116" y="77" on="0"/>
        <pt x="116" y="127" on="1"/>
        <pt x="116" y="398" on="1"/>
        <pt x="94" y="403" on="0"/>
        <pt x="51" y="407" on="0"/>
        <pt x="36" y="407" on="1"/>
        <pt x="36" y="434" on="0"/>
        <pt x="50" y="452" on="1"/>
      </contour>
      <contour>
        <pt x="439" y="452" on="1"/>
        <pt x="439" y="488" on="1"/>
        <pt x="439" y="536" on="0"/>
        <pt x="452" y="574" on="1"/>
        <pt x="434" y="603" on="0"/>
        <pt x="411" y="621" on="1"/>
        <pt x="380" y="647" on="0"/>
        <pt x="338" y="647" on="1"/>
        <pt x="281" y="647" on="0"/>
        <pt x="206" y="579" on="0"/>
        <pt x="206" y="499" on="1"/>
        <pt x="206" y="452" on="1"/>
      </contour>
    </TTGlyph>
    <TTGlyph name="f_f.calt" xMin="36" yMin="-3" xMax="698" yMax="714">
      <contour>
        <pt x="116" y="452" on="1"/>
        <pt x="116" y="471" on="1"/>
        <pt x="116" y="521" on="0"/>
        <pt x="153" y="605" on="0"/>
        <pt x="217" y="665" on="0"/>
        <pt x="303" y="699" on="0"/>
        <pt x="353" y="699" on="1"/>
        <pt x="396" y="699" on="0"/>
        <pt x="436" y="684" on="1"/>
        <pt x="462" y="675" on="0"/>
        <pt x="485" y="659" on="1"/>
        <pt x="487" y="661" on="1"/>
        <pt x="510" y="688" on="0"/>
        <pt x="568" y="714" on="0"/>
        <pt x="600" y="714" on="1"/>
        <pt x="629" y="714" on="0"/>
        <pt x="684" y="699" on="0"/>
        <pt x="698" y="689" on="1"/>
        <pt x="691" y="669" on="0"/>
        <pt x="687" y="615" on="0"/>
        <pt x="687" y="577" on="1"/>
        <pt x="678" y="572" on="0"/>
        <pt x="641" y="569" on="0"/>
        <pt x="627" y="569" on="1"/>
        <pt x="627" y="626" on="0"/>
        <pt x="598" y="670" on="0"/>
        <pt x="580" y="670" on="1"/>
        <pt x="564" y="670" on="0"/>
        <pt x="544" y="656" on="0"/>
        <pt x="533" y="622" on="0"/>
        <pt x="529" y="564" on="0"/>
        <pt x="529" y="519" on="1"/>
        <pt x="529" y="452" on="1"/>
        <pt x="631" y="452" on="1"/>
        <pt x="631" y="442" on="0"/>
        <pt x="627" y="417" on="0"/>
        <pt x="621" y="407" on="1"/>
        <pt x="568" y="407" on="0"/>
        <pt x="529" y="395" on="1"/>
        <pt x="529" y="147" on="1"/>
        <pt x="529" y="114" on="0"/>
        <pt x="539" y="74" on="0"/>
        <pt x="561" y="50" on="0"/>
        <pt x="594" y="41" on="0"/>
        <pt x="618" y="40" on="1"/>
        <pt x="623" y="26" on="0"/>
        <pt x="623" y="-3" on="1"/>
        <pt x="600" y="-1" on="0"/>
        <pt x="532" y="0" on="0"/>
        <pt x="497" y="0" on="1"/>
        <pt x="460" y="0" on="1"/>
        <pt x="441" y="0" on="0"/>
        <pt x="405" y="-1" on="0"/>
        <pt x="375" y="-2" on="0"/>
        <pt x="365" y="-3" on="1"/>
        <pt x="365" y="26" on="0"/>
        <pt x="370" y="40" on="1"/>
        <pt x="410" y="42" on="0"/>
        <pt x="439" y="77" on="0"/>
        <pt x="439" y="127" on="1"/>
        <pt x="439" y="399" on="1"/>
        <pt x="417" y="404" on="0"/>
        <pt x="368" y="409" on="0"/>
        <pt x="333" y="409" on="1"/>
        <pt x="282" y="409" on="0"/>
        <pt x="226" y="401" on="0"/>
        <pt x="206" y="396" on="1"/>
        <pt x="206" y="147" on="1"/>
        <pt x="206" y="114" on="0"/>
        <pt x="216" y="74" on="0"/>
        <pt x="238" y="50" on="0"/>
        <pt x="271" y="41" on="0"/>
        <pt x="295" y="40" on="1"/>
        <pt x="300" y="26" on="0"/>
        <pt x="300" y="-3" on="1"/>
        <pt x="277" y="-1" on="0"/>
        <pt x="209" y="0" on="0"/>
        <pt x="174" y="0" on="1"/>
        <pt x="137" y="0" on="1"/>
        <pt x="118" y="0" on="0"/>
        <pt x="82" y="-1" on="0"/>
        <pt x="52" y="-2" on="0"/>
        <pt x="42" y="-3" on="1"/>
        <pt x="42" y="26" on="0"/>
        <pt x="47" y="40" on="1"/>
        <pt x="87" y="42" on="0"/>
        <pt x="116" y="77" on="0"/>
        <pt x="116" y="127" on="1"/>
        <pt x="116" y="398" on="1"/>
        <pt x="94" y="403" on="0"/>
        <pt x="51" y="407" on="0"/>
        <pt x="36" y="407" on="1"/>
        <pt x="36" y="434" on="0"/>
        <pt x="50" y="452" on="1"/>
      </contour>
      <contour>
        <pt x="439" y="452" on="1"/>
        <pt x="439" y="488" on="1"/>
        <pt x="439" y="540" on="0"/>
        <pt x="448" y="579" on="1"/>
        <pt x="432" y="604" on="0"/>
        <pt x="411" y="621" on="1"/>
        <pt x="380" y="647" on="0"/>
        <pt x="338" y="647" on="1"/>
        <pt x="281" y="647" on="0"/>
        <pt x="206" y="579" on="0"/>
        <pt x="206" y="499" on="1"/>
        <pt x="206" y="452" on="1"/>
      </contour>
    </TTGlyph>
</ttFont>
